STARTFONT 2.3
FONT -FontForge-Roboto Condensed-Book-R-Condensed---10-100-72-72-P-49-ISO10646-1
SIZE 10 72 72  4
FONTBOUNDINGBOX 18 16 -8 -3
COMMENT "Generated by fontforge, http://fontforge.sourceforge.net"
COMMENT "Copyright 2011 Google Inc. All Rights Reserved."
STARTPROPERTIES 42
FOUNDRY "FontForge"
FAMILY_NAME "Roboto Condensed"
WEIGHT_NAME "Book"
SLANT "R"
SETWIDTH_NAME "Condensed"
ADD_STYLE_NAME ""
PIXEL_SIZE 10
POINT_SIZE 100
RESOLUTION_X 72
RESOLUTION_Y 72
SPACING "P"
AVERAGE_WIDTH 49
CHARSET_REGISTRY "ISO10646"
CHARSET_ENCODING "1"
FONTNAME_REGISTRY ""
CHARSET_COLLECTIONS "ISO8859-2 ISO8859-5 ISO8859-7 ISO8859-9 ISO8859-4 ISO10646-1"
BITS_PER_PIXEL 4
FONT_NAME "RobotoCondensed-Regular"
FACE_NAME "Roboto Condensed"
COPYRIGHT "Copyright 2011 Google Inc. All Rights Reserved."
FONT_VERSION "2.137; 2017"
FONT_ASCENT 8
FONT_DESCENT 2
UNDERLINE_POSITION -1
UNDERLINE_THICKNESS 1
X_HEIGHT 4
CAP_HEIGHT 6
DEFAULT_CHAR 1
RAW_ASCENT 750
RAW_DESCENT 250
NORM_SPACE 2
RELATIVE_WEIGHT 40
RELATIVE_SETWIDTH 50
SUPERSCRIPT_X 0
SUPERSCRIPT_Y 4
SUPERSCRIPT_SIZE 6
SUBSCRIPT_X 0
SUBSCRIPT_Y 1
SUBSCRIPT_SIZE 6
FIGURE_WIDTH 5
AVG_LOWERCASE_WIDTH 48
AVG_UPPERCASE_WIDTH 58
ENDPROPERTIES
CHARS 1296
STARTCHAR uni0000
ENCODING 0
SWIDTH 0 0
DWIDTH 0 0
BBX 1 1 0 0
BITMAP
00
ENDCHAR
STARTCHAR uni0002
ENCODING 2
SWIDTH 0 0
DWIDTH 0 0
BBX 1 1 0 0
BITMAP
00
ENDCHAR
STARTCHAR uni000D
ENCODING 13
SWIDTH 229 0
DWIDTH 2 0
BBX 1 1 0 0
BITMAP
00
ENDCHAR
STARTCHAR space
ENCODING 32
SWIDTH 229 0
DWIDTH 2 0
BBX 1 1 0 0
BITMAP
00
ENDCHAR
STARTCHAR exclam
ENCODING 33
SWIDTH 245 0
DWIDTH 2 0
BBX 2 7 0 0
BITMAP
3A
3A
3A
3A
29
00
29
ENDCHAR
STARTCHAR quotedbl
ENCODING 34
SWIDTH 319 0
DWIDTH 3 0
BBX 3 3 0 5
BITMAP
56A0
5590
5480
ENDCHAR
STARTCHAR numbersign
ENCODING 35
SWIDTH 547 0
DWIDTH 5 0
BBX 6 7 0 0
BITMAP
0091A0
00A280
1FFFF3
028730
5FFFE0
073A00
0A1A00
ENDCHAR
STARTCHAR dollar
ENCODING 36
SWIDTH 493 0
DWIDTH 5 0
BBX 5 10 0 -1
BITMAP
001000
00A000
0AFA00
2C1B40
1D3210
05DA00
110B50
591A50
1BFB00
009000
ENDCHAR
STARTCHAR percent
ENCODING 37
SWIDTH 632 0
DWIDTH 6 0
BBX 6 7 0 0
BITMAP
3EA000
75B180
3EA820
003700
0095E8
05493B
0004E8
ENDCHAR
STARTCHAR ampersand
ENCODING 38
SWIDTH 543 0
DWIDTH 5 0
BBX 6 7 0 0
BITMAP
08E800
0E2D00
0B8800
0AD130
5869C0
691C90
1BEAD1
ENDCHAR
STARTCHAR quotesingle
ENCODING 39
SWIDTH 174 0
DWIDTH 2 0
BBX 2 2 0 6
BITMAP
73
73
ENDCHAR
STARTCHAR parenleft
ENCODING 40
SWIDTH 313 0
DWIDTH 3 0
BBX 3 10 0 -2
BITMAP
0180
0840
0C00
3900
5800
5800
3900
0C00
0830
0180
ENDCHAR
STARTCHAR parenright
ENCODING 41
SWIDTH 318 0
DWIDTH 3 0
BBX 3 10 0 -2
BITMAP
7100
2900
0B10
0750
0670
0670
0750
0A10
2900
7100
ENDCHAR
STARTCHAR asterisk
ENCODING 42
SWIDTH 430 0
DWIDTH 4 0
BBX 5 5 0 2
BITMAP
038000
87A910
2BE400
2A7600
010100
ENDCHAR
STARTCHAR plus
ENCODING 43
SWIDTH 496 0
DWIDTH 5 0
BBX 5 7 0 0
BITMAP
001000
00D000
00D000
9FFF80
00D000
00D000
003000
ENDCHAR
STARTCHAR comma
ENCODING 44
SWIDTH 196 0
DWIDTH 2 0
BBX 2 2 0 -1
BITMAP
67
82
ENDCHAR
STARTCHAR hyphen
ENCODING 45
SWIDTH 248 0
DWIDTH 2 0
BBX 3 1 0 2
BITMAP
CF40
ENDCHAR
STARTCHAR period
ENCODING 46
SWIDTH 263 0
DWIDTH 3 0
BBX 2 1 0 0
BITMAP
3A
ENDCHAR
STARTCHAR slash
ENCODING 47
SWIDTH 370 0
DWIDTH 4 0
BBX 4 8 0 -1
BITMAP
0083
00B0
0290
0740
0B00
1A00
6500
A100
ENDCHAR
STARTCHAR zero
ENCODING 48
SWIDTH 493 0
DWIDTH 5 0
BBX 5 7 0 0
BITMAP
0AE900
4B1C30
670850
760860
670850
4B1C30
0AE900
ENDCHAR
STARTCHAR one
ENCODING 49
SWIDTH 493 0
DWIDTH 5 0
BBX 4 7 0 0
BITMAP
05C2
3AC2
00B2
00B2
00B2
00B2
00B2
ENDCHAR
STARTCHAR two
ENCODING 50
SWIDTH 493 0
DWIDTH 5 0
BBX 5 7 0 0
BITMAP
1BEA00
691C30
110B20
005900
03B100
1C2000
6FFF80
ENDCHAR
STARTCHAR three
ENCODING 51
SWIDTH 493 0
DWIDTH 5 0
BBX 5 7 0 0
BITMAP
0AE800
591C20
211C10
05F900
211B30
691B30
0BE900
ENDCHAR
STARTCHAR four
ENCODING 52
SWIDTH 493 0
DWIDTH 5 0
BBX 5 7 0 0
BITMAP
005D00
00AD00
047D00
0A1D00
470D00
AFFFA0
000D00
ENDCHAR
STARTCHAR five
ENCODING 53
SWIDTH 493 0
DWIDTH 5 0
BBX 5 7 0 0
BITMAP
0CFF50
0C0000
0EEB00
031A50
000670
3B1A50
09EB00
ENDCHAR
STARTCHAR six
ENCODING 54
SWIDTH 493 0
DWIDTH 5 0
BBX 5 7 0 0
BITMAP
04C800
0D4000
3CDA00
5C1A40
580760
2D1A40
08EA00
ENDCHAR
STARTCHAR seven
ENCODING 55
SWIDTH 493 0
DWIDTH 5 0
BBX 5 7 0 0
BITMAP
9FFF70
000930
001B00
007600
00C100
049000
0A4000
ENDCHAR
STARTCHAR eight
ENCODING 56
SWIDTH 493 0
DWIDTH 5 0
BBX 5 7 0 0
BITMAP
0AE900
3B1C20
2B1C10
0BF900
491B30
691A40
1BEA00
ENDCHAR
STARTCHAR nine
ENCODING 57
SWIDTH 493 0
DWIDTH 5 0
BBX 5 7 0 0
BITMAP
0AE700
5A1D10
760940
5A1C40
0BDC30
004D00
09C300
ENDCHAR
STARTCHAR colon
ENCODING 58
SWIDTH 233 0
DWIDTH 2 0
BBX 2 5 0 0
BITMAP
3A
00
00
00
3A
ENDCHAR
STARTCHAR semicolon
ENCODING 59
SWIDTH 202 0
DWIDTH 2 0
BBX 2 6 0 -1
BITMAP
58
00
00
01
58
83
ENDCHAR
STARTCHAR less
ENCODING 60
SWIDTH 445 0
DWIDTH 4 0
BBX 4 4 0 1
BITMAP
0069
4B71
4B61
0069
ENDCHAR
STARTCHAR equal
ENCODING 61
SWIDTH 479 0
DWIDTH 5 0
BBX 5 3 0 2
BITMAP
4FFF20
000000
4FFF20
ENDCHAR
STARTCHAR greater
ENCODING 62
SWIDTH 459 0
DWIDTH 5 0
BBX 5 4 0 1
BITMAP
492000
039910
03AA10
492000
ENDCHAR
STARTCHAR question
ENCODING 63
SWIDTH 421 0
DWIDTH 4 0
BBX 4 7 0 0
BITMAP
2DE5
654B
0049
01C1
0670
0000
0660
ENDCHAR
STARTCHAR at
ENCODING 64
SWIDTH 769 0
DWIDTH 8 0
BBX 8 9 0 -2
BITMAP
008EE900
08811780
1B0BE3A0
56587472
64928263
65A3B3A1
395E8E70
0C612100
02BEC200
ENDCHAR
STARTCHAR A
ENCODING 65
SWIDTH 576 0
DWIDTH 6 0
BBX 6 7 0 0
BITMAP
00A600
01CB00
057A10
0A2560
0EFFB0
5800C1
A40086
ENDCHAR
STARTCHAR B
ENCODING 66
SWIDTH 545 0
DWIDTH 5 0
BBX 5 7 0 0
BITMAP
4FFD30
4A05A0
4A0690
4FFF30
4A03C0
4A04C0
4FFD40
ENDCHAR
STARTCHAR C
ENCODING 67
SWIDTH 566 0
DWIDTH 6 0
BBX 6 7 0 0
BITMAP
06DE50
2D22D1
590071
680000
580061
2D22D0
06ED50
ENDCHAR
STARTCHAR D
ENCODING 68
SWIDTH 570 0
DWIDTH 6 0
BBX 6 7 0 0
BITMAP
4FFC20
4A05C0
4A00D0
4A00C1
4A00D0
4A05C0
4FFB20
ENDCHAR
STARTCHAR E
ENCODING 69
SWIDTH 496 0
DWIDTH 5 0
BBX 5 7 0 0
BITMAP
4FFF80
4A0000
4A0000
4FFF30
4A0000
4A0000
4FFF90
ENDCHAR
STARTCHAR F
ENCODING 70
SWIDTH 480 0
DWIDTH 5 0
BBX 5 7 0 0
BITMAP
4FFF70
4A0000
4A0000
4FFF10
4A0000
4A0000
4A0000
ENDCHAR
STARTCHAR G
ENCODING 71
SWIDTH 590 0
DWIDTH 6 0
BBX 6 7 0 0
BITMAP
07EE50
2D22D1
580041
680000
580FF3
2D21B3
06DEA1
ENDCHAR
STARTCHAR H
ENCODING 72
SWIDTH 620 0
DWIDTH 6 0
BBX 6 7 0 0
BITMAP
4A0076
4A0076
4A0076
4FFFF6
4A0076
4A0076
4A0076
ENDCHAR
STARTCHAR I
ENCODING 73
SWIDTH 250 0
DWIDTH 3 0
BBX 2 7 0 0
BITMAP
3B
3B
3B
3B
3B
3B
3B
ENDCHAR
STARTCHAR J
ENCODING 74
SWIDTH 483 0
DWIDTH 5 0
BBX 5 7 0 0
BITMAP
000C20
000C20
000C20
000C20
100C20
962E00
3DE700
ENDCHAR
STARTCHAR K
ENCODING 75
SWIDTH 544 0
DWIDTH 5 0
BBX 6 7 0 0
BITMAP
4A03C1
4A1C20
4AA500
4EE300
4C3C00
4A0970
4A01D2
ENDCHAR
STARTCHAR L
ENCODING 76
SWIDTH 475 0
DWIDTH 5 0
BBX 5 7 0 0
BITMAP
4A0000
4A0000
4A0000
4A0000
4A0000
4A0000
4FFF70
ENDCHAR
STARTCHAR M
ENCODING 77
SWIDTH 755 0
DWIDTH 8 0
BBX 7 7 0 0
BITMAP
4F1008C0
4F600CC0
4BB03BC0
49B186C0
4A66B2C0
4A1C92C0
4A0B42C0
ENDCHAR
STARTCHAR N
ENCODING 78
SWIDTH 619 0
DWIDTH 6 0
BBX 6 7 0 0
BITMAP
4D1076
4E7076
4AC176
4A5876
4A0B86
4A04E6
4A00B6
ENDCHAR
STARTCHAR O
ENCODING 79
SWIDTH 600 0
DWIDTH 6 0
BBX 6 7 0 0
BITMAP
06EE60
2D22D2
580085
680086
580085
2D22D2
06EE60
ENDCHAR
STARTCHAR P
ENCODING 80
SWIDTH 554 0
DWIDTH 6 0
BBX 6 7 0 0
BITMAP
4FFE70
4A02D1
4A01D1
4FFE70
4A0000
4A0000
4A0000
ENDCHAR
STARTCHAR Q
ENCODING 81
SWIDTH 600 0
DWIDTH 6 0
BBX 6 8 0 -1
BITMAP
07ED60
2D22D2
680095
770085
680095
3D22D2
07EFA0
0001B3
ENDCHAR
STARTCHAR R
ENCODING 82
SWIDTH 530 0
DWIDTH 5 0
BBX 5 7 0 0
BITMAP
4FFD40
4A04C0
4A04C0
4FFE30
4A0D10
4A0780
4A01D0
ENDCHAR
STARTCHAR S
ENCODING 83
SWIDTH 518 0
DWIDTH 5 0
BBX 5 7 0 0
BITMAP
0AEB10
5A1780
3B1140
05C910
320690
6A15B0
08ED30
ENDCHAR
STARTCHAR T
ENCODING 84
SWIDTH 520 0
DWIDTH 5 0
BBX 5 7 0 0
BITMAP
BFFFE0
00D100
00D100
00D100
00D100
00D100
00D100
ENDCHAR
STARTCHAR U
ENCODING 85
SWIDTH 561 0
DWIDTH 6 0
BBX 5 7 0 0
BITMAP
5800D0
5800D0
5800D0
5800D0
5800D0
4C13D0
09ED50
ENDCHAR
STARTCHAR V
ENCODING 86
SWIDTH 560 0
DWIDTH 6 0
BBX 6 7 0 0
BITMAP
A500B4
5901D0
1D0490
0A3940
067C00
01DA00
00B500
ENDCHAR
STARTCHAR W
ENCODING 87
SWIDTH 761 0
DWIDTH 8 0
BBX 8 7 0 0
BITMAP
850950A4
580C90C1
2A1AB0C0
0C56A3A0
0B927970
08D03E40
05A00E10
ENDCHAR
STARTCHAR X
ENCODING 88
SWIDTH 550 0
DWIDTH 6 0
BBX 5 7 0 0
BITMAP
5A02D0
0C3A50
04CC00
00E600
05BC00
0D2960
6A02D0
ENDCHAR
STARTCHAR Y
ENCODING 89
SWIDTH 524 0
DWIDTH 5 0
BBX 5 7 0 0
BITMAP
9502D0
3C0860
0B3C00
04D700
00D100
00C100
00C100
ENDCHAR
STARTCHAR Z
ENCODING 90
SWIDTH 522 0
DWIDTH 5 0
BBX 5 7 0 0
BITMAP
8FFFA0
000940
004A00
01C100
086000
3B0000
8FFFC0
ENDCHAR
STARTCHAR bracketleft
ENCODING 91
SWIDTH 250 0
DWIDTH 3 0
BBX 3 10 0 -2
BITMAP
5F40
5800
5800
5800
5800
5800
5800
5800
5800
5F40
ENDCHAR
STARTCHAR backslash
ENCODING 92
SWIDTH 369 0
DWIDTH 4 0
BBX 4 8 0 -1
BITMAP
9300
4800
0C00
0A20
0570
01B0
00B1
0066
ENDCHAR
STARTCHAR bracketright
ENCODING 93
SWIDTH 250 0
DWIDTH 3 0
BBX 2 10 0 -2
BITMAP
DC
1C
1C
1C
1C
1C
1C
1C
1C
DC
ENDCHAR
STARTCHAR asciicircum
ENCODING 94
SWIDTH 371 0
DWIDTH 4 0
BBX 4 3 0 4
BITMAP
0A50
1BB0
7592
ENDCHAR
STARTCHAR underscore
ENCODING 95
SWIDTH 404 0
DWIDTH 4 0
BBX 4 1 0 -1
BITMAP
DFFE
ENDCHAR
STARTCHAR grave
ENCODING 96
SWIDTH 309 0
DWIDTH 3 0
BBX 3 2 0 6
BITMAP
6A00
0B20
ENDCHAR
STARTCHAR a
ENCODING 97
SWIDTH 479 0
DWIDTH 5 0
BBX 5 5 0 0
BITMAP
1BEA00
251D10
1BFF10
691C10
2DDD30
ENDCHAR
STARTCHAR b
ENCODING 98
SWIDTH 493 0
DWIDTH 5 0
BBX 5 8 0 0
BITMAP
580000
580000
580000
5CEC10
5A1960
580670
5A1950
5CEC10
ENDCHAR
STARTCHAR c
ENCODING 99
SWIDTH 461 0
DWIDTH 5 0
BBX 5 5 0 0
BITMAP
1BEA00
681920
850000
681720
1BEA00
ENDCHAR
STARTCHAR d
ENCODING 100
SWIDTH 496 0
DWIDTH 5 0
BBX 5 8 0 0
BITMAP
000940
000940
000940
1CED40
691B40
850940
681B40
1CEC40
ENDCHAR
STARTCHAR e
ENCODING 101
SWIDTH 468 0
DWIDTH 5 0
BBX 5 5 0 0
BITMAP
1BE900
681B20
8FFF40
680200
1BEC10
ENDCHAR
STARTCHAR f
ENCODING 102
SWIDTH 316 0
DWIDTH 3 0
BBX 4 8 0 0
BITMAP
06E1
0D20
0D00
AFC0
0D00
0D00
0D00
0D00
ENDCHAR
STARTCHAR g
ENCODING 103
SWIDTH 492 0
DWIDTH 5 0
BBX 5 7 0 -2
BITMAP
1CEC40
691B40
850940
691B40
1CED40
021B30
1BEA00
ENDCHAR
STARTCHAR h
ENCODING 104
SWIDTH 482 0
DWIDTH 5 0
BBX 5 8 0 0
BITMAP
580000
580000
580000
5CEB00
5B1C20
580A30
580A30
580A30
ENDCHAR
STARTCHAR i
ENCODING 105
SWIDTH 229 0
DWIDTH 2 0
BBX 2 7 0 0
BITMAP
38
00
49
49
49
49
49
ENDCHAR
STARTCHAR j
ENCODING 106
SWIDTH 223 0
DWIDTH 2 0
BBX 3 9 -1 -2
BITMAP
0470
0000
0580
0580
0580
0580
0580
0680
1E40
ENDCHAR
STARTCHAR k
ENCODING 107
SWIDTH 450 0
DWIDTH 5 0
BBX 5 8 0 0
BITMAP
580000
580000
580000
585B00
5BD100
5DB000
586700
580C20
ENDCHAR
STARTCHAR l
ENCODING 108
SWIDTH 229 0
DWIDTH 2 0
BBX 2 8 0 0
BITMAP
49
49
49
49
49
49
49
49
ENDCHAR
STARTCHAR m
ENCODING 109
SWIDTH 752 0
DWIDTH 8 0
BBX 7 5 0 0
BITMAP
5CEBAE70
5A1C62D0
580A30D0
580A30D0
580A30D0
ENDCHAR
STARTCHAR n
ENCODING 110
SWIDTH 483 0
DWIDTH 5 0
BBX 5 5 0 0
BITMAP
5CEB00
5B1C20
580A30
580A30
580A30
ENDCHAR
STARTCHAR o
ENCODING 111
SWIDTH 501 0
DWIDTH 5 0
BBX 5 5 0 0
BITMAP
1BEB10
691960
850580
691960
1BEB10
ENDCHAR
STARTCHAR p
ENCODING 112
SWIDTH 493 0
DWIDTH 5 0
BBX 5 7 0 -2
BITMAP
5CEC10
5A1A60
580670
5A1A60
5CEC10
580000
580000
ENDCHAR
STARTCHAR q
ENCODING 113
SWIDTH 500 0
DWIDTH 5 0
BBX 5 7 0 -2
BITMAP
1CEC40
691B40
850940
791B40
1CED40
000940
000940
ENDCHAR
STARTCHAR r
ENCODING 114
SWIDTH 304 0
DWIDTH 3 0
BBX 3 5 0 0
BITMAP
5CC0
5A00
5800
5800
5800
ENDCHAR
STARTCHAR s
ENCODING 115
SWIDTH 455 0
DWIDTH 5 0
BBX 4 5 0 0
BITMAP
1CE8
4C37
07E9
451E
2CE9
ENDCHAR
STARTCHAR t
ENCODING 116
SWIDTH 295 0
DWIDTH 3 0
BBX 3 6 0 0
BITMAP
1C00
DF90
1C00
1C00
1C00
0C80
ENDCHAR
STARTCHAR u
ENCODING 117
SWIDTH 483 0
DWIDTH 5 0
BBX 5 5 0 0
BITMAP
670A30
670A30
670A30
591C30
1DED30
ENDCHAR
STARTCHAR v
ENCODING 118
SWIDTH 427 0
DWIDTH 4 0
BBX 4 5 0 0
BITMAP
940D
5848
0B84
0AC0
0590
ENDCHAR
STARTCHAR w
ENCODING 119
SWIDTH 649 0
DWIDTH 7 0
BBX 7 5 0 0
BITMAP
934B0B20
678D1C00
2AB77900
0CA3E500
0950D100
ENDCHAR
STARTCHAR x
ENCODING 120
SWIDTH 438 0
DWIDTH 4 0
BBX 4 5 0 0
BITMAP
683C
0CB3
06C0
0CA4
782C
ENDCHAR
STARTCHAR y
ENCODING 121
SWIDTH 416 0
DWIDTH 4 0
BBX 4 7 0 -2
BITMAP
A41C
5858
1B93
0AC0
0690
0940
8B00
ENDCHAR
STARTCHAR z
ENCODING 122
SWIDTH 438 0
DWIDTH 4 0
BBX 4 5 0 0
BITMAP
8FFD
0086
0590
2B00
8FFF
ENDCHAR
STARTCHAR braceleft
ENCODING 123
SWIDTH 306 0
DWIDTH 3 0
BBX 3 10 0 -2
BITMAP
0290
0A30
0C10
0C10
1D00
A800
1D00
0C10
0B30
0390
ENDCHAR
STARTCHAR bar
ENCODING 124
SWIDTH 243 0
DWIDTH 2 0
BBX 2 8 0 -1
BITMAP
29
29
29
29
29
29
29
29
ENDCHAR
STARTCHAR braceright
ENCODING 125
SWIDTH 306 0
DWIDTH 3 0
BBX 3 10 0 -2
BITMAP
8300
3A00
0D00
0D00
0C10
07B0
0D10
0D00
2C00
8400
ENDCHAR
STARTCHAR asciitilde
ENCODING 126
SWIDTH 589 0
DWIDTH 6 0
BBX 6 2 0 2
BITMAP
1CD383
584DB0
ENDCHAR
STARTCHAR uni00A0
ENCODING 160
SWIDTH 229 0
DWIDTH 2 0
BBX 1 1 0 0
BITMAP
00
ENDCHAR
STARTCHAR exclamdown
ENCODING 161
SWIDTH 231 0
DWIDTH 2 0
BBX 2 7 0 -2
BITMAP
38
00
38
49
49
49
49
ENDCHAR
STARTCHAR cent
ENCODING 162
SWIDTH 479 0
DWIDTH 5 0
BBX 5 9 0 -2
BITMAP
001000
00D000
0AFA00
5A1A30
760000
5A1820
0BFA00
00D000
002000
ENDCHAR
STARTCHAR sterling
ENCODING 163
SWIDTH 510 0
DWIDTH 5 0
BBX 5 7 0 0
BITMAP
05ED30
0D3670
0E0000
8FF400
0D0000
0D0000
8FFFC0
ENDCHAR
STARTCHAR currency
ENCODING 164
SWIDTH 712 0
DWIDTH 7 0
BBX 7 6 0 0
BITMAP
4BBECA70
0D604E20
49000760
49000760
0E604E20
4ABEC960
ENDCHAR
STARTCHAR yen
ENCODING 165
SWIDTH 463 0
DWIDTH 5 0
BBX 5 7 0 0
BITMAP
A50A50
4B1E00
0E9800
08F300
6FFF00
6FFF00
02B000
ENDCHAR
STARTCHAR brokenbar
ENCODING 166
SWIDTH 239 0
DWIDTH 2 0
BBX 2 8 0 -1
BITMAP
49
49
49
49
00
49
49
49
ENDCHAR
STARTCHAR section
ENCODING 167
SWIDTH 537 0
DWIDTH 5 0
BBX 5 9 0 -2
BITMAP
0AEC30
4A1590
2D4000
3CBE40
7703B0
2CCB70
003B70
781790
1BEC20
ENDCHAR
STARTCHAR dieresis
ENCODING 168
SWIDTH 417 0
DWIDTH 4 0
BBX 4 1 0 6
BITMAP
6648
ENDCHAR
STARTCHAR copyright
ENCODING 169
SWIDTH 785 0
DWIDTH 8 0
BBX 8 7 0 0
BITMAP
02AEE910
1C5116A0
646ED373
81B21135
647EE373
1C5117A0
02AEE910
ENDCHAR
STARTCHAR ordfeminine
ENCODING 170
SWIDTH 395 0
DWIDTH 4 0
BBX 4 4 0 3
BITMAP
1CD1
1593
2EF4
2EE4
ENDCHAR
STARTCHAR guillemotleft
ENCODING 171
SWIDTH 417 0
DWIDTH 4 0
BBX 4 4 0 1
BITMAP
0957
49B1
49B1
0957
ENDCHAR
STARTCHAR logicalnot
ENCODING 172
SWIDTH 487 0
DWIDTH 5 0
BBX 5 2 0 2
BITMAP
6FFF10
000C10
ENDCHAR
STARTCHAR uni00AD
ENCODING 173
SWIDTH 248 0
DWIDTH 2 0
BBX 3 1 0 2
BITMAP
CF40
ENDCHAR
STARTCHAR registered
ENCODING 174
SWIDTH 786 0
DWIDTH 8 0
BBX 8 7 0 0
BITMAP
02AEE910
1C5117A0
648FD273
81837535
648FF373
1C5117A0
02AEE910
ENDCHAR
STARTCHAR macron
ENCODING 175
SWIDTH 414 0
DWIDTH 4 0
BBX 4 1 0 6
BITMAP
5FF8
ENDCHAR
STARTCHAR degree
ENCODING 176
SWIDTH 373 0
DWIDTH 4 0
BBX 4 3 0 4
BITMAP
1DA0
57A1
1DB0
ENDCHAR
STARTCHAR plusminus
ENCODING 177
SWIDTH 469 0
DWIDTH 5 0
BBX 5 6 0 0
BITMAP
00C000
00C000
7FFF40
00C000
000000
5FFF10
ENDCHAR
STARTCHAR uni00B2
ENCODING 178
SWIDTH 329 0
DWIDTH 3 0
BBX 3 4 0 3
BITMAP
4E80
53A0
1920
8FE0
ENDCHAR
STARTCHAR uni00B3
ENCODING 179
SWIDTH 329 0
DWIDTH 3 0
BBX 3 4 0 3
BITMAP
6E90
0C80
42B0
5E80
ENDCHAR
STARTCHAR acute
ENCODING 180
SWIDTH 313 0
DWIDTH 3 0
BBX 3 2 0 6
BITMAP
0B50
3900
ENDCHAR
STARTCHAR mu
ENCODING 181
SWIDTH 498 0
DWIDTH 5 0
BBX 5 7 0 -2
BITMAP
490940
490940
490940
4B1B40
4EED40
490000
490000
ENDCHAR
STARTCHAR paragraph
ENCODING 182
SWIDTH 434 0
DWIDTH 4 0
BBX 4 8 0 0
BITMAP
0011
2DF8
8FF8
9FF8
4FF8
0498
0058
0058
ENDCHAR
STARTCHAR periodcentered
ENCODING 183
SWIDTH 243 0
DWIDTH 2 0
BBX 2 1 0 3
BITMAP
39
ENDCHAR
STARTCHAR cedilla
ENCODING 184
SWIDTH 229 0
DWIDTH 2 0
BBX 2 2 0 -2
BITMAP
24
6A
ENDCHAR
STARTCHAR uni00B9
ENCODING 185
SWIDTH 329 0
DWIDTH 3 0
BBX 3 4 0 3
BITMAP
1930
5D30
0830
0830
ENDCHAR
STARTCHAR ordmasculine
ENCODING 186
SWIDTH 402 0
DWIDTH 4 0
BBX 4 4 0 3
BITMAP
1CD1
6776
6776
1DD1
ENDCHAR
STARTCHAR guillemotright
ENCODING 187
SWIDTH 417 0
DWIDTH 4 0
BBX 4 4 0 1
BITMAP
47A1
0A58
0A58
47A1
ENDCHAR
STARTCHAR onequarter
ENCODING 188
SWIDTH 637 0
DWIDTH 6 0
BBX 6 7 0 0
BITMAP
2B0000
8E0180
0B0720
0B2779
009399
044AFF
000029
ENDCHAR
STARTCHAR onehalf
ENCODING 189
SWIDTH 677 0
DWIDTH 7 0
BBX 7 7 0 0
BITMAP
2B000000
8E026000
0B091000
0B56DC00
01913B00
06209300
0004FF40
ENDCHAR
STARTCHAR threequarters
ENCODING 190
SWIDTH 673 0
DWIDTH 7 0
BBX 7 7 0 0
BITMAP
2CC00000
09B06200
11C28000
3EA94D00
00469B00
0085FF50
00000B00
ENDCHAR
STARTCHAR questiondown
ENCODING 191
SWIDTH 421 0
DWIDTH 4 0
BBX 4 7 0 -2
BITMAP
0470
0000
0670
1C20
7600
964B
3DD3
ENDCHAR
STARTCHAR Agrave
ENCODING 192
SWIDTH 576 0
DWIDTH 6 0
BBX 6 10 0 0
BITMAP
04C000
009300
000000
00A600
01CB00
057A10
0A2560
0EFFB0
5800C1
A40086
ENDCHAR
STARTCHAR Aacute
ENCODING 193
SWIDTH 576 0
DWIDTH 6 0
BBX 6 10 0 0
BITMAP
001D20
005700
000000
00A600
01CB00
057A10
0A2560
0EFFB0
5800C1
A40086
ENDCHAR
STARTCHAR Acircumflex
ENCODING 194
SWIDTH 576 0
DWIDTH 6 0
BBX 6 10 0 0
BITMAP
00A800
038A10
000000
00A600
01CB00
057A10
0A2560
0EFFB0
5800C1
A40086
ENDCHAR
STARTCHAR Atilde
ENCODING 195
SWIDTH 576 0
DWIDTH 6 0
BBX 6 10 0 0
BITMAP
04C550
084D10
000000
00A600
01CB00
057A10
0A2560
0EFFB0
5800C1
A40086
ENDCHAR
STARTCHAR Adieresis
ENCODING 196
SWIDTH 576 0
DWIDTH 6 0
BBX 6 9 0 0
BITMAP
084750
000000
00A600
01CB00
057A10
0A2560
0EFFB0
5800C1
A40086
ENDCHAR
STARTCHAR Aring
ENCODING 197
SWIDTH 576 0
DWIDTH 6 0
BBX 6 10 0 0
BITMAP
019800
019800
000000
00A600
01CB00
057A10
0A2560
0EFFB0
5800C1
A40086
ENDCHAR
STARTCHAR AE
ENCODING 198
SWIDTH 812 0
DWIDTH 8 0
BBX 8 7 0 0
BITMAP
000AFFFA
003AD000
00A2D000
0380EFF5
0BFFE000
4A00D000
B400DFFD
ENDCHAR
STARTCHAR Ccedilla
ENCODING 199
SWIDTH 566 0
DWIDTH 6 0
BBX 6 9 0 -2
BITMAP
06DE50
2D22D1
590071
680000
580061
2D22D0
06ED50
003300
007900
ENDCHAR
STARTCHAR Egrave
ENCODING 200
SWIDTH 496 0
DWIDTH 5 0
BBX 5 10 0 0
BITMAP
088000
01B000
000000
4FFF80
4A0000
4A0000
4FFF30
4A0000
4A0000
4FFF90
ENDCHAR
STARTCHAR Eacute
ENCODING 201
SWIDTH 496 0
DWIDTH 5 0
BBX 5 10 0 0
BITMAP
004C00
009300
000000
4FFF80
4A0000
4A0000
4FFF30
4A0000
4A0000
4FFF90
ENDCHAR
STARTCHAR Ecircumflex
ENCODING 202
SWIDTH 496 0
DWIDTH 5 0
BBX 5 10 0 0
BITMAP
01D400
065900
000000
4FFF80
4A0000
4A0000
4FFF30
4A0000
4A0000
4FFF90
ENDCHAR
STARTCHAR Edieresis
ENCODING 203
SWIDTH 496 0
DWIDTH 5 0
BBX 5 9 0 0
BITMAP
0B1A20
000000
4FFF80
4A0000
4A0000
4FFF30
4A0000
4A0000
4FFF90
ENDCHAR
STARTCHAR Igrave
ENCODING 204
SWIDTH 250 0
DWIDTH 3 0
BBX 3 10 -1 0
BITMAP
1D20
0570
0000
03B0
03B0
03B0
03B0
03B0
03B0
03B0
ENDCHAR
STARTCHAR Iacute
ENCODING 205
SWIDTH 250 0
DWIDTH 3 0
BBX 3 10 0 0
BITMAP
0970
1B00
0000
3B00
3B00
3B00
3B00
3B00
3B00
3B00
ENDCHAR
STARTCHAR Icircumflex
ENCODING 206
SWIDTH 250 0
DWIDTH 3 0
BBX 3 10 0 0
BITMAP
5C00
A640
0000
3B00
3B00
3B00
3B00
3B00
3B00
3B00
ENDCHAR
STARTCHAR Idieresis
ENCODING 207
SWIDTH 250 0
DWIDTH 3 0
BBX 4 9 -1 0
BITMAP
392A
0000
03B0
03B0
03B0
03B0
03B0
03B0
03B0
ENDCHAR
STARTCHAR Eth
ENCODING 208
SWIDTH 585 0
DWIDTH 6 0
BBX 6 7 0 0
BITMAP
1FFC40
1C04D0
1C00B3
EFB0A4
1C00B3
1C04D0
1FFC40
ENDCHAR
STARTCHAR Ntilde
ENCODING 209
SWIDTH 619 0
DWIDTH 6 0
BBX 6 10 0 0
BITMAP
02D480
055D30
000000
4D1076
4E7076
4AC176
4A5876
4A0B86
4A04E6
4A00B6
ENDCHAR
STARTCHAR Ograve
ENCODING 210
SWIDTH 600 0
DWIDTH 6 0
BBX 6 10 0 0
BITMAP
03D100
008400
000000
06EE60
2D22D2
580085
680086
580085
2D22D2
06EE60
ENDCHAR
STARTCHAR Oacute
ENCODING 211
SWIDTH 600 0
DWIDTH 6 0
BBX 6 10 0 0
BITMAP
000C40
004800
000000
06EE60
2D22D2
580085
680086
580085
2D22D2
06EE60
ENDCHAR
STARTCHAR Ocircumflex
ENCODING 212
SWIDTH 600 0
DWIDTH 6 0
BBX 6 10 0 0
BITMAP
009900
019920
000000
06EE60
2D22D2
580085
680086
580085
2D22D2
06EE60
ENDCHAR
STARTCHAR Otilde
ENCODING 213
SWIDTH 600 0
DWIDTH 6 0
BBX 6 10 0 0
BITMAP
02D470
064D30
000000
06EE60
2D22D2
580085
680086
580085
2D22D2
06EE60
ENDCHAR
STARTCHAR Odieresis
ENCODING 214
SWIDTH 600 0
DWIDTH 6 0
BBX 6 9 0 0
BITMAP
066570
000000
06EE60
2D22D2
580085
680086
580085
2D22D2
06EE60
ENDCHAR
STARTCHAR multiply
ENCODING 215
SWIDTH 470 0
DWIDTH 5 0
BBX 5 4 0 1
BITMAP
571A10
0AC500
0AC500
571A10
ENDCHAR
STARTCHAR Oslash
ENCODING 216
SWIDTH 600 0
DWIDTH 6 0
BBX 6 9 0 -1
BITMAP
000001
05EEB2
1D33F1
5908A5
672776
589185
1D72D1
0BED50
130000
ENDCHAR
STARTCHAR Ugrave
ENCODING 217
SWIDTH 561 0
DWIDTH 6 0
BBX 5 10 0 0
BITMAP
06B000
00A200
000000
5800D0
5800D0
5800D0
5800D0
5800D0
4C13D0
09ED50
ENDCHAR
STARTCHAR Uacute
ENCODING 218
SWIDTH 561 0
DWIDTH 6 0
BBX 5 10 0 0
BITMAP
002D10
007500
000000
5800D0
5800D0
5800D0
5800D0
5800D0
4C13D0
09ED50
ENDCHAR
STARTCHAR Ucircumflex
ENCODING 219
SWIDTH 561 0
DWIDTH 6 0
BBX 5 10 0 0
BITMAP
00C600
047A00
000000
5800D0
5800D0
5800D0
5800D0
5800D0
4C13D0
09ED50
ENDCHAR
STARTCHAR Udieresis
ENCODING 220
SWIDTH 561 0
DWIDTH 6 0
BBX 5 9 0 0
BITMAP
093840
000000
5800D0
5800D0
5800D0
5800D0
5800D0
4C13D0
09ED50
ENDCHAR
STARTCHAR Yacute
ENCODING 221
SWIDTH 524 0
DWIDTH 5 0
BBX 5 10 0 0
BITMAP
004C00
009300
000000
9502D0
3C0860
0B3C00
04D700
00D100
00C100
00C100
ENDCHAR
STARTCHAR Thorn
ENCODING 222
SWIDTH 515 0
DWIDTH 5 0
BBX 5 7 0 0
BITMAP
490000
4FFC10
490780
4903A0
490780
4FFB10
490000
ENDCHAR
STARTCHAR germandbls
ENCODING 223
SWIDTH 521 0
DWIDTH 5 0
BBX 5 8 0 0
BITMAP
0AE600
4B2D00
581B00
586700
584B00
580780
5824B0
58CE50
ENDCHAR
STARTCHAR agrave
ENCODING 224
SWIDTH 479 0
DWIDTH 5 0
BBX 5 8 0 0
BITMAP
0B6000
02A000
000000
1BEA00
251D10
1BFF10
691C10
2DDD30
ENDCHAR
STARTCHAR aacute
ENCODING 225
SWIDTH 479 0
DWIDTH 5 0
BBX 5 8 0 0
BITMAP
006B00
00A200
000000
1BEA00
251D10
1BFF10
691C10
2DDD30
ENDCHAR
STARTCHAR acircumflex
ENCODING 226
SWIDTH 479 0
DWIDTH 5 0
BBX 5 8 0 0
BITMAP
02D200
085800
000000
1BEA00
251D10
1BFF10
691C10
2DDD30
ENDCHAR
STARTCHAR atilde
ENCODING 227
SWIDTH 479 0
DWIDTH 5 0
BBX 5 8 0 0
BITMAP
0A7900
098900
000000
1BEA00
251D10
1BFF10
691C10
2DDD30
ENDCHAR
STARTCHAR adieresis
ENCODING 228
SWIDTH 479 0
DWIDTH 5 0
BBX 5 7 0 0
BITMAP
0C0C00
000000
1BEA00
251D10
1BFF10
691C10
2DDD30
ENDCHAR
STARTCHAR aring
ENCODING 229
SWIDTH 479 0
DWIDTH 5 0
BBX 5 8 0 0
BITMAP
058500
058500
000000
1BEA00
251D10
1BFF10
691C10
2DDD30
ENDCHAR
STARTCHAR ae
ENCODING 230
SWIDTH 728 0
DWIDTH 7 0
BBX 7 5 0 0
BITMAP
2CE9DE40
341E43B0
3DFFFFD0
872E4010
4ED7CE80
ENDCHAR
STARTCHAR ccedilla
ENCODING 231
SWIDTH 461 0
DWIDTH 5 0
BBX 5 7 0 -2
BITMAP
1BEA00
681920
850000
681720
1BEA00
016000
02D100
ENDCHAR
STARTCHAR egrave
ENCODING 232
SWIDTH 468 0
DWIDTH 5 0
BBX 5 8 0 0
BITMAP
0C4000
039000
000000
1BE900
681B20
8FFF40
680200
1BEC10
ENDCHAR
STARTCHAR eacute
ENCODING 233
SWIDTH 468 0
DWIDTH 5 0
BBX 5 8 0 0
BITMAP
007900
00B100
000000
1BE900
681B20
8FFF40
680200
1BEC10
ENDCHAR
STARTCHAR ecircumflex
ENCODING 234
SWIDTH 468 0
DWIDTH 5 0
BBX 5 8 0 0
BITMAP
03D100
095700
000000
1BE900
681B20
8FFF40
680200
1BEC10
ENDCHAR
STARTCHAR edieresis
ENCODING 235
SWIDTH 468 0
DWIDTH 5 0
BBX 5 7 0 0
BITMAP
1B0C00
000000
1BE900
681B20
8FFF40
680200
1BEC10
ENDCHAR
STARTCHAR igrave
ENCODING 236
SWIDTH 234 0
DWIDTH 2 0
BBX 3 8 -1 0
BITMAP
1D20
0660
0000
0490
0490
0490
0490
0490
ENDCHAR
STARTCHAR iacute
ENCODING 237
SWIDTH 234 0
DWIDTH 2 0
BBX 3 8 0 0
BITMAP
0B60
2A00
0000
4900
4900
4900
4900
4900
ENDCHAR
STARTCHAR icircumflex
ENCODING 238
SWIDTH 234 0
DWIDTH 2 0
BBX 3 8 0 0
BITMAP
6B00
A730
0000
4900
4900
4900
4900
4900
ENDCHAR
STARTCHAR idieresis
ENCODING 239
SWIDTH 234 0
DWIDTH 2 0
BBX 4 7 -1 0
BITMAP
4839
0000
0490
0490
0490
0490
0490
ENDCHAR
STARTCHAR eth
ENCODING 240
SWIDTH 513 0
DWIDTH 5 0
BBX 5 8 0 0
BITMAP
0A6600
02EA00
033D10
09ED50
3B1870
670670
3B1B40
08E900
ENDCHAR
STARTCHAR ntilde
ENCODING 241
SWIDTH 483 0
DWIDTH 5 0
BBX 5 8 0 0
BITMAP
0A6900
099900
000000
5CEB00
5B1C20
580A30
580A30
580A30
ENDCHAR
STARTCHAR ograve
ENCODING 242
SWIDTH 501 0
DWIDTH 5 0
BBX 5 8 0 0
BITMAP
0B5000
02A000
000000
1BEB10
691960
850580
691960
1BEB10
ENDCHAR
STARTCHAR oacute
ENCODING 243
SWIDTH 501 0
DWIDTH 5 0
BBX 5 8 0 0
BITMAP
006A00
00B100
000000
1BEB10
691960
850580
691960
1BEB10
ENDCHAR
STARTCHAR ocircumflex
ENCODING 244
SWIDTH 501 0
DWIDTH 5 0
BBX 5 8 0 0
BITMAP
03D200
085700
000000
1BEB10
691960
850580
691960
1BEB10
ENDCHAR
STARTCHAR otilde
ENCODING 245
SWIDTH 501 0
DWIDTH 5 0
BBX 5 8 0 0
BITMAP
0A7900
098900
000000
1BEB10
691960
850580
691960
1BEB10
ENDCHAR
STARTCHAR odieresis
ENCODING 246
SWIDTH 501 0
DWIDTH 5 0
BBX 5 7 0 0
BITMAP
0B0C00
000000
1BEB10
691960
850580
691960
1BEB10
ENDCHAR
STARTCHAR divide
ENCODING 247
SWIDTH 500 0
DWIDTH 5 0
BBX 5 5 0 1
BITMAP
00C000
000000
9FFF70
000000
00C000
ENDCHAR
STARTCHAR oslash
ENCODING 248
SWIDTH 498 0
DWIDTH 5 0
BBX 5 7 0 -1
BITMAP
000400
0AED00
5A5B50
759580
5A6A60
0CEA00
040000
ENDCHAR
STARTCHAR ugrave
ENCODING 249
SWIDTH 483 0
DWIDTH 5 0
BBX 5 8 0 0
BITMAP
0C4000
039000
000000
670A30
670A30
670A30
591C30
1DED30
ENDCHAR
STARTCHAR uacute
ENCODING 250
SWIDTH 483 0
DWIDTH 5 0
BBX 5 8 0 0
BITMAP
007900
00B100
000000
670A30
670A30
670A30
591C30
1DED30
ENDCHAR
STARTCHAR ucircumflex
ENCODING 251
SWIDTH 483 0
DWIDTH 5 0
BBX 5 8 0 0
BITMAP
03D100
095700
000000
670A30
670A30
670A30
591C30
1DED30
ENDCHAR
STARTCHAR udieresis
ENCODING 252
SWIDTH 483 0
DWIDTH 5 0
BBX 5 7 0 0
BITMAP
1B0C00
000000
670A30
670A30
670A30
591C30
1DED30
ENDCHAR
STARTCHAR yacute
ENCODING 253
SWIDTH 416 0
DWIDTH 4 0
BBX 4 10 0 -2
BITMAP
00A6
02A0
0000
A41C
5858
1B93
0AC0
0690
0940
8B00
ENDCHAR
STARTCHAR thorn
ENCODING 254
SWIDTH 508 0
DWIDTH 5 0
BBX 5 10 0 -2
BITMAP
580000
580000
580000
5DEB00
5A1A50
580670
5A1A50
5DEB00
580000
580000
ENDCHAR
STARTCHAR ydieresis
ENCODING 255
SWIDTH 416 0
DWIDTH 4 0
BBX 4 9 0 -2
BITMAP
4839
0000
A41C
5858
1B93
0AC0
0690
0940
8B00
ENDCHAR
STARTCHAR Amacron
ENCODING 256
SWIDTH 576 0
DWIDTH 6 0
BBX 6 9 0 0
BITMAP
08FF50
000000
00A600
01CB00
057A10
0A2560
0EFFB0
5800C1
A40086
ENDCHAR
STARTCHAR amacron
ENCODING 257
SWIDTH 479 0
DWIDTH 5 0
BBX 5 7 0 0
BITMAP
0EFE00
000000
1BEA00
251D10
1BFF10
691C10
2DDD30
ENDCHAR
STARTCHAR Abreve
ENCODING 258
SWIDTH 576 0
DWIDTH 6 0
BBX 6 10 0 0
BITMAP
075850
02DC10
000000
00A600
01CB00
057A10
0A2560
0EFFB0
5800C1
A40086
ENDCHAR
STARTCHAR abreve
ENCODING 259
SWIDTH 479 0
DWIDTH 5 0
BBX 5 8 0 0
BITMAP
0C1C00
07E600
000000
1BEA00
251D10
1BFF10
691C10
2DDD30
ENDCHAR
STARTCHAR Aogonek
ENCODING 260
SWIDTH 576 0
DWIDTH 6 0
BBX 6 9 0 -2
BITMAP
00A600
01CB00
057A10
0A2560
0EFFB0
5800C1
A40086
000091
0000D5
ENDCHAR
STARTCHAR aogonek
ENCODING 261
SWIDTH 479 0
DWIDTH 5 0
BBX 5 7 0 -2
BITMAP
1BEA00
251D10
1BFF10
691C10
2DDD30
002900
003E20
ENDCHAR
STARTCHAR Cacute
ENCODING 262
SWIDTH 566 0
DWIDTH 6 0
BBX 6 10 0 0
BITMAP
001D20
005600
000000
06DE50
2D22D1
590071
680000
580061
2D22D0
06ED50
ENDCHAR
STARTCHAR cacute
ENCODING 263
SWIDTH 461 0
DWIDTH 5 0
BBX 5 8 0 0
BITMAP
009700
01B000
000000
1BEA00
681920
850000
681720
1BEA00
ENDCHAR
STARTCHAR Ccircumflex
ENCODING 264
SWIDTH 566 0
DWIDTH 6 0
BBX 6 10 0 0
BITMAP
00B700
038A00
000000
06DE50
2D22D1
590071
680000
580061
2D22D0
06ED50
ENDCHAR
STARTCHAR ccircumflex
ENCODING 265
SWIDTH 461 0
DWIDTH 5 0
BBX 5 8 0 0
BITMAP
05C100
0A6500
000000
1BEA00
681920
850000
681720
1BEA00
ENDCHAR
STARTCHAR Cdotaccent
ENCODING 266
SWIDTH 566 0
DWIDTH 6 0
BBX 6 9 0 0
BITMAP
008500
000000
06DE50
2D22D1
590071
680000
580061
2D22D0
06ED50
ENDCHAR
STARTCHAR cdotaccent
ENCODING 267
SWIDTH 461 0
DWIDTH 5 0
BBX 5 7 0 0
BITMAP
02A000
000000
1BEA00
681920
850000
681720
1BEA00
ENDCHAR
STARTCHAR Ccaron
ENCODING 268
SWIDTH 566 0
DWIDTH 6 0
BBX 6 10 0 0
BITMAP
038A10
009600
000000
06DE50
2D22D1
590071
680000
580061
2D22D0
06ED50
ENDCHAR
STARTCHAR ccaron
ENCODING 269
SWIDTH 461 0
DWIDTH 5 0
BBX 5 8 0 0
BITMAP
0B6500
04C000
000000
1BEA00
681920
850000
681720
1BEA00
ENDCHAR
STARTCHAR Dcaron
ENCODING 270
SWIDTH 570 0
DWIDTH 6 0
BBX 6 10 0 0
BITMAP
075A00
01D200
000000
4FFC20
4A05C0
4A00D0
4A00C1
4A00D0
4A05C0
4FFB20
ENDCHAR
STARTCHAR dcaron
ENCODING 271
SWIDTH 569 0
DWIDTH 6 0
BBX 6 8 0 0
BITMAP
000989
000994
000940
1CED40
691B40
850940
681B40
1CEC40
ENDCHAR
STARTCHAR Dcroat
ENCODING 272
SWIDTH 585 0
DWIDTH 6 0
BBX 6 7 0 0
BITMAP
1FFC40
1C04D0
1C00B3
EFB0A4
1C00B3
1C04D0
1FFC40
ENDCHAR
STARTCHAR dcroat
ENCODING 273
SWIDTH 529 0
DWIDTH 5 0
BBX 6 8 0 0
BITMAP
000940
009FF1
000940
1BED40
691B40
750940
591B40
0BED40
ENDCHAR
STARTCHAR Emacron
ENCODING 274
SWIDTH 496 0
DWIDTH 5 0
BBX 5 9 0 0
BITMAP
0CFF10
000000
4FFF80
4A0000
4A0000
4FFF30
4A0000
4A0000
4FFF90
ENDCHAR
STARTCHAR emacron
ENCODING 275
SWIDTH 468 0
DWIDTH 5 0
BBX 5 7 0 0
BITMAP
0FFD00
000000
1BE900
681B20
8FFF40
680200
1BEC10
ENDCHAR
STARTCHAR Ebreve
ENCODING 276
SWIDTH 496 0
DWIDTH 5 0
BBX 5 10 0 0
BITMAP
0B2C10
05E800
000000
4FFF80
4A0000
4A0000
4FFF30
4A0000
4A0000
4FFF90
ENDCHAR
STARTCHAR ebreve
ENCODING 277
SWIDTH 468 0
DWIDTH 5 0
BBX 5 8 0 0
BITMAP
0C1C00
08E600
000000
1BE900
681B20
8FFF40
680200
1BEC10
ENDCHAR
STARTCHAR Edotaccent
ENCODING 278
SWIDTH 496 0
DWIDTH 5 0
BBX 5 9 0 0
BITMAP
00B100
000000
4FFF80
4A0000
4A0000
4FFF30
4A0000
4A0000
4FFF90
ENDCHAR
STARTCHAR edotaccent
ENCODING 279
SWIDTH 468 0
DWIDTH 5 0
BBX 5 7 0 0
BITMAP
01C000
000000
1BE900
681B20
8FFF40
680200
1BEC10
ENDCHAR
STARTCHAR Eogonek
ENCODING 280
SWIDTH 496 0
DWIDTH 5 0
BBX 5 9 0 -2
BITMAP
4FFF80
4A0000
4A0000
4FFF30
4A0000
4A0000
4FFF90
000A10
001D40
ENDCHAR
STARTCHAR eogonek
ENCODING 281
SWIDTH 468 0
DWIDTH 5 0
BBX 5 7 0 -2
BITMAP
1BE900
681B20
8FFF40
680200
1BFC10
00B100
00C600
ENDCHAR
STARTCHAR Ecaron
ENCODING 282
SWIDTH 496 0
DWIDTH 5 0
BBX 5 10 0 0
BITMAP
075A00
00D300
000000
4FFF80
4A0000
4A0000
4FFF30
4A0000
4A0000
4FFF90
ENDCHAR
STARTCHAR ecaron
ENCODING 283
SWIDTH 468 0
DWIDTH 5 0
BBX 5 8 0 0
BITMAP
095700
02D100
000000
1BE900
681B20
8FFF40
680200
1BEC10
ENDCHAR
STARTCHAR Gcircumflex
ENCODING 284
SWIDTH 590 0
DWIDTH 6 0
BBX 6 10 0 0
BITMAP
00B700
037A00
000000
07EE50
2D22D1
580041
680000
580FF3
2D21B3
06DEA1
ENDCHAR
STARTCHAR gcircumflex
ENCODING 285
SWIDTH 492 0
DWIDTH 5 0
BBX 5 10 0 -2
BITMAP
04D100
095600
000000
1CEC40
691B40
850940
691B40
1CED40
021B30
1BEA00
ENDCHAR
STARTCHAR Gbreve
ENCODING 286
SWIDTH 590 0
DWIDTH 6 0
BBX 6 10 0 0
BITMAP
094930
03EB00
000000
07EE50
2D22D1
580041
680000
580FF3
2D21B3
06DEA1
ENDCHAR
STARTCHAR gbreve
ENCODING 287
SWIDTH 492 0
DWIDTH 5 0
BBX 5 10 0 -2
BITMAP
1C2B00
08E500
000000
1CEC40
691B40
850940
691B40
1CED40
021B30
1BEA00
ENDCHAR
STARTCHAR Gdotaccent
ENCODING 288
SWIDTH 590 0
DWIDTH 6 0
BBX 6 9 0 0
BITMAP
009400
000000
07EE50
2D22D1
580041
680000
580FF3
2D21B3
06DEA1
ENDCHAR
STARTCHAR gdotaccent
ENCODING 289
SWIDTH 492 0
DWIDTH 5 0
BBX 5 9 0 -2
BITMAP
01B000
000000
1CEC40
691B40
850940
691B40
1CED40
021B30
1BEA00
ENDCHAR
STARTCHAR uni0122
ENCODING 290
SWIDTH 590 0
DWIDTH 6 0
BBX 6 10 0 -3
BITMAP
07EE50
2D22D1
580041
680000
580FF3
2D21B3
06DEA1
000000
005700
007300
ENDCHAR
STARTCHAR uni0123
ENCODING 291
SWIDTH 492 0
DWIDTH 5 0
BBX 5 10 0 -2
BITMAP
009000
01C000
000000
1CEC40
691B40
850940
691B40
1CED40
021B30
1BEA00
ENDCHAR
STARTCHAR Hcircumflex
ENCODING 292
SWIDTH 620 0
DWIDTH 6 0
BBX 6 10 0 0
BITMAP
009900
019910
000000
4A0076
4A0076
4A0076
4FFFF6
4A0076
4A0076
4A0076
ENDCHAR
STARTCHAR hcircumflex
ENCODING 293
SWIDTH 482 0
DWIDTH 5 0
BBX 5 11 0 0
BITMAP
07B000
0A7300
000000
580000
580000
580000
5CEB00
5B1C20
580A30
580A30
580A30
ENDCHAR
STARTCHAR Hbar
ENCODING 294
SWIDTH 611 0
DWIDTH 6 0
BBX 6 7 0 0
BITMAP
4A0076
CFFFFE
4A0076
4FFFF6
4A0076
4A0076
4A0076
ENDCHAR
STARTCHAR hbar
ENCODING 295
SWIDTH 497 0
DWIDTH 5 0
BBX 6 8 -1 0
BITMAP
03A000
1FF900
03A000
03DDD1
03C1A5
03A085
03A085
03A085
ENDCHAR
STARTCHAR Itilde
ENCODING 296
SWIDTH 250 0
DWIDTH 3 0
BBX 4 10 -1 0
BITMAP
0D49
37B6
0000
03B0
03B0
03B0
03B0
03B0
03B0
03B0
ENDCHAR
STARTCHAR itilde
ENCODING 297
SWIDTH 234 0
DWIDTH 2 0
BBX 4 8 -1 0
BITMAP
1D39
46C5
0000
0490
0490
0490
0490
0490
ENDCHAR
STARTCHAR Imacron
ENCODING 298
SWIDTH 250 0
DWIDTH 3 0
BBX 4 9 -1 0
BITMAP
2FFB
0000
03B0
03B0
03B0
03B0
03B0
03B0
03B0
ENDCHAR
STARTCHAR imacron
ENCODING 299
SWIDTH 234 0
DWIDTH 2 0
BBX 4 7 -1 0
BITMAP
3FF9
0000
0490
0490
0490
0490
0490
ENDCHAR
STARTCHAR Ibreve
ENCODING 300
SWIDTH 250 0
DWIDTH 3 0
BBX 4 10 -1 0
BITMAP
2A3A
0AE3
0000
03B0
03B0
03B0
03B0
03B0
03B0
03B0
ENDCHAR
STARTCHAR ibreve
ENCODING 301
SWIDTH 234 0
DWIDTH 2 0
BBX 4 8 -1 0
BITMAP
3949
0BE3
0000
0490
0490
0490
0490
0490
ENDCHAR
STARTCHAR Iogonek
ENCODING 302
SWIDTH 250 0
DWIDTH 3 0
BBX 2 9 0 -2
BITMAP
3B
3B
3B
3B
3B
3B
3C
92
A9
ENDCHAR
STARTCHAR iogonek
ENCODING 303
SWIDTH 229 0
DWIDTH 2 0
BBX 2 9 0 -2
BITMAP
38
00
49
49
49
49
5A
92
B8
ENDCHAR
STARTCHAR Idotaccent
ENCODING 304
SWIDTH 250 0
DWIDTH 3 0
BBX 2 9 0 0
BITMAP
3A
00
3B
3B
3B
3B
3B
3B
3B
ENDCHAR
STARTCHAR dotlessi
ENCODING 305
SWIDTH 234 0
DWIDTH 2 0
BBX 2 5 0 0
BITMAP
49
49
49
49
49
ENDCHAR
STARTCHAR IJ
ENCODING 306
SWIDTH 733 0
DWIDTH 7 0
BBX 7 7 0 0
BITMAP
3B000490
3B000490
3B000490
3B000490
3B010490
3B2D1880
3B08EC10
ENDCHAR
STARTCHAR ij
ENCODING 307
SWIDTH 452 0
DWIDTH 5 0
BBX 4 9 0 -2
BITMAP
381A
0000
490C
490C
490C
490C
490C
002C
00C8
ENDCHAR
STARTCHAR Jcircumflex
ENCODING 308
SWIDTH 483 0
DWIDTH 5 0
BBX 5 10 0 0
BITMAP
002D30
007580
000000
000C20
000C20
000C20
000C20
100C20
962E00
3DE700
ENDCHAR
STARTCHAR jcircumflex
ENCODING 309
SWIDTH 237 0
DWIDTH 2 0
BBX 4 10 -1 -2
BITMAP
06C0
0A64
0000
03A0
03A0
03A0
03A0
03A0
0590
2E40
ENDCHAR
STARTCHAR uni0136
ENCODING 310
SWIDTH 544 0
DWIDTH 5 0
BBX 6 9 0 -2
BITMAP
4A03C1
4A1C20
4AA500
4EE300
4C3C00
4A0970
4A01D2
009300
009000
ENDCHAR
STARTCHAR uni0137
ENCODING 311
SWIDTH 450 0
DWIDTH 5 0
BBX 5 10 0 -2
BITMAP
580000
580000
580000
585B00
5BD100
5DB000
586700
580C20
02A000
045000
ENDCHAR
STARTCHAR kgreenlandic
ENCODING 312
SWIDTH 491 0
DWIDTH 5 0
BBX 5 5 0 0
BITMAP
491C20
49B500
4FC000
49A700
491C40
ENDCHAR
STARTCHAR Lacute
ENCODING 313
SWIDTH 475 0
DWIDTH 5 0
BBX 5 10 0 0
BITMAP
0A6000
1A0000
000000
4A0000
4A0000
4A0000
4A0000
4A0000
4A0000
4FFF70
ENDCHAR
STARTCHAR lacute
ENCODING 314
SWIDTH 229 0
DWIDTH 2 0
BBX 3 11 0 0
BITMAP
0B50
2A00
0000
4900
4900
4900
4900
4900
4900
4900
4900
ENDCHAR
STARTCHAR uni013B
ENCODING 315
SWIDTH 475 0
DWIDTH 5 0
BBX 5 10 0 -3
BITMAP
4A0000
4A0000
4A0000
4A0000
4A0000
4A0000
4FFF70
000000
00C000
009000
ENDCHAR
STARTCHAR uni013C
ENCODING 316
SWIDTH 229 0
DWIDTH 2 0
BBX 2 11 0 -3
BITMAP
49
49
49
49
49
49
49
49
00
48
63
ENDCHAR
STARTCHAR Lcaron
ENCODING 317
SWIDTH 475 0
DWIDTH 5 0
BBX 5 7 0 0
BITMAP
4A4800
4A6300
4A0000
4A0000
4A0000
4A0000
4FFF70
ENDCHAR
STARTCHAR lcaron
ENCODING 318
SWIDTH 302 0
DWIDTH 3 0
BBX 3 8 0 0
BITMAP
49C0
4990
4900
4900
4900
4900
4900
4900
ENDCHAR
STARTCHAR Ldot
ENCODING 319
SWIDTH 475 0
DWIDTH 5 0
BBX 5 7 0 0
BITMAP
4A0000
4A0000
4A0000
4A6600
4A0000
4A0000
4FFF70
ENDCHAR
STARTCHAR ldot
ENCODING 320
SWIDTH 336 0
DWIDTH 3 0
BBX 3 8 0 0
BITMAP
4900
4900
4900
4900
49C0
4900
4900
4900
ENDCHAR
STARTCHAR Lslash
ENCODING 321
SWIDTH 475 0
DWIDTH 5 0
BBX 5 7 0 0
BITMAP
4A0000
4A0000
4A0000
5D9000
AC1000
4A0000
4FFF70
ENDCHAR
STARTCHAR lslash
ENCODING 322
SWIDTH 250 0
DWIDTH 3 0
BBX 3 8 0 0
BITMAP
3A00
3A00
3A00
5E40
AB00
3A00
3A00
3A00
ENDCHAR
STARTCHAR Nacute
ENCODING 323
SWIDTH 619 0
DWIDTH 6 0
BBX 6 10 0 0
BITMAP
000C40
003900
000000
4D1076
4E7076
4AC176
4A5876
4A0B86
4A04E6
4A00B6
ENDCHAR
STARTCHAR nacute
ENCODING 324
SWIDTH 483 0
DWIDTH 5 0
BBX 5 8 0 0
BITMAP
006A00
00B100
000000
5CEB00
5B1C20
580A30
580A30
580A30
ENDCHAR
STARTCHAR uni0145
ENCODING 325
SWIDTH 619 0
DWIDTH 6 0
BBX 6 10 0 -3
BITMAP
4D1076
4E7076
4AC176
4A5876
4A0B86
4A04E6
4A00B6
000000
006600
007200
ENDCHAR
STARTCHAR uni0146
ENCODING 326
SWIDTH 483 0
DWIDTH 5 0
BBX 5 8 0 -3
BITMAP
5CEB00
5B1C20
580A30
580A30
580A30
000000
01B000
037000
ENDCHAR
STARTCHAR Ncaron
ENCODING 327
SWIDTH 619 0
DWIDTH 6 0
BBX 6 10 0 0
BITMAP
01A930
007900
000000
4D1076
4E7076
4AC176
4A5876
4A0B86
4A04E6
4A00B6
ENDCHAR
STARTCHAR ncaron
ENCODING 328
SWIDTH 483 0
DWIDTH 5 0
BBX 5 8 0 0
BITMAP
095800
02D100
000000
5CEB00
5B1C20
580A30
580A30
580A30
ENDCHAR
STARTCHAR napostrophe
ENCODING 329
SWIDTH 483 0
DWIDTH 5 0
BBX 6 7 -1 0
BITMAP
0C0000
180000
05CEB0
05B1C2
0580A3
0580A3
0580A3
ENDCHAR
STARTCHAR Eng
ENCODING 330
SWIDTH 599 0
DWIDTH 6 0
BBX 6 9 0 -2
BITMAP
4D0094
4F6094
4AC194
496794
490BA4
4904F4
4900B4
0000B4
0008C1
ENDCHAR
STARTCHAR eng
ENCODING 331
SWIDTH 498 0
DWIDTH 5 0
BBX 5 7 0 -2
BITMAP
5BEB00
5A1B30
580940
580940
580940
000A40
007C10
ENDCHAR
STARTCHAR Omacron
ENCODING 332
SWIDTH 600 0
DWIDTH 6 0
BBX 6 9 0 0
BITMAP
06FF70
000000
06EE60
2D22D2
580085
680086
580085
2D22D2
06EE60
ENDCHAR
STARTCHAR omacron
ENCODING 333
SWIDTH 501 0
DWIDTH 5 0
BBX 5 7 0 0
BITMAP
0EFE00
000000
1BEB10
691960
850580
691960
1BEB10
ENDCHAR
STARTCHAR Obreve
ENCODING 334
SWIDTH 600 0
DWIDTH 6 0
BBX 6 10 0 0
BITMAP
067660
01CD10
000000
06EE60
2D22D2
580085
680086
580085
2D22D2
06EE60
ENDCHAR
STARTCHAR obreve
ENCODING 335
SWIDTH 501 0
DWIDTH 5 0
BBX 5 8 0 0
BITMAP
0C1C00
07E600
000000
1BEB10
691960
850580
691960
1BEB10
ENDCHAR
STARTCHAR Ohungarumlaut
ENCODING 336
SWIDTH 600 0
DWIDTH 6 0
BBX 6 10 0 0
BITMAP
0098B0
00A930
000000
06EE60
2D22D2
580085
680086
580085
2D22D2
06EE60
ENDCHAR
STARTCHAR ohungarumlaut
ENCODING 337
SWIDTH 501 0
DWIDTH 5 0
BBX 5 8 0 0
BITMAP
03BC30
067900
000000
1BEB10
691960
850580
691960
1BEB10
ENDCHAR
STARTCHAR OE
ENCODING 338
SWIDTH 826 0
DWIDTH 8 0
BBX 8 7 0 0
BITMAP
07EFFFF7
3C168000
76058000
7605FFF1
76058000
3C158000
08EFFFF7
ENDCHAR
STARTCHAR oe
ENCODING 339
SWIDTH 777 0
DWIDTH 8 0
BBX 8 5 0 0
BITMAP
0AE98EA0
5A1AC1A4
7606FFF6
5A1AB110
0AE98ED1
ENDCHAR
STARTCHAR Racute
ENCODING 340
SWIDTH 530 0
DWIDTH 5 0
BBX 5 10 0 0
BITMAP
004C00
009300
000000
4FFD40
4A04C0
4A04C0
4FFE30
4A0D10
4A0780
4A01D0
ENDCHAR
STARTCHAR racute
ENCODING 341
SWIDTH 304 0
DWIDTH 3 0
BBX 4 8 0 0
BITMAP
02D1
0750
0000
5CC0
5A00
5800
5800
5800
ENDCHAR
STARTCHAR uni0156
ENCODING 342
SWIDTH 530 0
DWIDTH 5 0
BBX 5 10 0 -3
BITMAP
4FFD40
4A04C0
4A04C0
4FFE30
4A0D10
4A0780
4A01D0
000000
00C000
009000
ENDCHAR
STARTCHAR uni0157
ENCODING 343
SWIDTH 304 0
DWIDTH 3 0
BBX 3 8 0 -3
BITMAP
5CC0
5A00
5800
5800
5800
0000
4800
6300
ENDCHAR
STARTCHAR Rcaron
ENCODING 344
SWIDTH 530 0
DWIDTH 5 0
BBX 5 10 0 0
BITMAP
075A00
01D200
000000
4FFD40
4A04C0
4A04C0
4FFE30
4A0D10
4A0780
4A01D0
ENDCHAR
STARTCHAR rcaron
ENCODING 345
SWIDTH 304 0
DWIDTH 3 0
BBX 3 8 0 0
BITMAP
57B0
0B40
0000
5CC0
5A00
5800
5800
5800
ENDCHAR
STARTCHAR Sacute
ENCODING 346
SWIDTH 518 0
DWIDTH 5 0
BBX 5 10 0 0
BITMAP
003C00
009300
000000
0AEB10
5A1780
3B1140
05C910
320690
6A15B0
08ED30
ENDCHAR
STARTCHAR sacute
ENCODING 347
SWIDTH 455 0
DWIDTH 5 0
BBX 4 8 0 0
BITMAP
006A
00B1
0000
1CE8
4C37
07E9
451E
2CE9
ENDCHAR
STARTCHAR Scircumflex
ENCODING 348
SWIDTH 518 0
DWIDTH 5 0
BBX 5 10 0 0
BITMAP
01D400
066900
000000
0AEB10
5A1780
3B1140
05C910
320690
6A15B0
08ED30
ENDCHAR
STARTCHAR scircumflex
ENCODING 349
SWIDTH 455 0
DWIDTH 5 0
BBX 4 8 0 0
BITMAP
03D2
0957
0000
1CE8
4C37
07E9
451E
2CE9
ENDCHAR
STARTCHAR Scedilla
ENCODING 350
SWIDTH 518 0
DWIDTH 5 0
BBX 5 9 0 -2
BITMAP
0AEB10
5A1780
3B1140
05C910
320690
6A15B0
08ED30
006000
00B500
ENDCHAR
STARTCHAR scedilla
ENCODING 351
SWIDTH 455 0
DWIDTH 5 0
BBX 4 7 0 -2
BITMAP
1CE8
4C37
07E9
451E
2CE9
0060
00D3
ENDCHAR
STARTCHAR Scaron
ENCODING 352
SWIDTH 518 0
DWIDTH 5 0
BBX 5 10 0 0
BITMAP
075A00
00D300
000000
0AEB10
5A1780
3B1140
05C910
320690
6A15B0
08ED30
ENDCHAR
STARTCHAR scaron
ENCODING 353
SWIDTH 455 0
DWIDTH 5 0
BBX 4 8 0 0
BITMAP
0958
02D1
0000
1CE8
4C37
07E9
451E
2CE9
ENDCHAR
STARTCHAR uni0162
ENCODING 354
SWIDTH 520 0
DWIDTH 5 0
BBX 5 9 0 -2
BITMAP
BFFFE0
00D100
00D100
00D100
00D100
00D100
00D100
006000
00B500
ENDCHAR
STARTCHAR uni0163
ENCODING 355
SWIDTH 295 0
DWIDTH 3 0
BBX 3 8 0 -2
BITMAP
1C00
DF90
1C00
1C00
1C00
0C80
0330
06A0
ENDCHAR
STARTCHAR Tcaron
ENCODING 356
SWIDTH 520 0
DWIDTH 5 0
BBX 5 10 0 0
BITMAP
075A00
01D200
000000
BFFFE0
00D100
00D100
00D100
00D100
00D100
00D100
ENDCHAR
STARTCHAR tcaron
ENCODING 357
SWIDTH 314 0
DWIDTH 3 0
BBX 4 8 0 0
BITMAP
0084
0081
1C00
DF90
1C00
1C00
1C00
0C80
ENDCHAR
STARTCHAR Tbar
ENCODING 358
SWIDTH 520 0
DWIDTH 5 0
BBX 5 7 0 0
BITMAP
BFFFE0
00D100
0AFF00
00D100
00D100
00D100
00D100
ENDCHAR
STARTCHAR tbar
ENCODING 359
SWIDTH 295 0
DWIDTH 3 0
BBX 3 6 0 0
BITMAP
1C00
DF90
1C00
FFA0
1C00
0D80
ENDCHAR
STARTCHAR Utilde
ENCODING 360
SWIDTH 561 0
DWIDTH 6 0
BBX 5 10 0 0
BITMAP
05B640
094D10
000000
5800D0
5800D0
5800D0
5800D0
5800D0
4C13D0
09ED50
ENDCHAR
STARTCHAR utilde
ENCODING 361
SWIDTH 483 0
DWIDTH 5 0
BBX 5 8 0 0
BITMAP
0B6900
099800
000000
670A30
670A30
670A30
591C30
1DED30
ENDCHAR
STARTCHAR Umacron
ENCODING 362
SWIDTH 561 0
DWIDTH 6 0
BBX 5 9 0 0
BITMAP
09FF40
000000
5800D0
5800D0
5800D0
5800D0
5800D0
4C13D0
09ED50
ENDCHAR
STARTCHAR umacron
ENCODING 363
SWIDTH 483 0
DWIDTH 5 0
BBX 5 7 0 0
BITMAP
0FFD00
000000
670A30
670A30
670A30
591C30
1DED30
ENDCHAR
STARTCHAR Ubreve
ENCODING 364
SWIDTH 561 0
DWIDTH 6 0
BBX 5 10 0 0
BITMAP
094930
03EB00
000000
5800D0
5800D0
5800D0
5800D0
5800D0
4C13D0
09ED50
ENDCHAR
STARTCHAR ubreve
ENCODING 365
SWIDTH 483 0
DWIDTH 5 0
BBX 5 8 0 0
BITMAP
0C1C00
08E600
000000
670A30
670A30
670A30
591C30
1DED30
ENDCHAR
STARTCHAR Uring
ENCODING 366
SWIDTH 561 0
DWIDTH 6 0
BBX 5 10 0 0
BITMAP
019800
019700
000000
5800D0
5800D0
5800D0
5800D0
5800D0
4C13D0
09ED50
ENDCHAR
STARTCHAR uring
ENCODING 367
SWIDTH 483 0
DWIDTH 5 0
BBX 5 8 0 0
BITMAP
068400
068400
000000
670A30
670A30
670A30
591C30
1DED30
ENDCHAR
STARTCHAR Uhungarumlaut
ENCODING 368
SWIDTH 561 0
DWIDTH 6 0
BBX 5 10 0 0
BITMAP
00C980
029B10
000000
5800D0
5800D0
5800D0
5800D0
5800D0
4C13D0
09ED50
ENDCHAR
STARTCHAR uhungarumlaut
ENCODING 369
SWIDTH 483 0
DWIDTH 5 0
BBX 5 8 0 0
BITMAP
03BC20
067800
000000
670A30
670A30
670A30
591C30
1DED30
ENDCHAR
STARTCHAR Uogonek
ENCODING 370
SWIDTH 561 0
DWIDTH 6 0
BBX 5 9 0 -2
BITMAP
5800D0
5800D0
5800D0
5800D0
5800D0
4C13D0
09EE40
005600
004E00
ENDCHAR
STARTCHAR uogonek
ENCODING 371
SWIDTH 483 0
DWIDTH 5 0
BBX 5 7 0 -2
BITMAP
670A30
670A30
670A30
591C30
1DED30
002900
002E20
ENDCHAR
STARTCHAR Wcircumflex
ENCODING 372
SWIDTH 761 0
DWIDTH 8 0
BBX 8 10 0 0
BITMAP
000B7000
0038A000
00000000
850950A4
580C90C1
2A1AB0C0
0C56A3A0
0B927970
08D03E40
05A00E10
ENDCHAR
STARTCHAR wcircumflex
ENCODING 373
SWIDTH 649 0
DWIDTH 7 0
BBX 7 8 0 0
BITMAP
006C0000
00A74000
00000000
934B0B20
678D1C00
2AB77900
0CA3E500
0950D100
ENDCHAR
STARTCHAR Ycircumflex
ENCODING 374
SWIDTH 524 0
DWIDTH 5 0
BBX 5 10 0 0
BITMAP
01D400
065900
000000
9502D0
3C0860
0B3C00
04D700
00D100
00C100
00C100
ENDCHAR
STARTCHAR ycircumflex
ENCODING 375
SWIDTH 416 0
DWIDTH 4 0
BBX 4 10 0 -2
BITMAP
06B0
0A73
0000
A41C
5858
1B93
0AC0
0690
0940
8B00
ENDCHAR
STARTCHAR Ydieresis
ENCODING 376
SWIDTH 524 0
DWIDTH 5 0
BBX 5 9 0 0
BITMAP
0B1A20
000000
9502D0
3C0860
0B3C00
04D700
00D100
00C100
00C100
ENDCHAR
STARTCHAR Zacute
ENCODING 377
SWIDTH 522 0
DWIDTH 5 0
BBX 5 10 0 0
BITMAP
004C00
009300
000000
8FFFA0
000940
004A00
01C100
086000
3B0000
8FFFC0
ENDCHAR
STARTCHAR zacute
ENCODING 378
SWIDTH 438 0
DWIDTH 4 0
BBX 4 8 0 0
BITMAP
00A6
01A0
0000
8FFD
0086
0590
2B00
8FFF
ENDCHAR
STARTCHAR Zdotaccent
ENCODING 379
SWIDTH 522 0
DWIDTH 5 0
BBX 5 9 0 0
BITMAP
00B100
000000
8FFFA0
000940
004A00
01C100
086000
3B0000
8FFFC0
ENDCHAR
STARTCHAR zdotaccent
ENCODING 380
SWIDTH 438 0
DWIDTH 4 0
BBX 4 7 0 0
BITMAP
0390
0000
8FFD
0086
0590
2B00
8FFF
ENDCHAR
STARTCHAR Zcaron
ENCODING 381
SWIDTH 522 0
DWIDTH 5 0
BBX 5 10 0 0
BITMAP
075A00
00D300
000000
8FFFA0
000940
004A00
01C100
086000
3B0000
8FFFC0
ENDCHAR
STARTCHAR zcaron
ENCODING 382
SWIDTH 438 0
DWIDTH 4 0
BBX 4 8 0 0
BITMAP
0B74
05B0
0000
8FFD
0086
0590
2B00
8FFF
ENDCHAR
STARTCHAR longs
ENCODING 383
SWIDTH 234 0
DWIDTH 2 0
BBX 3 8 0 0
BITMAP
0BA0
3B00
4900
4900
4900
4900
4900
4900
ENDCHAR
STARTCHAR uni018F
ENCODING 399
SWIDTH 597 0
DWIDTH 6 0
BBX 6 7 0 0
BITMAP
0AEC40
0303D1
000094
8FFFF6
760095
3B13D1
07ED40
ENDCHAR
STARTCHAR florin
ENCODING 402
SWIDTH 309 0
DWIDTH 3 0
BBX 3 10 0 -2
BITMAP
07D0
0D10
0D00
BF90
0D00
0D00
0D00
0D00
2C00
E700
ENDCHAR
STARTCHAR Ohorn
ENCODING 416
SWIDTH 592 0
DWIDTH 6 0
BBX 6 8 0 0
BITMAP
000004
07EC3C
3D23E6
7700A2
860094
7700A4
3D23E1
07ED50
ENDCHAR
STARTCHAR ohorn
ENCODING 417
SWIDTH 502 0
DWIDTH 5 0
BBX 5 6 0 0
BITMAP
000010
0AE7A0
5A1AA0
850570
5A1A70
0AEB10
ENDCHAR
STARTCHAR Uhorn
ENCODING 431
SWIDTH 608 0
DWIDTH 6 0
BBX 7 8 0 0
BITMAP
00000140
5800D670
5800DC10
5800D000
5800D000
5800E000
3C14D000
08ED4000
ENDCHAR
STARTCHAR uhorn
ENCODING 432
SWIDTH 549 0
DWIDTH 6 0
BBX 6 5 0 0
BITMAP
670A77
670AD2
670A30
591C30
1DED30
ENDCHAR
STARTCHAR uni01F0
ENCODING 496
SWIDTH 237 0
DWIDTH 2 0
BBX 4 10 -1 -2
BITMAP
0B75
05B0
0000
03A0
03A0
03A0
03A0
03A0
0590
2E40
ENDCHAR
STARTCHAR Aringacute
ENCODING 506
SWIDTH 576 0
DWIDTH 6 0
BBX 6 10 0 0
BITMAP
000C00
002700
009700
00FD00
01CB00
057A10
0A2560
0EFFB0
5800C1
A40086
ENDCHAR
STARTCHAR aringacute
ENCODING 507
SWIDTH 479 0
DWIDTH 5 0
BBX 5 9 0 0
BITMAP
004800
007100
01E100
01E100
1BEA00
251D10
1BFF10
691C10
2DDD30
ENDCHAR
STARTCHAR AEacute
ENCODING 508
SWIDTH 812 0
DWIDTH 8 0
BBX 8 10 0 0
BITMAP
0001D200
00057000
00000000
000AFFFA
003AD000
00A2D000
0380EFF5
0BFFE000
4A00D000
B400DFFD
ENDCHAR
STARTCHAR aeacute
ENCODING 509
SWIDTH 728 0
DWIDTH 7 0
BBX 7 8 0 0
BITMAP
0004C000
00093000
00000000
2CE9DE40
341E43B0
3DFFFFD0
872E4010
4ED7CE80
ENDCHAR
STARTCHAR Oslashacute
ENCODING 510
SWIDTH 600 0
DWIDTH 6 0
BBX 6 11 0 -1
BITMAP
000C40
004800
000001
05EEB2
1D33F1
5908A5
672776
589185
1D72D1
0BED50
130000
ENDCHAR
STARTCHAR oslashacute
ENCODING 511
SWIDTH 498 0
DWIDTH 5 0
BBX 5 9 0 -1
BITMAP
008800
01B000
000400
0AED00
5A5B50
759580
5A6A60
0CEA00
040000
ENDCHAR
STARTCHAR uni0218
ENCODING 536
SWIDTH 518 0
DWIDTH 5 0
BBX 5 10 0 -3
BITMAP
0AEB10
5A1780
3B1140
05C910
320690
6A15B0
08ED30
000000
00B100
009000
ENDCHAR
STARTCHAR uni0219
ENCODING 537
SWIDTH 455 0
DWIDTH 5 0
BBX 4 8 0 -3
BITMAP
1CE8
4C37
07E9
451E
2CE9
0000
00C0
0280
ENDCHAR
STARTCHAR uni021A
ENCODING 538
SWIDTH 520 0
DWIDTH 5 0
BBX 5 10 0 -3
BITMAP
BFFFE0
00D100
00D100
00D100
00D100
00D100
00D100
000000
00C000
009000
ENDCHAR
STARTCHAR uni021B
ENCODING 539
SWIDTH 295 0
DWIDTH 3 0
BBX 3 9 0 -3
BITMAP
1C00
DF90
1C00
1C00
1C00
0C80
0000
0750
0810
ENDCHAR
STARTCHAR uni0237
ENCODING 567
SWIDTH 237 0
DWIDTH 2 0
BBX 3 7 -1 -2
BITMAP
03A0
03A0
03A0
03A0
03A0
0590
2E40
ENDCHAR
STARTCHAR uni0259
ENCODING 601
SWIDTH 465 0
DWIDTH 5 0
BBX 5 5 0 0
BITMAP
2DE700
021C10
7FFF30
591D10
1BE600
ENDCHAR
STARTCHAR uni02BC
ENCODING 700
SWIDTH 194 0
DWIDTH 2 0
BBX 2 3 0 5
BITMAP
58
66
81
ENDCHAR
STARTCHAR circumflex
ENCODING 710
SWIDTH 428 0
DWIDTH 4 0
BBX 4 2 0 6
BITMAP
08A0
1A82
ENDCHAR
STARTCHAR caron
ENCODING 711
SWIDTH 403 0
DWIDTH 4 0
BBX 4 2 0 6
BITMAP
29A2
0880
ENDCHAR
STARTCHAR uni02C9
ENCODING 713
SWIDTH 414 0
DWIDTH 4 0
BBX 4 1 0 6
BITMAP
5FF8
ENDCHAR
STARTCHAR breve
ENCODING 728
SWIDTH 426 0
DWIDTH 4 0
BBX 4 2 0 5
BITMAP
5857
1CD2
ENDCHAR
STARTCHAR dotaccent
ENCODING 729
SWIDTH 242 0
DWIDTH 2 0
BBX 2 1 0 6
BITMAP
39
ENDCHAR
STARTCHAR ring
ENCODING 730
SWIDTH 334 0
DWIDTH 3 0
BBX 3 2 0 6
BITMAP
3860
3860
ENDCHAR
STARTCHAR ogonek
ENCODING 731
SWIDTH 253 0
DWIDTH 3 0
BBX 2 3 0 -2
BITMAP
02
74
8B
ENDCHAR
STARTCHAR tilde
ENCODING 732
SWIDTH 427 0
DWIDTH 4 0
BBX 4 2 0 6
BITMAP
1D48
55C4
ENDCHAR
STARTCHAR hungarumlaut
ENCODING 733
SWIDTH 331 0
DWIDTH 3 0
BBX 4 2 0 6
BITMAP
2CB3
5790
ENDCHAR
STARTCHAR uni02F3
ENCODING 755
SWIDTH 263 0
DWIDTH 3 0
BBX 2 2 0 -3
BITMAP
4C
4D
ENDCHAR
STARTCHAR gravecomb
ENCODING 768
SWIDTH 0 0
DWIDTH 0 0
BBX 3 2 -4 6
BITMAP
3C00
0920
ENDCHAR
STARTCHAR acutecomb
ENCODING 769
SWIDTH 0 0
DWIDTH 0 0
BBX 2 2 -3 6
BITMAP
2D
65
ENDCHAR
STARTCHAR tildecomb
ENCODING 771
SWIDTH 0 0
DWIDTH 0 0
BBX 4 2 -4 6
BITMAP
4C55
84D1
ENDCHAR
STARTCHAR hookabovecomb
ENCODING 777
SWIDTH 0 0
DWIDTH 0 0
BBX 2 3 -3 6
BITMAP
94
38
92
ENDCHAR
STARTCHAR uni030F
ENCODING 783
SWIDTH 0 0
DWIDTH 0 0
BBX 4 2 -4 6
BITMAP
A9A0
1BB1
ENDCHAR
STARTCHAR dotbelowcomb
ENCODING 803
SWIDTH 0 0
DWIDTH 0 0
BBX 2 1 -4 -2
BITMAP
57
ENDCHAR
STARTCHAR tonos
ENCODING 900
SWIDTH 256 0
DWIDTH 3 0
BBX 2 2 0 6
BITMAP
0C
17
ENDCHAR
STARTCHAR dieresistonos
ENCODING 901
SWIDTH 452 0
DWIDTH 5 0
BBX 4 2 0 6
BITMAP
0090
650B
ENDCHAR
STARTCHAR Alphatonos
ENCODING 902
SWIDTH 576 0
DWIDTH 6 0
BBX 6 8 0 0
BITMAP
1B0000
16A600
01CB00
057A10
0A2560
0EFFB0
5800C1
A40086
ENDCHAR
STARTCHAR anoteleia
ENCODING 903
SWIDTH 243 0
DWIDTH 2 0
BBX 2 1 0 3
BITMAP
39
ENDCHAR
STARTCHAR Epsilontonos
ENCODING 904
SWIDTH 496 0
DWIDTH 5 0
BBX 6 8 -1 0
BITMAP
B10000
84FFF8
04A000
04A000
04FFF3
04A000
04A000
04FFF9
ENDCHAR
STARTCHAR Etatonos
ENCODING 905
SWIDTH 620 0
DWIDTH 6 0
BBX 7 8 -1 0
BITMAP
A2000000
84A00760
04A00760
04A00760
04FFFF60
04A00760
04A00760
04A00760
ENDCHAR
STARTCHAR Iotatonos
ENCODING 906
SWIDTH 250 0
DWIDTH 3 0
BBX 3 8 -1 0
BITMAP
A200
83B0
03B0
03B0
03B0
03B0
03B0
03B0
ENDCHAR
STARTCHAR Omicrontonos
ENCODING 908
SWIDTH 610 0
DWIDTH 6 0
BBX 7 8 -1 0
BITMAP
0C000000
175DE700
01D31C30
04A00760
04900670
04A00760
01D31C30
005DE800
ENDCHAR
STARTCHAR Upsilontonos
ENCODING 910
SWIDTH 573 0
DWIDTH 6 0
BBX 7 8 -1 0
BITMAP
C0000000
82D00A50
00A41D00
003A7600
000BC100
00069000
00058000
00058000
ENDCHAR
STARTCHAR Omegatonos
ENCODING 911
SWIDTH 591 0
DWIDTH 6 0
BBX 7 8 -1 0
BITMAP
0C000000
176ED500
02E23E10
05900B30
05800A40
03900B20
00901800
05FABF30
ENDCHAR
STARTCHAR iotadieresistonos
ENCODING 912
SWIDTH 299 0
DWIDTH 3 0
BBX 4 8 -1 0
BITMAP
0090
380B
0000
01C0
01C0
01C0
01C0
00C8
ENDCHAR
STARTCHAR Alpha
ENCODING 913
SWIDTH 576 0
DWIDTH 6 0
BBX 6 7 0 0
BITMAP
00A600
01CB00
057A10
0A2560
0EFFB0
5800C1
A40086
ENDCHAR
STARTCHAR Beta
ENCODING 914
SWIDTH 545 0
DWIDTH 5 0
BBX 5 7 0 0
BITMAP
4FFD30
4A05A0
4A0690
4FFF30
4A03C0
4A04C0
4FFD40
ENDCHAR
STARTCHAR Gamma
ENCODING 915
SWIDTH 487 0
DWIDTH 5 0
BBX 5 7 0 0
BITMAP
3FFF80
3B0000
3B0000
3B0000
3B0000
3B0000
3B0000
ENDCHAR
STARTCHAR Delta.dup1
ENCODING 916
SWIDTH 614 0
DWIDTH 6 0
BBX 6 7 0 0
BITMAP
007A00
00CC10
03A850
0842A0
0C00C1
480075
9FFFFA
ENDCHAR
STARTCHAR Epsilon
ENCODING 917
SWIDTH 496 0
DWIDTH 5 0
BBX 5 7 0 0
BITMAP
4FFF80
4A0000
4A0000
4FFF30
4A0000
4A0000
4FFF90
ENDCHAR
STARTCHAR Zeta
ENCODING 918
SWIDTH 522 0
DWIDTH 5 0
BBX 5 7 0 0
BITMAP
8FFFA0
000940
004A00
01C100
086000
3B0000
8FFFC0
ENDCHAR
STARTCHAR Eta
ENCODING 919
SWIDTH 620 0
DWIDTH 6 0
BBX 6 7 0 0
BITMAP
4A0076
4A0076
4A0076
4FFFF6
4A0076
4A0076
4A0076
ENDCHAR
STARTCHAR Theta
ENCODING 920
SWIDTH 593 0
DWIDTH 6 0
BBX 6 7 0 0
BITMAP
06ED40
2D23D1
670094
76FF95
670094
2D23D1
06ED50
ENDCHAR
STARTCHAR Iota
ENCODING 921
SWIDTH 250 0
DWIDTH 3 0
BBX 2 7 0 0
BITMAP
3B
3B
3B
3B
3B
3B
3B
ENDCHAR
STARTCHAR Kappa
ENCODING 922
SWIDTH 544 0
DWIDTH 5 0
BBX 6 7 0 0
BITMAP
4A03C1
4A1C20
4AA500
4EE300
4C3C00
4A0970
4A01D2
ENDCHAR
STARTCHAR Lambda
ENCODING 923
SWIDTH 572 0
DWIDTH 6 0
BBX 6 7 0 0
BITMAP
00B600
01EA00
058D10
0A4950
0D0490
4A01D0
8600B4
ENDCHAR
STARTCHAR Mu
ENCODING 924
SWIDTH 755 0
DWIDTH 8 0
BBX 7 7 0 0
BITMAP
4F1008C0
4F600CC0
4BB03BC0
49B186C0
4A66B2C0
4A1C92C0
4A0B42C0
ENDCHAR
STARTCHAR Nu
ENCODING 925
SWIDTH 619 0
DWIDTH 6 0
BBX 6 7 0 0
BITMAP
4D1076
4E7076
4AC176
4A5876
4A0B86
4A04E6
4A00B6
ENDCHAR
STARTCHAR Xi
ENCODING 926
SWIDTH 502 0
DWIDTH 5 0
BBX 5 7 0 0
BITMAP
6FFF60
000000
000000
1FFF10
000000
000000
6FFF70
ENDCHAR
STARTCHAR Omicron
ENCODING 927
SWIDTH 600 0
DWIDTH 6 0
BBX 6 7 0 0
BITMAP
06EE60
2D22D2
580085
680086
580085
2D22D2
06EE60
ENDCHAR
STARTCHAR Pi
ENCODING 928
SWIDTH 620 0
DWIDTH 6 0
BBX 6 7 0 0
BITMAP
3FFFF6
3B0086
3B0086
3B0086
3B0086
3B0086
3B0086
ENDCHAR
STARTCHAR Rho
ENCODING 929
SWIDTH 554 0
DWIDTH 6 0
BBX 6 7 0 0
BITMAP
4FFE70
4A02D1
4A01D1
4FFE70
4A0000
4A0000
4A0000
ENDCHAR
STARTCHAR Sigma
ENCODING 931
SWIDTH 502 0
DWIDTH 5 0
BBX 5 7 0 0
BITMAP
9FFF60
3C0000
079000
00D200
078000
3B0000
9FFF90
ENDCHAR
STARTCHAR Tau
ENCODING 932
SWIDTH 520 0
DWIDTH 5 0
BBX 5 7 0 0
BITMAP
BFFFE0
00D100
00D100
00D100
00D100
00D100
00D100
ENDCHAR
STARTCHAR Upsilon
ENCODING 933
SWIDTH 524 0
DWIDTH 5 0
BBX 5 7 0 0
BITMAP
9502D0
3C0860
0B3C00
04D700
00D100
00C100
00C100
ENDCHAR
STARTCHAR Phi
ENCODING 934
SWIDTH 621 0
DWIDTH 6 0
BBX 6 7 0 0
BITMAP
005900
09FFB1
6A6969
95591C
6A696A
09EFB1
005900
ENDCHAR
STARTCHAR Chi
ENCODING 935
SWIDTH 550 0
DWIDTH 6 0
BBX 5 7 0 0
BITMAP
5A02D0
0C3A50
04CC00
00E600
05BC00
0D2960
6A02D0
ENDCHAR
STARTCHAR Psi
ENCODING 936
SWIDTH 600 0
DWIDTH 6 0
BBX 6 7 0 0
BITMAP
958668
958668
858667
5B97C4
09FE70
008600
008600
ENDCHAR
STARTCHAR Omega.dup2
ENCODING 937
SWIDTH 581 0
DWIDTH 6 0
BBX 6 7 0 0
BITMAP
07ED40
3D24D0
6800C2
6700B2
4800C1
090280
6F9DF2
ENDCHAR
STARTCHAR Iotadieresis
ENCODING 938
SWIDTH 250 0
DWIDTH 3 0
BBX 4 9 -1 0
BITMAP
392A
0000
03B0
03B0
03B0
03B0
03B0
03B0
03B0
ENDCHAR
STARTCHAR Upsilondieresis
ENCODING 939
SWIDTH 524 0
DWIDTH 5 0
BBX 5 9 0 0
BITMAP
0B1A20
000000
9502D0
3C0860
0B3C00
04D700
00D100
00C100
00C100
ENDCHAR
STARTCHAR alphatonos
ENCODING 940
SWIDTH 494 0
DWIDTH 5 0
BBX 5 8 0 0
BITMAP
007400
007100
000000
0BEC40
5A1B40
760940
691B50
1BEAA0
ENDCHAR
STARTCHAR epsilontonos
ENCODING 941
SWIDTH 470 0
DWIDTH 5 0
BBX 5 8 0 0
BITMAP
00B000
008000
000000
2CE900
5A1500
1EF300
791810
2CE900
ENDCHAR
STARTCHAR etatonos
ENCODING 942
SWIDTH 498 0
DWIDTH 5 0
BBX 5 10 0 -2
BITMAP
00A100
008000
000000
5BEC00
5A1B30
580940
580940
580940
000940
000940
ENDCHAR
STARTCHAR iotatonos
ENCODING 943
SWIDTH 299 0
DWIDTH 3 0
BBX 3 8 0 0
BITMAP
0B10
0800
0000
1C00
1C00
1C00
1C00
0C80
ENDCHAR
STARTCHAR upsilondieresistonos
ENCODING 944
SWIDTH 480 0
DWIDTH 5 0
BBX 5 8 0 0
BITMAP
00A000
470B00
000000
580D10
580940
580940
4B2D20
0BE700
ENDCHAR
STARTCHAR alpha
ENCODING 945
SWIDTH 494 0
DWIDTH 5 0
BBX 5 5 0 0
BITMAP
0BEC40
5A1B40
760940
691B50
1BEAA0
ENDCHAR
STARTCHAR beta
ENCODING 946
SWIDTH 517 0
DWIDTH 5 0
BBX 5 9 0 -2
BITMAP
08EB00
2C1A40
490A40
49BD00
490780
4B1780
4DEC20
490000
490000
ENDCHAR
STARTCHAR gamma
ENCODING 947
SWIDTH 444 0
DWIDTH 4 0
BBX 5 7 0 -2
BITMAP
850C10
392B00
0C6600
09D100
04C000
03A000
03A000
ENDCHAR
STARTCHAR delta
ENCODING 948
SWIDTH 498 0
DWIDTH 5 0
BBX 5 8 0 0
BITMAP
08E800
0D1200
0A8100
0AFC10
5A1B50
760670
5A1A40
0AEA00
ENDCHAR
STARTCHAR epsilon
ENCODING 949
SWIDTH 470 0
DWIDTH 5 0
BBX 5 5 0 0
BITMAP
2CE900
5A1500
1EF300
791810
2CE900
ENDCHAR
STARTCHAR zeta
ENCODING 950
SWIDTH 462 0
DWIDTH 5 0
BBX 5 9 0 -2
BITMAP
6FFF10
003900
01B100
083000
0C0000
1D0000
0AD600
002C00
002700
ENDCHAR
STARTCHAR eta
ENCODING 951
SWIDTH 498 0
DWIDTH 5 0
BBX 5 7 0 -2
BITMAP
5BEC00
5A1B30
580940
580940
580940
000940
000940
ENDCHAR
STARTCHAR theta
ENCODING 952
SWIDTH 496 0
DWIDTH 5 0
BBX 5 7 0 0
BITMAP
09E800
3B1C20
670850
6FFF60
670850
3B1C20
09E800
ENDCHAR
STARTCHAR iota
ENCODING 953
SWIDTH 299 0
DWIDTH 3 0
BBX 3 5 0 0
BITMAP
1C00
1C00
1C00
1C00
0C80
ENDCHAR
STARTCHAR kappa
ENCODING 954
SWIDTH 491 0
DWIDTH 5 0
BBX 5 5 0 0
BITMAP
491C20
49B500
4FC000
49A700
491C40
ENDCHAR
STARTCHAR lambda
ENCODING 955
SWIDTH 485 0
DWIDTH 5 0
BBX 5 7 0 0
BITMAP
3D1000
097000
04D000
08E300
0C6900
491E10
950880
ENDCHAR
STARTCHAR uni03BC
ENCODING 956
SWIDTH 498 0
DWIDTH 5 0
BBX 5 7 0 -2
BITMAP
490940
490940
490940
4B1B40
4EED40
490000
490000
ENDCHAR
STARTCHAR nu
ENCODING 957
SWIDTH 427 0
DWIDTH 4 0
BBX 4 5 0 0
BITMAP
940D
5848
0B84
0AC0
0590
ENDCHAR
STARTCHAR xi
ENCODING 958
SWIDTH 431 0
DWIDTH 4 0
BBX 4 9 0 -2
BITMAP
09EA
3C11
2C10
08F7
5910
7700
2DC5
003D
0018
ENDCHAR
STARTCHAR omicron
ENCODING 959
SWIDTH 501 0
DWIDTH 5 0
BBX 5 5 0 0
BITMAP
1BEB10
691960
850580
691960
1BEB10
ENDCHAR
STARTCHAR pi
ENCODING 960
SWIDTH 520 0
DWIDTH 5 0
BBX 5 5 0 0
BITMAP
BFFFC0
1C0A30
1C0A30
1C0A30
1C07E0
ENDCHAR
STARTCHAR rho
ENCODING 961
SWIDTH 498 0
DWIDTH 5 0
BBX 5 7 0 -2
BITMAP
08EA00
2C1A40
580670
5A1A50
5DEB10
580000
580000
ENDCHAR
STARTCHAR sigma1
ENCODING 962
SWIDTH 472 0
DWIDTH 5 0
BBX 5 7 0 -2
BITMAP
0AE700
5A1C10
760200
5B1000
08E700
001C00
001700
ENDCHAR
STARTCHAR sigma
ENCODING 963
SWIDTH 498 0
DWIDTH 5 0
BBX 5 5 0 0
BITMAP
0AFFC0
5A1920
760660
5A1A50
0AEA00
ENDCHAR
STARTCHAR tau
ENCODING 964
SWIDTH 460 0
DWIDTH 5 0
BBX 5 5 0 0
BITMAP
8FFF20
03A000
03A000
03B000
01D700
ENDCHAR
STARTCHAR upsilon
ENCODING 965
SWIDTH 480 0
DWIDTH 5 0
BBX 5 5 0 0
BITMAP
580D10
580940
580940
4B2D20
0BE700
ENDCHAR
STARTCHAR phi
ENCODING 966
SWIDTH 617 0
DWIDTH 6 0
BBX 6 7 0 -2
BITMAP
1A3EB1
776878
85672B
5B7898
09EFA1
006700
006700
ENDCHAR
STARTCHAR chi
ENCODING 967
SWIDTH 438 0
DWIDTH 4 0
BBX 5 7 0 -2
BITMAP
B80C10
1D6800
06F200
03D000
09D400
1C4B00
670A70
ENDCHAR
STARTCHAR psi
ENCODING 968
SWIDTH 612 0
DWIDTH 6 0
BBX 6 7 0 -2
BITMAP
856776
85674A
85673A
5B77A7
09EEA1
006700
006700
ENDCHAR
STARTCHAR omega
ENCODING 969
SWIDTH 711 0
DWIDTH 7 0
BBX 7 5 0 0
BITMAP
1C000B20
58080760
670D0670
4A2D1760
0BE38A10
ENDCHAR
STARTCHAR iotadieresis
ENCODING 970
SWIDTH 299 0
DWIDTH 3 0
BBX 4 7 -1 0
BITMAP
1B0C
0000
01C0
01C0
01C0
01C0
00C8
ENDCHAR
STARTCHAR upsilondieresis
ENCODING 971
SWIDTH 480 0
DWIDTH 5 0
BBX 5 7 0 0
BITMAP
2A1B00
000000
580D10
580940
580940
4B2D20
0BE700
ENDCHAR
STARTCHAR omicrontonos
ENCODING 972
SWIDTH 501 0
DWIDTH 5 0
BBX 5 8 0 0
BITMAP
00A100
008000
000000
1BEB10
691960
850580
691960
1BEB10
ENDCHAR
STARTCHAR upsilontonos
ENCODING 973
SWIDTH 480 0
DWIDTH 5 0
BBX 5 8 0 0
BITMAP
00C000
008000
000000
580D10
580940
580940
4B2D20
0BE700
ENDCHAR
STARTCHAR omegatonos
ENCODING 974
SWIDTH 711 0
DWIDTH 7 0
BBX 7 8 0 0
BITMAP
00093000
00080000
00000000
1C000B20
58080760
670D0670
4A2D1760
0BE38A10
ENDCHAR
STARTCHAR theta1
ENCODING 977
SWIDTH 507 0
DWIDTH 5 0
BBX 5 7 0 0
BITMAP
03EC10
086B30
06AA40
459EB0
670940
5A1C20
0AE900
ENDCHAR
STARTCHAR Upsilon1
ENCODING 978
SWIDTH 465 0
DWIDTH 5 0
BBX 5 7 0 0
BITMAP
D30890
5A1D10
0D7800
07F200
02C000
02C000
02C000
ENDCHAR
STARTCHAR omega1
ENCODING 982
SWIDTH 678 0
DWIDTH 7 0
BBX 7 5 0 0
BITMAP
8FFFFF80
3A000C10
580D0A20
4A3E2D10
0CD6E900
ENDCHAR
STARTCHAR uni0400
ENCODING 1024
SWIDTH 496 0
DWIDTH 5 0
BBX 5 10 0 0
BITMAP
088000
01B000
000000
4FFF80
4A0000
4A0000
4FFF30
4A0000
4A0000
4FFF90
ENDCHAR
STARTCHAR uni0401
ENCODING 1025
SWIDTH 496 0
DWIDTH 5 0
BBX 5 9 0 0
BITMAP
0B1A20
000000
4FFF80
4A0000
4A0000
4FFF30
4A0000
4A0000
4FFF90
ENDCHAR
STARTCHAR uni0402
ENCODING 1026
SWIDTH 650 0
DWIDTH 7 0
BBX 7 7 0 0
BITMAP
BFFFD000
01C00000
01C00000
01FEE600
01D12E00
01C01E10
01C0E700
ENDCHAR
STARTCHAR uni0403
ENCODING 1027
SWIDTH 487 0
DWIDTH 5 0
BBX 5 10 0 0
BITMAP
003D10
008400
000000
3FFF80
3B0000
3B0000
3B0000
3B0000
3B0000
3B0000
ENDCHAR
STARTCHAR uni0404
ENCODING 1028
SWIDTH 589 0
DWIDTH 6 0
BBX 6 7 0 0
BITMAP
05EE50
1D22D1
580051
6FFC00
580051
1D22D1
05EE50
ENDCHAR
STARTCHAR uni0405
ENCODING 1029
SWIDTH 518 0
DWIDTH 5 0
BBX 5 7 0 0
BITMAP
0AEB10
5A1780
3B1140
05C910
320690
6A15B0
08ED30
ENDCHAR
STARTCHAR uni0406
ENCODING 1030
SWIDTH 250 0
DWIDTH 3 0
BBX 2 7 0 0
BITMAP
3B
3B
3B
3B
3B
3B
3B
ENDCHAR
STARTCHAR uni0407
ENCODING 1031
SWIDTH 250 0
DWIDTH 3 0
BBX 4 9 -1 0
BITMAP
392A
0000
03B0
03B0
03B0
03B0
03B0
03B0
03B0
ENDCHAR
STARTCHAR uni0408
ENCODING 1032
SWIDTH 483 0
DWIDTH 5 0
BBX 5 7 0 0
BITMAP
000C20
000C20
000C20
000C20
100C20
962E00
3DE700
ENDCHAR
STARTCHAR uni0409
ENCODING 1033
SWIDTH 923 0
DWIDTH 9 0
BBX 9 7 0 0
BITMAP
06FFF50000
0770850000
0860850000
08508FFC30
09408505B0
1D208505B0
A9008FFD30
ENDCHAR
STARTCHAR uni040A
ENCODING 1034
SWIDTH 927 0
DWIDTH 9 0
BBX 9 7 0 0
BITMAP
3B00860000
3B00860000
3B00860000
3FFFFFFD40
3B008604C0
3B008604B0
3B008FFD40
ENDCHAR
STARTCHAR uni040B
ENCODING 1035
SWIDTH 705 0
DWIDTH 7 0
BBX 7 7 0 0
BITMAP
AFFFF000
00D00000
00D00000
00FEE900
00E11C30
00D00A40
00D00A40
ENDCHAR
STARTCHAR uni040C
ENCODING 1036
SWIDTH 544 0
DWIDTH 5 0
BBX 6 10 0 0
BITMAP
004C00
009200
000000
4A03C1
4A1C20
4AA500
4EE300
4C3C00
4A0970
4A01D2
ENDCHAR
STARTCHAR uni040D
ENCODING 1037
SWIDTH 619 0
DWIDTH 6 0
BBX 6 10 0 0
BITMAP
02D100
007500
000000
3B00C5
3B05E5
3B0B95
3B5785
3BB185
3E7085
3E1085
ENDCHAR
STARTCHAR uni040E
ENCODING 1038
SWIDTH 547 0
DWIDTH 5 0
BBX 5 10 0 0
BITMAP
0A3A20
03EA00
000000
5901E0
0D1690
085B30
02BD00
00B800
00C200
0B9000
ENDCHAR
STARTCHAR uni040F
ENCODING 1039
SWIDTH 621 0
DWIDTH 6 0
BBX 6 9 0 -2
BITMAP
3B0086
3B0086
3B0086
3B0086
3B0086
3B0086
3FFFF6
005900
005900
ENDCHAR
STARTCHAR uni0410
ENCODING 1040
SWIDTH 576 0
DWIDTH 6 0
BBX 6 7 0 0
BITMAP
00A600
01CB00
057A10
0A2560
0EFFB0
5800C1
A40086
ENDCHAR
STARTCHAR uni0411
ENCODING 1041
SWIDTH 549 0
DWIDTH 6 0
BBX 6 7 0 0
BITMAP
4FFF70
4A0000
4A0000
4FFE70
4A02D1
4A02E0
4FFE60
ENDCHAR
STARTCHAR uni0412
ENCODING 1042
SWIDTH 545 0
DWIDTH 5 0
BBX 5 7 0 0
BITMAP
4FFD30
4A05A0
4A0690
4FFF30
4A03C0
4A04C0
4FFD40
ENDCHAR
STARTCHAR uni0413
ENCODING 1043
SWIDTH 487 0
DWIDTH 5 0
BBX 5 7 0 0
BITMAP
3FFF80
3B0000
3B0000
3B0000
3B0000
3B0000
3B0000
ENDCHAR
STARTCHAR uni0414
ENCODING 1044
SWIDTH 660 0
DWIDTH 7 0
BBX 7 9 0 -2
BITMAP
04FFF700
05907700
05807700
07707700
09507700
0D107700
BFFFFF40
B3000940
B3000940
ENDCHAR
STARTCHAR uni0415
ENCODING 1045
SWIDTH 496 0
DWIDTH 5 0
BBX 5 7 0 0
BITMAP
4FFF80
4A0000
4A0000
4FFF30
4A0000
4A0000
4FFF90
ENDCHAR
STARTCHAR uni0416
ENCODING 1046
SWIDTH 791 0
DWIDTH 8 0
BBX 8 7 0 0
BITMAP
5A0770A5
0C3773C0
04A77A40
00EFFE00
07A77A60
1E2772D1
89077097
ENDCHAR
STARTCHAR uni0417
ENCODING 1047
SWIDTH 517 0
DWIDTH 5 0
BBX 5 7 0 0
BITMAP
1BEC20
581790
000780
01FE20
000690
7806A0
1BEC20
ENDCHAR
STARTCHAR uni0418
ENCODING 1048
SWIDTH 619 0
DWIDTH 6 0
BBX 6 7 0 0
BITMAP
3B00C5
3B05E5
3B0B95
3B5785
3BB185
3E7085
3E1085
ENDCHAR
STARTCHAR uni0419
ENCODING 1049
SWIDTH 619 0
DWIDTH 6 0
BBX 6 10 0 0
BITMAP
048580
00CD20
000000
3B00C5
3B05E5
3B0B95
3B5785
3BB185
3E7085
3E1085
ENDCHAR
STARTCHAR uni041A
ENCODING 1050
SWIDTH 560 0
DWIDTH 6 0
BBX 6 7 0 0
BITMAP
3B02D1
3B0B50
3B6B00
3FF400
3B4C00
3B0980
3B01D3
ENDCHAR
STARTCHAR uni041B
ENCODING 1051
SWIDTH 615 0
DWIDTH 6 0
BBX 6 7 0 0
BITMAP
06FFF5
077085
076085
085085
094085
1D2085
A90085
ENDCHAR
STARTCHAR uni041C
ENCODING 1052
SWIDTH 755 0
DWIDTH 8 0
BBX 7 7 0 0
BITMAP
4F1008C0
4F600CC0
4BB03BC0
49B186C0
4A66B2C0
4A1C92C0
4A0B42C0
ENDCHAR
STARTCHAR uni041D
ENCODING 1053
SWIDTH 620 0
DWIDTH 6 0
BBX 6 7 0 0
BITMAP
4A0076
4A0076
4A0076
4FFFF6
4A0076
4A0076
4A0076
ENDCHAR
STARTCHAR uni041E
ENCODING 1054
SWIDTH 600 0
DWIDTH 6 0
BBX 6 7 0 0
BITMAP
06EE60
2D22D2
580085
680086
580085
2D22D2
06EE60
ENDCHAR
STARTCHAR uni041F
ENCODING 1055
SWIDTH 620 0
DWIDTH 6 0
BBX 6 7 0 0
BITMAP
3FFFF6
3B0086
3B0086
3B0086
3B0086
3B0086
3B0086
ENDCHAR
STARTCHAR uni0420
ENCODING 1056
SWIDTH 554 0
DWIDTH 6 0
BBX 6 7 0 0
BITMAP
4FFE70
4A02D1
4A01D1
4FFE70
4A0000
4A0000
4A0000
ENDCHAR
STARTCHAR uni0421
ENCODING 1057
SWIDTH 566 0
DWIDTH 6 0
BBX 6 7 0 0
BITMAP
06DE50
2D22D1
590071
680000
580061
2D22D0
06ED50
ENDCHAR
STARTCHAR uni0422
ENCODING 1058
SWIDTH 520 0
DWIDTH 5 0
BBX 5 7 0 0
BITMAP
BFFFE0
00D100
00D100
00D100
00D100
00D100
00D100
ENDCHAR
STARTCHAR uni0423
ENCODING 1059
SWIDTH 547 0
DWIDTH 5 0
BBX 5 7 0 0
BITMAP
5901E0
0D1690
085B30
02BD00
00B800
00C200
0B9000
ENDCHAR
STARTCHAR uni0424
ENCODING 1060
SWIDTH 676 0
DWIDTH 7 0
BBX 7 7 0 0
BITMAP
000D0000
08EFE500
5A1D2C20
850D0850
5A1D2C20
08EFE500
000D0000
ENDCHAR
STARTCHAR uni0425
ENCODING 1061
SWIDTH 550 0
DWIDTH 6 0
BBX 5 7 0 0
BITMAP
5A02D0
0C3A50
04CC00
00E600
05BC00
0D2960
6A02D0
ENDCHAR
STARTCHAR uni0426
ENCODING 1062
SWIDTH 639 0
DWIDTH 6 0
BBX 6 9 0 -2
BITMAP
3B0086
3B0086
3B0086
3B0086
3B0086
3B0086
3FFFFF
00000D
00000C
ENDCHAR
STARTCHAR uni0427
ENCODING 1063
SWIDTH 600 0
DWIDTH 6 0
BBX 6 7 0 0
BITMAP
5900B3
5900B3
5900B3
3C11C3
09EDE3
0000B3
0000B3
ENDCHAR
STARTCHAR uni0428
ENCODING 1064
SWIDTH 814 0
DWIDTH 8 0
BBX 8 7 0 0
BITMAP
3B058085
3B058085
3B058085
3B058085
3B058085
3B058085
3FFFFFF5
ENDCHAR
STARTCHAR uni0429
ENCODING 1065
SWIDTH 841 0
DWIDTH 8 0
BBX 8 9 0 -2
BITMAP
3B058085
3B058085
3B058085
3B058085
3B058085
3B058085
3FFFFFFE
0000000C
0000000C
ENDCHAR
STARTCHAR uni042A
ENCODING 1066
SWIDTH 651 0
DWIDTH 7 0
BBX 7 7 0 0
BITMAP
CFA00000
04A00000
04A00000
04FFE700
04A01D10
04A01D10
04FFE700
ENDCHAR
STARTCHAR uni042B
ENCODING 1067
SWIDTH 755 0
DWIDTH 8 0
BBX 7 7 0 0
BITMAP
3B0003B0
3B0003B0
3B0003B0
3FFE73B0
3B01D4B0
3B01D4B0
3FFE73B0
ENDCHAR
STARTCHAR uni042C
ENCODING 1068
SWIDTH 551 0
DWIDTH 6 0
BBX 6 7 0 0
BITMAP
4A0000
4A0000
4A0000
4FFE70
4A02D1
4A02E0
4FFE60
ENDCHAR
STARTCHAR uni042D
ENCODING 1069
SWIDTH 589 0
DWIDTH 6 0
BBX 6 7 0 0
BITMAP
06ED40
2D13D1
130094
00CFF5
120094
2D12D1
06EE50
ENDCHAR
STARTCHAR uni042E
ENCODING 1070
SWIDTH 765 0
DWIDTH 8 0
BBX 8 7 0 0
BITMAP
3B08ED50
3B4C13D1
3B7700A3
3FF60094
3B7700A3
3B4C12D1
3B08ED50
ENDCHAR
STARTCHAR uni042F
ENCODING 1071
SWIDTH 562 0
DWIDTH 6 0
BBX 5 7 0 0
BITMAP
07EFC0
2D12C0
4902C0
2D12C0
07FFC0
0A52C0
4B02C0
ENDCHAR
STARTCHAR uni0430
ENCODING 1072
SWIDTH 479 0
DWIDTH 5 0
BBX 5 5 0 0
BITMAP
1BEA00
251D10
1BFF10
691C10
2DDD30
ENDCHAR
STARTCHAR uni0431
ENCODING 1073
SWIDTH 484 0
DWIDTH 5 0
BBX 5 8 0 0
BITMAP
001B20
07D700
2B0000
6BEB00
7A1A50
760670
4A1A50
0AEA00
ENDCHAR
STARTCHAR uni0432
ENCODING 1074
SWIDTH 503 0
DWIDTH 5 0
BBX 5 5 0 0
BITMAP
4FFC10
490A40
4FFD10
490870
4FFD30
ENDCHAR
STARTCHAR uni0433
ENCODING 1075
SWIDTH 371 0
DWIDTH 4 0
BBX 4 5 0 0
BITMAP
4FF8
4900
4900
4900
4900
ENDCHAR
STARTCHAR uni0434
ENCODING 1076
SWIDTH 536 0
DWIDTH 5 0
BBX 5 7 0 -2
BITMAP
09FF60
094760
0B2760
1C0760
BFFFF0
B200D0
B200D0
ENDCHAR
STARTCHAR uni0435
ENCODING 1077
SWIDTH 468 0
DWIDTH 5 0
BBX 5 5 0 0
BITMAP
1BE900
681B20
8FFF40
680200
1BEC10
ENDCHAR
STARTCHAR uni0436
ENCODING 1078
SWIDTH 662 0
DWIDTH 7 0
BBX 7 5 0 0
BITMAP
692B1D10
0C4B8700
07FFF100
1D4B7800
882B1D20
ENDCHAR
STARTCHAR uni0437
ENCODING 1079
SWIDTH 446 0
DWIDTH 4 0
BBX 4 5 0 0
BITMAP
2CE7
343C
08F8
442D
3DE8
ENDCHAR
STARTCHAR uni0438
ENCODING 1080
SWIDTH 509 0
DWIDTH 5 0
BBX 5 5 0 0
BITMAP
490B50
494D50
49A850
4D6850
4D0850
ENDCHAR
STARTCHAR uni0439
ENCODING 1081
SWIDTH 509 0
DWIDTH 5 0
BBX 5 8 0 0
BITMAP
0C1C00
06E700
000000
490B50
494D50
49A850
4D6850
4D0850
ENDCHAR
STARTCHAR uni043A
ENCODING 1082
SWIDTH 479 0
DWIDTH 5 0
BBX 5 5 0 0
BITMAP
491C20
499600
4FE000
498800
490C40
ENDCHAR
STARTCHAR uni043B
ENCODING 1083
SWIDTH 509 0
DWIDTH 5 0
BBX 5 5 0 0
BITMAP
0BFF60
0C1860
0D0860
1D0860
A70860
ENDCHAR
STARTCHAR uni043C
ENCODING 1084
SWIDTH 645 0
DWIDTH 6 0
BBX 6 5 0 0
BITMAP
4F108B
4E60DB
4AB49B
49AB4B
494B2B
ENDCHAR
STARTCHAR uni043D
ENCODING 1085
SWIDTH 508 0
DWIDTH 5 0
BBX 5 5 0 0
BITMAP
490850
490850
4FFF50
490850
490850
ENDCHAR
STARTCHAR uni043E
ENCODING 1086
SWIDTH 501 0
DWIDTH 5 0
BBX 5 5 0 0
BITMAP
1BEB10
691960
850580
691960
1BEB10
ENDCHAR
STARTCHAR uni043F
ENCODING 1087
SWIDTH 509 0
DWIDTH 5 0
BBX 5 5 0 0
BITMAP
4FFF50
490850
490850
490850
490850
ENDCHAR
STARTCHAR uni0440
ENCODING 1088
SWIDTH 493 0
DWIDTH 5 0
BBX 5 7 0 -2
BITMAP
5CEC10
5A1A60
580670
5A1A60
5CEC10
580000
580000
ENDCHAR
STARTCHAR uni0441
ENCODING 1089
SWIDTH 461 0
DWIDTH 5 0
BBX 5 5 0 0
BITMAP
1BE800
681B20
850210
681C20
1BE800
ENDCHAR
STARTCHAR uni0442
ENCODING 1090
SWIDTH 424 0
DWIDTH 4 0
BBX 4 5 0 0
BITMAP
BFFF
0580
0580
0580
0580
ENDCHAR
STARTCHAR uni0443
ENCODING 1091
SWIDTH 416 0
DWIDTH 4 0
BBX 4 7 0 -2
BITMAP
A41C
5858
1B93
0AC0
0690
0940
8B00
ENDCHAR
STARTCHAR uni0444
ENCODING 1092
SWIDTH 628 0
DWIDTH 6 0
BBX 6 10 0 -2
BITMAP
005800
005800
005800
1CFEE3
69586A
76581C
69585A
1CFEE3
005800
005800
ENDCHAR
STARTCHAR uni0445
ENCODING 1093
SWIDTH 438 0
DWIDTH 4 0
BBX 4 5 0 0
BITMAP
683C
0CB3
06C0
0CA4
782C
ENDCHAR
STARTCHAR uni0446
ENCODING 1094
SWIDTH 524 0
DWIDTH 5 0
BBX 5 7 0 -2
BITMAP
490850
490850
490850
490850
4FFFE0
0000C0
0000C0
ENDCHAR
STARTCHAR uni0447
ENCODING 1095
SWIDTH 479 0
DWIDTH 5 0
BBX 5 5 0 0
BITMAP
760C10
760C10
691C10
1CEF10
000C10
ENDCHAR
STARTCHAR uni0448
ENCODING 1096
SWIDTH 703 0
DWIDTH 7 0
BBX 7 5 0 0
BITMAP
490D0840
490D0840
490D0840
490D0840
4FFFFF40
ENDCHAR
STARTCHAR uni0449
ENCODING 1097
SWIDTH 722 0
DWIDTH 7 0
BBX 7 7 0 -2
BITMAP
580D0940
580D0940
580D0940
580D0940
5FFFFFD0
000000C0
000000C0
ENDCHAR
STARTCHAR uni044A
ENCODING 1098
SWIDTH 538 0
DWIDTH 5 0
BBX 6 5 0 0
BITMAP
CF5000
085000
08FF90
0851E1
08FF90
ENDCHAR
STARTCHAR uni044B
ENCODING 1099
SWIDTH 679 0
DWIDTH 7 0
BBX 6 5 0 0
BITMAP
49000D
49000D
4FFC1D
490B4D
4FFC1D
ENDCHAR
STARTCHAR uni044C
ENCODING 1100
SWIDTH 478 0
DWIDTH 5 0
BBX 5 5 0 0
BITMAP
490000
490000
4FFC10
490B40
4FFC10
ENDCHAR
STARTCHAR uni044D
ENCODING 1101
SWIDTH 472 0
DWIDTH 5 0
BBX 5 5 0 0
BITMAP
2CE600
341D10
03FF20
561D00
1CE600
ENDCHAR
STARTCHAR uni044E
ENCODING 1102
SWIDTH 706 0
DWIDTH 7 0
BBX 7 5 0 0
BITMAP
4909EB10
495B1970
4FF70490
495B1970
490AEB10
ENDCHAR
STARTCHAR uni044F
ENCODING 1103
SWIDTH 482 0
DWIDTH 5 0
BBX 5 5 0 0
BITMAP
2DFF10
780C10
2EFF10
1C1C10
860C10
ENDCHAR
STARTCHAR uni0450
ENCODING 1104
SWIDTH 468 0
DWIDTH 5 0
BBX 5 8 0 0
BITMAP
0C4000
039000
000000
1BE900
681B20
8FFF40
680200
1BEC10
ENDCHAR
STARTCHAR uni0451
ENCODING 1105
SWIDTH 468 0
DWIDTH 5 0
BBX 5 7 0 0
BITMAP
1B0C00
000000
1BE900
681B20
8FFF40
680200
1BEC10
ENDCHAR
STARTCHAR uni0452
ENCODING 1106
SWIDTH 482 0
DWIDTH 5 0
BBX 5 10 0 -2
BITMAP
580000
FFA000
580000
5CEB00
5B1C20
580A30
580A30
580A30
000B20
008C00
ENDCHAR
STARTCHAR uni0453
ENCODING 1107
SWIDTH 371 0
DWIDTH 4 0
BBX 4 8 0 0
BITMAP
01D2
0660
0000
4FF8
4900
4900
4900
4900
ENDCHAR
STARTCHAR uni0454
ENCODING 1108
SWIDTH 472 0
DWIDTH 5 0
BBX 5 5 0 0
BITMAP
0AEA00
5A1830
7FE000
5A1720
0AE900
ENDCHAR
STARTCHAR uni0455
ENCODING 1109
SWIDTH 455 0
DWIDTH 5 0
BBX 4 5 0 0
BITMAP
1CE8
4C37
07E9
451E
2CE9
ENDCHAR
STARTCHAR uni0456
ENCODING 1110
SWIDTH 229 0
DWIDTH 2 0
BBX 2 7 0 0
BITMAP
38
00
49
49
49
49
49
ENDCHAR
STARTCHAR uni0457
ENCODING 1111
SWIDTH 234 0
DWIDTH 2 0
BBX 4 7 -1 0
BITMAP
4839
0000
0490
0490
0490
0490
0490
ENDCHAR
STARTCHAR uni0458
ENCODING 1112
SWIDTH 223 0
DWIDTH 2 0
BBX 3 9 -1 -2
BITMAP
0470
0000
0580
0580
0580
0580
0580
0680
1E40
ENDCHAR
STARTCHAR uni0459
ENCODING 1113
SWIDTH 729 0
DWIDTH 7 0
BBX 7 5 0 0
BITMAP
0BFF3000
0C1A3000
0D0AFE70
1D0A32D0
B70AFE70
ENDCHAR
STARTCHAR uni045A
ENCODING 1114
SWIDTH 743 0
DWIDTH 7 0
BBX 8 5 0 0
BITMAP
49085000
49085000
4FFFFE90
490861E1
4908FF90
ENDCHAR
STARTCHAR uni045B
ENCODING 1115
SWIDTH 499 0
DWIDTH 5 0
BBX 5 8 0 0
BITMAP
580000
DFB000
580000
5CEB00
5B1C20
580A30
580A30
580A30
ENDCHAR
STARTCHAR uni045C
ENCODING 1116
SWIDTH 479 0
DWIDTH 5 0
BBX 5 8 0 0
BITMAP
008800
01B000
000000
491C20
499600
4FE000
498800
490C40
ENDCHAR
STARTCHAR uni045D
ENCODING 1117
SWIDTH 509 0
DWIDTH 5 0
BBX 5 8 0 0
BITMAP
0A7000
01B000
000000
490B50
494D50
49A850
4D6850
4D0850
ENDCHAR
STARTCHAR uni045E
ENCODING 1118
SWIDTH 416 0
DWIDTH 4 0
BBX 4 10 0 -2
BITMAP
3949
0BE3
0000
A41C
5858
1B93
0AC0
0690
0940
8B00
ENDCHAR
STARTCHAR uni045F
ENCODING 1119
SWIDTH 509 0
DWIDTH 5 0
BBX 5 7 0 -2
BITMAP
490850
490850
490850
490850
4FFF50
00D000
00D000
ENDCHAR
STARTCHAR uni0460
ENCODING 1120
SWIDTH 754 0
DWIDTH 8 0
BBX 7 7 0 0
BITMAP
490A40D0
490A40D0
490A40D0
490A40D0
490A40D0
3C1D84C0
0AE6CE50
ENDCHAR
STARTCHAR uni0461
ENCODING 1121
SWIDTH 650 0
DWIDTH 7 0
BBX 6 5 0 0
BITMAP
672B0D
672B0D
672B0D
695D2E
1DDAE8
ENDCHAR
STARTCHAR uni0462
ENCODING 1122
SWIDTH 551 0
DWIDTH 6 0
BBX 7 7 -1 0
BITMAP
04A00000
2FF80000
04A00000
04FFE700
04A02D10
04A02E00
04FFE600
ENDCHAR
STARTCHAR uni0463
ENCODING 1123
SWIDTH 477 0
DWIDTH 5 0
BBX 6 8 -1 0
BITMAP
049000
049000
1FFD00
049000
04FFB0
0490B4
0490B4
04FFA0
ENDCHAR
STARTCHAR uni0464
ENCODING 1124
SWIDTH 772 0
DWIDTH 8 0
BBX 7 7 0 0
BITMAP
3B07ED40
3B4C13D0
3B860040
3FFFF800
3B860030
3B4B13D0
3B08ED40
ENDCHAR
STARTCHAR uni0465
ENCODING 1125
SWIDTH 646 0
DWIDTH 6 0
BBX 6 5 0 0
BITMAP
492CE7
49961A
4FFFD0
499618
492CE6
ENDCHAR
STARTCHAR uni0466
ENCODING 1126
SWIDTH 526 0
DWIDTH 5 0
BBX 6 7 0 0
BITMAP
00B500
01EA00
057D00
0A3930
0EFF80
4AA4C0
95A3C2
ENDCHAR
STARTCHAR uni0467
ENCODING 1127
SWIDTH 470 0
DWIDTH 5 0
BBX 5 5 0 0
BITMAP
04D000
09C300
0C4900
5FFE00
A5BA50
ENDCHAR
STARTCHAR uni0468
ENCODING 1128
SWIDTH 759 0
DWIDTH 8 0
BBX 8 7 0 0
BITMAP
2C009800
2C00CC00
2C03AB20
2C085760
2FFFFFB0
2C1C85D1
2C688595
ENDCHAR
STARTCHAR uni0469
ENCODING 1129
SWIDTH 654 0
DWIDTH 7 0
BBX 7 5 0 0
BITMAP
2B06A000
2B0BC100
2B2B7600
2FFFFC00
2BB69C20
ENDCHAR
STARTCHAR uni046A
ENCODING 1130
SWIDTH 747 0
DWIDTH 7 0
BBX 7 7 0 0
BITMAP
07FFFE10
01C16700
0069C100
0AEFFD30
3C1A35B0
590A32C0
590A32C0
ENDCHAR
STARTCHAR uni046B
ENCODING 1131
SWIDTH 645 0
DWIDTH 6 0
BBX 6 5 0 0
BITMAP
07FFE1
00B860
0AFFD3
3B3A5A
483A2B
ENDCHAR
STARTCHAR uni046C
ENCODING 1132
SWIDTH 980 0
DWIDTH 10 0
BBX 10 7 0 0
BITMAP
3B02FFFF60
3B00942C00
3B002CA400
3FFFFFFE70
3B0C3682E1
3B0E0580C2
3B0E0580C2
ENDCHAR
STARTCHAR uni046D
ENCODING 1133
SWIDTH 856 0
DWIDTH 9 0
BBX 8 5 0 0
BITMAP
4905FFE2
4900A770
4FFFFFE5
491C2C3C
493A1C0D
ENDCHAR
STARTCHAR uni046E
ENCODING 1134
SWIDTH 454 0
DWIDTH 5 0
BBX 4 12 0 -2
BITMAP
0A66
04C0
0000
6FD3
005B
004A
0DF3
003C
003C
5ED4
9400
2800
ENDCHAR
STARTCHAR uni046F
ENCODING 1135
SWIDTH 423 0
DWIDTH 4 0
BBX 4 10 0 -2
BITMAP
2992
0880
0000
6FD4
0069
0CF4
005A
5EE5
9500
2800
ENDCHAR
STARTCHAR uni0470
ENCODING 1136
SWIDTH 600 0
DWIDTH 6 0
BBX 6 7 0 0
BITMAP
958668
958668
858667
5B97C4
09FE70
008600
008600
ENDCHAR
STARTCHAR uni0471
ENCODING 1137
SWIDTH 612 0
DWIDTH 6 0
BBX 6 7 0 -2
BITMAP
856776
85674A
85673A
5B77A7
09EEA1
006700
006700
ENDCHAR
STARTCHAR uni0472
ENCODING 1138
SWIDTH 593 0
DWIDTH 6 0
BBX 6 7 0 0
BITMAP
06ED40
2C23D1
670094
7FFFF5
670094
2D23D1
06ED50
ENDCHAR
STARTCHAR uni0473
ENCODING 1139
SWIDTH 497 0
DWIDTH 5 0
BBX 5 5 0 0
BITMAP
0AEA00
591A60
8FFF80
591960
0AEA00
ENDCHAR
STARTCHAR uni0474
ENCODING 1140
SWIDTH 553 0
DWIDTH 6 0
BBX 6 7 0 0
BITMAP
A400C3
6803B0
1C0760
0C1B10
076B00
03D700
00D300
ENDCHAR
STARTCHAR uni0475
ENCODING 1141
SWIDTH 443 0
DWIDTH 4 0
BBX 5 5 0 0
BITMAP
850C40
484B00
0B7500
09C100
05A000
ENDCHAR
STARTCHAR uni0476
ENCODING 1142
SWIDTH 553 0
DWIDTH 6 0
BBX 6 10 0 0
BITMAP
3CC100
099600
000000
A400C3
6803B0
1C0760
0C1B10
076B00
03D700
00D300
ENDCHAR
STARTCHAR uni0477
ENCODING 1143
SWIDTH 443 0
DWIDTH 4 0
BBX 5 8 0 0
BITMAP
99A000
1BA100
000000
850C40
484B00
0B7500
09C100
05A000
ENDCHAR
STARTCHAR uni0478
ENCODING 1144
SWIDTH 1017 0
DWIDTH 10 0
BBX 10 9 0 -2
BITMAP
06EE600000
2D22D20000
580085A41C
6800865858
5800851B93
2D22D20AC0
06EE600690
0000000940
0000008B00
ENDCHAR
STARTCHAR uni0479
ENCODING 1145
SWIDTH 918 0
DWIDTH 9 0
BBX 9 7 0 -2
BITMAP
1BEB1A41C0
6919658580
850581B930
691960AC00
1BEB106900
0000009500
000008B000
ENDCHAR
STARTCHAR uni047A
ENCODING 1146
SWIDTH 593 0
DWIDTH 6 0
BBX 6 9 0 -1
BITMAP
004400
06EE50
2D45D1
670094
760085
670094
2D44D1
07EE50
004400
ENDCHAR
STARTCHAR uni047B
ENCODING 1147
SWIDTH 498 0
DWIDTH 5 0
BBX 5 7 0 -1
BITMAP
007000
0AFB00
596960
850680
6A6A60
0BFB00
007000
ENDCHAR
STARTCHAR uni047C
ENCODING 1148
SWIDTH 752 0
DWIDTH 8 0
BBX 7 10 0 0
BITMAP
004E6000
0083A900
00073000
0A600B40
3C0004B0
490001D0
490A41D0
490A41D0
3C1D74C0
0AE8CE40
ENDCHAR
STARTCHAR uni047D
ENCODING 1149
SWIDTH 654 0
DWIDTH 7 0
BBX 6 8 0 0
BITMAP
009C30
00A4D3
000A00
1C1077
59001D
67280D
595D2D
1DDAE7
ENDCHAR
STARTCHAR uni047E
ENCODING 1150
SWIDTH 754 0
DWIDTH 8 0
BBX 7 10 0 0
BITMAP
00DFF800
00093000
00000000
490A40D0
490A40D0
490A40D0
490A40D0
490A40D0
3C1D84C0
0AE8CE50
ENDCHAR
STARTCHAR uni047F
ENCODING 1151
SWIDTH 650 0
DWIDTH 7 0
BBX 6 8 0 0
BITMAP
06FFF0
002A00
000000
672B0D
672B0D
672B0D
695D2E
1DDAE8
ENDCHAR
STARTCHAR uni0480
ENCODING 1152
SWIDTH 570 0
DWIDTH 6 0
BBX 5 9 0 -2
BITMAP
06ED40
2D23D0
680050
770000
680000
2D2000
07E600
008600
008600
ENDCHAR
STARTCHAR uni0481
ENCODING 1153
SWIDTH 472 0
DWIDTH 5 0
BBX 5 7 0 -2
BITMAP
0AE800
5A1B10
760000
5A0000
0BE000
00D000
00D000
ENDCHAR
STARTCHAR uni0482
ENCODING 1154
SWIDTH 547 0
DWIDTH 5 0
BBX 5 7 0 0
BITMAP
000470
02BB10
005D40
329250
1BB000
089800
1A0100
ENDCHAR
STARTCHAR uni0483
ENCODING 1155
SWIDTH 0 0
DWIDTH 0 0
BBX 4 3 -4 5
BITMAP
0042
CFF4
7000
ENDCHAR
STARTCHAR uni0484
ENCODING 1156
SWIDTH 0 0
DWIDTH 0 0
BBX 4 2 -4 6
BITMAP
07E3
A947
ENDCHAR
STARTCHAR uni0485
ENCODING 1157
SWIDTH 0 0
DWIDTH 0 0
BBX 2 2 -3 6
BITMAP
A2
44
ENDCHAR
STARTCHAR uni0486
ENCODING 1158
SWIDTH 0 0
DWIDTH 0 0
BBX 2 2 -3 6
BITMAP
2A
44
ENDCHAR
STARTCHAR uni0488
ENCODING 1160
SWIDTH 0 0
DWIDTH 0 0
BBX 11 10 -8 -3
BITMAP
00005D100000
03E35327C000
042400053100
000000000000
1D5000008B00
234000005410
03E30008C000
042300054100
00005D100000
000043200000
ENDCHAR
STARTCHAR uni0489
ENCODING 1161
SWIDTH 0 0
DWIDTH 0 0
BBX 10 9 -8 -2
BITMAP
0000080000
0070250860
0063000200
0000000000
2940000096
0000000000
0011000800
0193070440
0000350000
ENDCHAR
STARTCHAR uni048A
ENCODING 1162
SWIDTH 666 0
DWIDTH 7 0
BBX 7 11 0 -1
BITMAP
01B2B000
009E5000
00000000
3B00C500
3B05E500
3B0B9500
3B578500
3BB18500
3E708600
3E108F40
00000A00
ENDCHAR
STARTCHAR uni048B
ENCODING 1163
SWIDTH 550 0
DWIDTH 6 0
BBX 6 9 0 -1
BITMAP
093A30
03EA00
000000
490B50
494D50
49A850
4D6860
4D08F4
0000A0
ENDCHAR
STARTCHAR uni048C
ENCODING 1164
SWIDTH 551 0
DWIDTH 6 0
BBX 7 7 -1 0
BITMAP
04A00000
2FF80000
04A00000
04FFE700
04A02D10
04A02E00
04FFE600
ENDCHAR
STARTCHAR uni048D
ENCODING 1165
SWIDTH 477 0
DWIDTH 5 0
BBX 6 8 -1 0
BITMAP
048000
1FFD00
049000
049000
04FFB0
0490B4
0490B4
04FFA0
ENDCHAR
STARTCHAR uni048E
ENCODING 1166
SWIDTH 557 0
DWIDTH 6 0
BBX 6 7 0 0
BITMAP
4FFE60
4A02D1
4A07E1
4FFED1
4A0021
4A0000
4A0000
ENDCHAR
STARTCHAR uni048F
ENCODING 1167
SWIDTH 496 0
DWIDTH 5 0
BBX 5 7 0 -2
BITMAP
5CEB00
5A1B50
580770
5A3E50
5DED40
580110
580000
ENDCHAR
STARTCHAR uni0490
ENCODING 1168
SWIDTH 479 0
DWIDTH 5 0
BBX 5 9 0 0
BITMAP
000440
000670
4FFF70
490000
490000
490000
490000
490000
490000
ENDCHAR
STARTCHAR uni0491
ENCODING 1169
SWIDTH 395 0
DWIDTH 4 0
BBX 4 7 0 0
BITMAP
0034
0058
5FF8
5800
5800
5800
5800
ENDCHAR
STARTCHAR uni0492
ENCODING 1170
SWIDTH 487 0
DWIDTH 5 0
BBX 5 7 0 0
BITMAP
3FFF80
3B0000
3B0000
EFB000
3B0000
3B0000
3B0000
ENDCHAR
STARTCHAR uni0493
ENCODING 1171
SWIDTH 371 0
DWIDTH 4 0
BBX 4 5 0 0
BITMAP
4FF8
4900
EFB0
4900
4900
ENDCHAR
STARTCHAR uni0494
ENCODING 1172
SWIDTH 539 0
DWIDTH 5 0
BBX 5 8 0 -1
BITMAP
3FFF80
3B0000
3B0000
3FFB20
3B06A0
3B00D0
3B04B0
001D30
ENDCHAR
STARTCHAR uni0495
ENCODING 1173
SWIDTH 443 0
DWIDTH 4 0
BBX 4 6 0 -1
BITMAP
5FF8
5800
5FE5
582D
582D
0095
ENDCHAR
STARTCHAR uni0496
ENCODING 1174
SWIDTH 833 0
DWIDTH 8 0
BBX 9 9 0 -2
BITMAP
5A0770A500
0C3773C000
04A77A4000
00EFFE0000
07A77A6000
1E2772D100
8907709F20
0000000B20
0000000B20
ENDCHAR
STARTCHAR uni0497
ENCODING 1175
SWIDTH 696 0
DWIDTH 7 0
BBX 7 7 0 -2
BITMAP
692B1D10
0C4B8700
07FFF100
1D4B7800
882B1FD0
000003B0
000003B0
ENDCHAR
STARTCHAR uni0498
ENCODING 1176
SWIDTH 517 0
DWIDTH 5 0
BBX 5 9 0 -2
BITMAP
1BEC20
581790
000780
01FE20
000690
7806A0
1BFC20
00D000
00D000
ENDCHAR
STARTCHAR uni0499
ENCODING 1177
SWIDTH 446 0
DWIDTH 4 0
BBX 4 7 0 -2
BITMAP
2CE7
343C
08F8
442D
3FF8
03A0
03A0
ENDCHAR
STARTCHAR uni049A
ENCODING 1178
SWIDTH 617 0
DWIDTH 6 0
BBX 6 9 0 -2
BITMAP
3B02D1
3B0B50
3B6B00
3FF400
3B4C00
3B0980
3B01FE
00002B
00002B
ENDCHAR
STARTCHAR uni049B
ENCODING 1179
SWIDTH 524 0
DWIDTH 5 0
BBX 5 7 0 -2
BITMAP
491C20
499600
4FE000
498800
490CF0
0000D0
0000D0
ENDCHAR
STARTCHAR uni049C
ENCODING 1180
SWIDTH 553 0
DWIDTH 6 0
BBX 6 7 0 0
BITMAP
4A01D1
4A3680
4AAB10
4FFC00
4AAC30
4A26A0
4A00E3
ENDCHAR
STARTCHAR uni049D
ENCODING 1181
SWIDTH 498 0
DWIDTH 5 0
BBX 5 5 0 0
BITMAP
490870
4AAC00
4FF800
4AAD20
4907A0
ENDCHAR
STARTCHAR uni049E
ENCODING 1182
SWIDTH 570 0
DWIDTH 6 0
BBX 6 7 0 0
BITMAP
1C01D2
EFBA70
1C5C00
1FF600
1C3D10
1C0890
1C00C4
ENDCHAR
STARTCHAR uni049F
ENCODING 1183
SWIDTH 462 0
DWIDTH 5 0
BBX 6 8 -1 0
BITMAP
04A000
4FF600
04A000
04A1D1
04A860
04FE10
04A880
04A0C3
ENDCHAR
STARTCHAR uni04A0
ENCODING 1184
SWIDTH 710 0
DWIDTH 7 0
BBX 7 7 0 0
BITMAP
AFF30980
00B34C00
00B4D300
00BFB000
00B3C500
00B32D10
00B307A0
ENDCHAR
STARTCHAR uni04A1
ENCODING 1185
SWIDTH 607 0
DWIDTH 6 0
BBX 6 5 0 0
BITMAP
9FE087
00D4B0
00EF40
00D3C1
00D079
ENDCHAR
STARTCHAR uni04A2
ENCODING 1186
SWIDTH 662 0
DWIDTH 7 0
BBX 7 9 0 -2
BITMAP
4A007600
4A007600
4A007600
4FFFF600
4A007600
4A007600
4A007F30
00000B30
00000B30
ENDCHAR
STARTCHAR uni04A3
ENCODING 1187
SWIDTH 541 0
DWIDTH 5 0
BBX 6 7 0 -2
BITMAP
490850
490850
4FFF50
490850
4908F2
0000C2
0000C2
ENDCHAR
STARTCHAR uni04A4
ENCODING 1188
SWIDTH 829 0
DWIDTH 8 0
BBX 8 7 0 0
BITMAP
4A007FFD
4A007600
4A007600
4FFFF600
4A007600
4A007600
4A007600
ENDCHAR
STARTCHAR uni04A5
ENCODING 1189
SWIDTH 614 0
DWIDTH 6 0
BBX 6 5 0 0
BITMAP
5808FB
580840
5FFF40
580840
580840
ENDCHAR
STARTCHAR uni04A6
ENCODING 1190
SWIDTH 880 0
DWIDTH 9 0
BBX 9 8 0 -1
BITMAP
3FFFF60000
3B00860000
3B00860000
3B008FD600
3B00862D20
3B00860940
3B00861C20
000000A800
ENDCHAR
STARTCHAR uni04A7
ENCODING 1191
SWIDTH 755 0
DWIDTH 8 0
BBX 8 6 0 -1
BITMAP
5FFF5000
58085000
5808FE60
580852D1
580851D1
00000770
ENDCHAR
STARTCHAR uni04A8
ENCODING 1192
SWIDTH 641 0
DWIDTH 6 0
BBX 6 7 0 0
BITMAP
096AE4
3C4B3C
67670E
77670D
69480C
1D3A66
05DFFF
ENDCHAR
STARTCHAR uni04A9
ENCODING 1193
SWIDTH 528 0
DWIDTH 5 0
BBX 5 5 0 0
BITMAP
1C7E50
68D5B0
76C2B0
4B7770
09FFF0
ENDCHAR
STARTCHAR uni04AA
ENCODING 1194
SWIDTH 566 0
DWIDTH 6 0
BBX 6 9 0 -2
BITMAP
06DE50
2D22D1
590071
680000
580061
2D22D0
06FF50
008500
008500
ENDCHAR
STARTCHAR uni04AB
ENCODING 1195
SWIDTH 461 0
DWIDTH 5 0
BBX 5 7 0 -2
BITMAP
1BEA00
681920
850000
681720
1EFA00
03B000
03B000
ENDCHAR
STARTCHAR uni04AC
ENCODING 1196
SWIDTH 520 0
DWIDTH 5 0
BBX 5 9 0 -2
BITMAP
BFFFE0
00D100
00D100
00D100
00D100
00D100
00EC00
001C00
001C00
ENDCHAR
STARTCHAR uni04AD
ENCODING 1197
SWIDTH 424 0
DWIDTH 4 0
BBX 4 7 0 -2
BITMAP
BFFF
0580
0580
0580
05F4
0094
0094
ENDCHAR
STARTCHAR uni04AE
ENCODING 1198
SWIDTH 524 0
DWIDTH 5 0
BBX 5 7 0 0
BITMAP
9502D0
3C0860
0B3C00
04D700
00D100
00C100
00C100
ENDCHAR
STARTCHAR uni04AF
ENCODING 1199
SWIDTH 444 0
DWIDTH 4 0
BBX 5 7 0 -2
BITMAP
850C10
392B00
0C6600
09D100
04C000
03A000
03A000
ENDCHAR
STARTCHAR uni04B0
ENCODING 1200
SWIDTH 524 0
DWIDTH 5 0
BBX 5 7 0 0
BITMAP
A502D0
3C0860
0C3D10
05D800
0AFE00
00C100
00C100
ENDCHAR
STARTCHAR uni04B1
ENCODING 1201
SWIDTH 444 0
DWIDTH 4 0
BBX 5 7 0 -2
BITMAP
850C10
3A2A00
0B7500
07D000
1FF900
03A000
03A000
ENDCHAR
STARTCHAR uni04B2
ENCODING 1202
SWIDTH 559 0
DWIDTH 6 0
BBX 6 9 0 -2
BITMAP
5A02D0
0C3A50
04CC00
00E600
05BC00
0D2960
6A02F6
000076
000076
ENDCHAR
STARTCHAR uni04B3
ENCODING 1203
SWIDTH 465 0
DWIDTH 5 0
BBX 5 7 0 -2
BITMAP
683C00
0CB300
06C000
0CA400
782F60
000760
000760
ENDCHAR
STARTCHAR uni04B4
ENCODING 1204
SWIDTH 781 0
DWIDTH 8 0
BBX 8 9 0 -2
BITMAP
AFFF4760
02B00760
02B00760
02B00760
02B00760
02B00760
02FFFFF1
000000C0
000000C0
ENDCHAR
STARTCHAR uni04B5
ENCODING 1205
SWIDTH 587 0
DWIDTH 6 0
BBX 6 7 0 -2
BITMAP
CFF2D0
0A30D0
0A30D0
0A30D0
0AFFF7
000057
000056
ENDCHAR
STARTCHAR uni04B6
ENCODING 1206
SWIDTH 638 0
DWIDTH 6 0
BBX 6 9 0 -2
BITMAP
5900B3
5900B3
5900B3
3C11C3
09EDE3
0000B3
0000BF
00000D
00000D
ENDCHAR
STARTCHAR uni04B7
ENCODING 1207
SWIDTH 512 0
DWIDTH 5 0
BBX 5 7 0 -2
BITMAP
760C10
760C10
691C10
1CEF10
000DE0
0001C0
0001C0
ENDCHAR
STARTCHAR uni04B8
ENCODING 1208
SWIDTH 595 0
DWIDTH 6 0
BBX 6 7 0 0
BITMAP
5900B3
5900B3
5923B3
3C57B3
0AFEE3
0046B3
0011B3
ENDCHAR
STARTCHAR uni04B9
ENCODING 1209
SWIDTH 483 0
DWIDTH 5 0
BBX 5 5 0 0
BITMAP
670B30
674B30
5AAB30
0BFF30
007B30
ENDCHAR
STARTCHAR uni04BA
ENCODING 1210
SWIDTH 595 0
DWIDTH 6 0
BBX 6 7 0 0
BITMAP
680000
680000
680000
6EEE80
6911E1
6800C2
6800C2
ENDCHAR
STARTCHAR uni04BB
ENCODING 1211
SWIDTH 482 0
DWIDTH 5 0
BBX 5 8 0 0
BITMAP
580000
580000
580000
5CEB00
5B1C20
580A30
580A30
580A30
ENDCHAR
STARTCHAR uni04BC
ENCODING 1212
SWIDTH 674 0
DWIDTH 7 0
BBX 7 7 0 0
BITMAP
004DD400
21D33C00
79A00B10
2DFFFF30
04A00000
01D31300
005DE800
ENDCHAR
STARTCHAR uni04BD
ENCODING 1213
SWIDTH 518 0
DWIDTH 5 0
BBX 5 5 0 0
BITMAP
15EC20
BD2690
7FFFB0
0D2120
05ED40
ENDCHAR
STARTCHAR uni04BE
ENCODING 1214
SWIDTH 674 0
DWIDTH 7 0
BBX 7 9 0 -2
BITMAP
004DD400
21D33C00
79A00B10
2DFFFF30
04A00000
01D31300
005FF800
00049000
00049000
ENDCHAR
STARTCHAR uni04BF
ENCODING 1215
SWIDTH 518 0
DWIDTH 5 0
BBX 5 7 0 -2
BITMAP
15EC20
BD2690
7FFFB0
0D2120
05FF40
006700
006700
ENDCHAR
STARTCHAR uni04C0
ENCODING 1216
SWIDTH 250 0
DWIDTH 3 0
BBX 2 7 0 0
BITMAP
3B
3B
3B
3B
3B
3B
3B
ENDCHAR
STARTCHAR uni04C1
ENCODING 1217
SWIDTH 791 0
DWIDTH 8 0
BBX 8 10 0 0
BITMAP
00667600
001DC100
00000000
5A0770A5
0C3773C0
04A77A40
00EFFE00
07A77A60
1E2772D1
89077097
ENDCHAR
STARTCHAR uni04C2
ENCODING 1218
SWIDTH 662 0
DWIDTH 7 0
BBX 7 8 0 0
BITMAP
02B2A000
009E4000
00000000
692B1D10
0C4B8700
07FFF100
1D4B7800
882B1D20
ENDCHAR
STARTCHAR uni04C3
ENCODING 1219
SWIDTH 553 0
DWIDTH 6 0
BBX 6 8 0 -1
BITMAP
4A03C0
4A0C30
4A8700
4FFD40
4A03D0
4A00C2
4A01D1
000B60
ENDCHAR
STARTCHAR uni04C4
ENCODING 1220
SWIDTH 481 0
DWIDTH 5 0
BBX 5 6 0 -1
BITMAP
491C20
49A400
4FFA00
491A50
490A50
004A00
ENDCHAR
STARTCHAR uni04C5
ENCODING 1221
SWIDTH 662 0
DWIDTH 7 0
BBX 7 8 0 -1
BITMAP
06FFF500
07708500
07608500
08508500
09408500
1D208600
A9008F30
00000A00
ENDCHAR
STARTCHAR uni04C6
ENCODING 1222
SWIDTH 551 0
DWIDTH 6 0
BBX 6 6 0 -1
BITMAP
0BFF60
0C1860
0D0860
1D0860
A708F4
0000A1
ENDCHAR
STARTCHAR uni04C7
ENCODING 1223
SWIDTH 620 0
DWIDTH 6 0
BBX 6 9 0 -2
BITMAP
3B0086
3B0086
3B0086
3FFFF6
3B0086
3B0086
3B0086
000095
0006D1
ENDCHAR
STARTCHAR uni04C8
ENCODING 1224
SWIDTH 498 0
DWIDTH 5 0
BBX 5 7 0 -2
BITMAP
580840
580840
5FFF40
580840
580840
000A40
007D10
ENDCHAR
STARTCHAR uni04C9
ENCODING 1225
SWIDTH 671 0
DWIDTH 7 0
BBX 7 8 0 -1
BITMAP
4A007600
4A007600
4A007600
4FFFF600
4A007600
4A007700
4A007F40
00000A10
ENDCHAR
STARTCHAR uni04CA
ENCODING 1226
SWIDTH 550 0
DWIDTH 6 0
BBX 6 6 0 -1
BITMAP
490850
490850
4FFF50
490860
4908F4
0000A0
ENDCHAR
STARTCHAR uni04CB
ENCODING 1227
SWIDTH 600 0
DWIDTH 6 0
BBX 6 9 0 -2
BITMAP
5900B3
5900B3
5900B3
3C11C3
09EDE3
0000B3
0007F3
000760
000760
ENDCHAR
STARTCHAR uni04CC
ENCODING 1228
SWIDTH 479 0
DWIDTH 5 0
BBX 5 7 0 -2
BITMAP
760C10
760C10
691C10
1CEF10
009F10
009400
009400
ENDCHAR
STARTCHAR uni04CD
ENCODING 1229
SWIDTH 801 0
DWIDTH 8 0
BBX 8 8 0 -1
BITMAP
4F1008C0
4F600CC0
4BB03BC0
49B186C0
4A66B2C0
4A1C92C1
4A0B42F9
00000074
ENDCHAR
STARTCHAR uni04CE
ENCODING 1230
SWIDTH 687 0
DWIDTH 7 0
BBX 7 6 0 -1
BITMAP
4F108B00
4E60DB00
4AB49B00
49AB4B10
494B2F90
00000740
ENDCHAR
STARTCHAR uni04CF
ENCODING 1231
SWIDTH 250 0
DWIDTH 3 0
BBX 2 7 0 0
BITMAP
3B
3B
3B
3B
3B
3B
3B
ENDCHAR
STARTCHAR uni04D0
ENCODING 1232
SWIDTH 576 0
DWIDTH 6 0
BBX 6 10 0 0
BITMAP
075850
02DC10
000000
00A600
01CB00
057A10
0A2560
0EFFB0
5800C1
A40086
ENDCHAR
STARTCHAR uni04D1
ENCODING 1233
SWIDTH 479 0
DWIDTH 5 0
BBX 5 8 0 0
BITMAP
0C1C00
07E600
000000
1BEA00
251D10
1BFF10
691C10
2DDD30
ENDCHAR
STARTCHAR uni04D2
ENCODING 1234
SWIDTH 576 0
DWIDTH 6 0
BBX 6 9 0 0
BITMAP
084750
000000
00A600
01CB00
057A10
0A2560
0EFFB0
5800C1
A40086
ENDCHAR
STARTCHAR uni04D3
ENCODING 1235
SWIDTH 479 0
DWIDTH 5 0
BBX 5 7 0 0
BITMAP
0C0C00
000000
1BEA00
251D10
1BFF10
691C10
2DDD30
ENDCHAR
STARTCHAR uni04D4
ENCODING 1236
SWIDTH 812 0
DWIDTH 8 0
BBX 8 7 0 0
BITMAP
000AFFFA
003AD000
00A2D000
0380EFF5
0BFFE000
4A00D000
B400DFFD
ENDCHAR
STARTCHAR uni04D5
ENCODING 1237
SWIDTH 728 0
DWIDTH 7 0
BBX 7 5 0 0
BITMAP
2CE9DE40
341E43B0
3DFFFFD0
872E4010
4ED7CE80
ENDCHAR
STARTCHAR uni04D6
ENCODING 1238
SWIDTH 496 0
DWIDTH 5 0
BBX 5 10 0 0
BITMAP
0B2C10
05E800
000000
4FFF80
4A0000
4A0000
4FFF30
4A0000
4A0000
4FFF90
ENDCHAR
STARTCHAR uni04D7
ENCODING 1239
SWIDTH 468 0
DWIDTH 5 0
BBX 5 8 0 0
BITMAP
0C1C00
08E600
000000
1BE900
681B20
8FFF40
680200
1BEC10
ENDCHAR
STARTCHAR uni04D8
ENCODING 1240
SWIDTH 597 0
DWIDTH 6 0
BBX 6 7 0 0
BITMAP
0AEC40
0303D1
000094
8FFFF6
760095
3B13D1
07ED40
ENDCHAR
STARTCHAR uni04D9
ENCODING 1241
SWIDTH 465 0
DWIDTH 5 0
BBX 5 5 0 0
BITMAP
2DE700
021C10
7FFF30
591D10
1BE600
ENDCHAR
STARTCHAR uni04DA
ENCODING 1242
SWIDTH 597 0
DWIDTH 6 0
BBX 6 9 0 0
BITMAP
0B1A20
000000
0AEC40
0303D1
000094
8FFFF6
760095
3B13D1
07ED40
ENDCHAR
STARTCHAR uni04DB
ENCODING 1243
SWIDTH 465 0
DWIDTH 5 0
BBX 5 7 0 0
BITMAP
1B0C00
000000
2DE700
021C10
7FFF30
591D10
1BE600
ENDCHAR
STARTCHAR uni04DC
ENCODING 1244
SWIDTH 791 0
DWIDTH 8 0
BBX 8 9 0 0
BITMAP
00756600
00000000
5A0770A5
0C3773C0
04A77A40
00EFFE00
07A77A60
1E2772D1
89077097
ENDCHAR
STARTCHAR uni04DD
ENCODING 1245
SWIDTH 662 0
DWIDTH 7 0
BBX 7 7 0 0
BITMAP
02A1B000
00000000
692B1D10
0C4B8700
07FFF100
1D4B7800
882B1D20
ENDCHAR
STARTCHAR uni04DE
ENCODING 1246
SWIDTH 517 0
DWIDTH 5 0
BBX 5 9 0 0
BITMAP
0C0B10
000000
1BEC20
581790
000780
01FE20
000690
7806A0
1BEC20
ENDCHAR
STARTCHAR uni04DF
ENCODING 1247
SWIDTH 446 0
DWIDTH 4 0
BBX 4 7 0 0
BITMAP
392A
0000
2CE7
343C
08F8
442D
3DE8
ENDCHAR
STARTCHAR uni04E0
ENCODING 1248
SWIDTH 510 0
DWIDTH 5 0
BBX 5 7 0 0
BITMAP
4FFF40
003B00
01B200
04FB10
000970
691970
1BEB10
ENDCHAR
STARTCHAR uni04E1
ENCODING 1249
SWIDTH 510 0
DWIDTH 5 0
BBX 5 7 0 -2
BITMAP
4FFF40
003B00
01C200
04FA10
000960
691960
1AEB10
ENDCHAR
STARTCHAR uni04E2
ENCODING 1250
SWIDTH 619 0
DWIDTH 6 0
BBX 6 9 0 0
BITMAP
04FF80
000000
3B00C5
3B05E5
3B0B95
3B5785
3BB185
3E7085
3E1085
ENDCHAR
STARTCHAR uni04E3
ENCODING 1251
SWIDTH 509 0
DWIDTH 5 0
BBX 5 7 0 0
BITMAP
0DFF00
000000
490B50
494D50
49A850
4D6850
4D0850
ENDCHAR
STARTCHAR uni04E4
ENCODING 1252
SWIDTH 619 0
DWIDTH 6 0
BBX 6 9 0 0
BITMAP
057480
000000
3B00C5
3B05E5
3B0B95
3B5785
3BB185
3E7085
3E1085
ENDCHAR
STARTCHAR uni04E5
ENCODING 1253
SWIDTH 509 0
DWIDTH 5 0
BBX 5 7 0 0
BITMAP
0C0B10
000000
490B50
494D50
49A850
4D6850
4D0850
ENDCHAR
STARTCHAR uni04E6
ENCODING 1254
SWIDTH 600 0
DWIDTH 6 0
BBX 6 9 0 0
BITMAP
066570
000000
06EE60
2D22D2
580085
680086
580085
2D22D2
06EE60
ENDCHAR
STARTCHAR uni04E7
ENCODING 1255
SWIDTH 501 0
DWIDTH 5 0
BBX 5 7 0 0
BITMAP
0B0C00
000000
1BEB10
691960
850580
691960
1BEB10
ENDCHAR
STARTCHAR uni04E8
ENCODING 1256
SWIDTH 593 0
DWIDTH 6 0
BBX 6 7 0 0
BITMAP
06ED40
2C23D1
670094
7FFFF5
670094
2D23D1
06ED50
ENDCHAR
STARTCHAR uni04E9
ENCODING 1257
SWIDTH 497 0
DWIDTH 5 0
BBX 5 5 0 0
BITMAP
0AEA00
591A60
8FFF80
591960
0AEA00
ENDCHAR
STARTCHAR uni04EA
ENCODING 1258
SWIDTH 593 0
DWIDTH 6 0
BBX 6 9 0 0
BITMAP
066480
000000
06ED40
2C23D1
670094
7FFFF5
670094
2D23D1
06ED50
ENDCHAR
STARTCHAR uni04EB
ENCODING 1259
SWIDTH 497 0
DWIDTH 5 0
BBX 5 7 0 0
BITMAP
1B0C00
000000
0AEA00
591A60
8FFF80
591960
0AEA00
ENDCHAR
STARTCHAR uni04EC
ENCODING 1260
SWIDTH 589 0
DWIDTH 6 0
BBX 6 9 0 0
BITMAP
075660
000000
06ED40
2D13D1
130094
00CFF5
120094
2D12D1
06EE50
ENDCHAR
STARTCHAR uni04ED
ENCODING 1261
SWIDTH 472 0
DWIDTH 5 0
BBX 5 7 0 0
BITMAP
2A1B00
000000
2CE600
341D10
03FF20
561D00
1CE600
ENDCHAR
STARTCHAR uni04EE
ENCODING 1262
SWIDTH 547 0
DWIDTH 5 0
BBX 5 9 0 0
BITMAP
0AFF30
000000
5901E0
0D1690
085B30
02BD00
00B800
00C200
0B9000
ENDCHAR
STARTCHAR uni04EF
ENCODING 1263
SWIDTH 416 0
DWIDTH 4 0
BBX 4 9 0 -2
BITMAP
3FF9
0000
A41C
5858
1B93
0AC0
0690
0940
8B00
ENDCHAR
STARTCHAR uni04F0
ENCODING 1264
SWIDTH 547 0
DWIDTH 5 0
BBX 5 9 0 0
BITMAP
0A2930
000000
5901E0
0D1690
085B30
02BD00
00B800
00C200
0B9000
ENDCHAR
STARTCHAR uni04F1
ENCODING 1265
SWIDTH 416 0
DWIDTH 4 0
BBX 4 9 0 -2
BITMAP
4839
0000
A41C
5858
1B93
0AC0
0690
0940
8B00
ENDCHAR
STARTCHAR uni04F2
ENCODING 1266
SWIDTH 547 0
DWIDTH 5 0
BBX 5 10 0 0
BITMAP
00C970
028B00
000000
5901E0
0D1690
085B30
02BD00
00B800
00C200
0B9000
ENDCHAR
STARTCHAR uni04F3
ENCODING 1267
SWIDTH 416 0
DWIDTH 4 0
BBX 4 10 0 -2
BITMAP
079C
0985
0000
A41C
5858
1B93
0AC0
0690
0940
8B00
ENDCHAR
STARTCHAR uni04F4
ENCODING 1268
SWIDTH 600 0
DWIDTH 6 0
BBX 6 9 0 0
BITMAP
084660
000000
5900B3
5900B3
5900B3
3C11C3
09EDE3
0000B3
0000B3
ENDCHAR
STARTCHAR uni04F5
ENCODING 1269
SWIDTH 479 0
DWIDTH 5 0
BBX 5 7 0 0
BITMAP
392A00
000000
760C10
760C10
691C10
1CEF10
000C10
ENDCHAR
STARTCHAR uni04F6
ENCODING 1270
SWIDTH 487 0
DWIDTH 5 0
BBX 5 9 0 -2
BITMAP
3FFF80
3B0000
3B0000
3B0000
3B0000
3B0000
3F7000
077000
077000
ENDCHAR
STARTCHAR uni04F7
ENCODING 1271
SWIDTH 371 0
DWIDTH 4 0
BBX 4 7 0 -2
BITMAP
4FF8
4900
4900
4900
4F50
0850
0850
ENDCHAR
STARTCHAR uni04F8
ENCODING 1272
SWIDTH 755 0
DWIDTH 8 0
BBX 7 9 0 0
BITMAP
00A29300
00000000
3B0003B0
3B0003B0
3B0003B0
3FFE83B0
3B01D4B0
3B01D4B0
3FFE73B0
ENDCHAR
STARTCHAR uni04F9
ENCODING 1273
SWIDTH 679 0
DWIDTH 7 0
BBX 6 7 0 0
BITMAP
02A1B0
000000
49000D
49000D
4FFC1D
490B4D
4FFC1D
ENDCHAR
STARTCHAR uni04FA
ENCODING 1274
SWIDTH 520 0
DWIDTH 5 0
BBX 5 9 0 -2
BITMAP
0DFFC0
0D0000
0D0000
9FF000
0D0000
0D0000
0ED000
03C000
0E6000
ENDCHAR
STARTCHAR uni04FB
ENCODING 1275
SWIDTH 410 0
DWIDTH 4 0
BBX 4 7 0 -2
BITMAP
0DFE
0D00
9FF0
0D00
0FB0
04A0
1E50
ENDCHAR
STARTCHAR uni04FC
ENCODING 1276
SWIDTH 570 0
DWIDTH 6 0
BBX 6 9 0 -2
BITMAP
5A02D0
0C3A50
04CC00
00E600
05BC00
0D2960
6A02F8
000077
0004E2
ENDCHAR
STARTCHAR uni04FD
ENCODING 1277
SWIDTH 476 0
DWIDTH 5 0
BBX 5 7 0 -2
BITMAP
683C00
0CB300
06C000
0CA400
782F80
000770
004E20
ENDCHAR
STARTCHAR uni04FE
ENCODING 1278
SWIDTH 550 0
DWIDTH 6 0
BBX 5 7 0 0
BITMAP
5A02D0
0C3A50
04CC00
08FF20
03BB00
0C2950
6A02D0
ENDCHAR
STARTCHAR uni04FF
ENCODING 1279
SWIDTH 438 0
DWIDTH 4 0
BBX 4 5 0 0
BITMAP
683B
0BB3
2FF8
0BA2
682B
ENDCHAR
STARTCHAR uni0500
ENCODING 1280
SWIDTH 555 0
DWIDTH 6 0
BBX 5 7 0 0
BITMAP
0001D0
0001D0
0001D0
1BFFD0
7901D0
7901D0
1BFFD0
ENDCHAR
STARTCHAR uni0501
ENCODING 1281
SWIDTH 496 0
DWIDTH 5 0
BBX 5 8 0 0
BITMAP
000940
000940
000940
1CED40
691B40
850940
681B40
1CEC40
ENDCHAR
STARTCHAR uni0502
ENCODING 1282
SWIDTH 723 0
DWIDTH 7 0
BBX 7 7 0 0
BITMAP
0001D000
0001D000
0001D000
1BFFD2B0
6901D0E0
6901D3C0
1BFFFE40
ENDCHAR
STARTCHAR uni0503
ENCODING 1283
SWIDTH 743 0
DWIDTH 7 0
BBX 7 8 0 0
BITMAP
000A3000
000A3000
000A3000
0BED32A0
5A1B30D0
760A30C0
691B6680
1BE8EC10
ENDCHAR
STARTCHAR uni0504
ENCODING 1284
SWIDTH 685 0
DWIDTH 7 0
BBX 7 7 0 0
BITMAP
AFD40000
004B0000
004A0B10
0DF30B30
005B0B30
001E2D00
000AE600
ENDCHAR
STARTCHAR uni0505
ENCODING 1285
SWIDTH 562 0
DWIDTH 6 0
BBX 6 5 0 0
BITMAP
AFA000
01D2B2
5FC094
00C4C1
007E70
ENDCHAR
STARTCHAR uni0506
ENCODING 1286
SWIDTH 470 0
DWIDTH 5 0
BBX 5 8 0 -1
BITMAP
9FC100
008700
008600
3FD000
009600
005800
004F40
000910
ENDCHAR
STARTCHAR uni0507
ENCODING 1287
SWIDTH 443 0
DWIDTH 4 0
BBX 5 7 0 -2
BITMAP
6FD300
009700
2FE200
008700
004F30
000B20
000900
ENDCHAR
STARTCHAR uni0508
ENCODING 1288
SWIDTH 834 0
DWIDTH 8 0
BBX 8 7 0 0
BITMAP
05FFF400
06809400
0670942A
0760940D
0850940D
1C309759
9A004EC1
ENDCHAR
STARTCHAR uni0509
ENCODING 1289
SWIDTH 698 0
DWIDTH 7 0
BBX 7 5 0 0
BITMAP
09FF4340
0A394390
0B2943A0
1D096770
9904EC10
ENDCHAR
STARTCHAR uni050A
ENCODING 1290
SWIDTH 864 0
DWIDTH 9 0
BBX 8 7 0 0
BITMAP
4A008500
4A008500
4A00851B
4FFFF50D
4A00850D
4A00884B
4A003ED2
ENDCHAR
STARTCHAR uni050B
ENCODING 1291
SWIDTH 716 0
DWIDTH 7 0
BBX 7 5 0 0
BITMAP
58085250
580852A0
5FFF52B0
58078680
5803ED10
ENDCHAR
STARTCHAR uni050C
ENCODING 1292
SWIDTH 541 0
DWIDTH 5 0
BBX 5 7 0 0
BITMAP
06ED30
2D2110
680020
7701D0
6800D0
2D24C0
06ED30
ENDCHAR
STARTCHAR uni050D
ENCODING 1293
SWIDTH 452 0
DWIDTH 5 0
BBX 4 5 0 0
BITMAP
0AE7
5A11
760C
5A1D
0AE8
ENDCHAR
STARTCHAR uni050E
ENCODING 1294
SWIDTH 616 0
DWIDTH 6 0
BBX 6 7 0 0
BITMAP
BFFFF0
00D000
00D057
00D04A
00D049
00C396
006EA0
ENDCHAR
STARTCHAR uni050F
ENCODING 1295
SWIDTH 558 0
DWIDTH 6 0
BBX 6 5 0 0
BITMAP
9FFF20
03A0C0
03A0C1
02C2D0
00BE50
ENDCHAR
STARTCHAR uni0510
ENCODING 1296
SWIDTH 589 0
DWIDTH 6 0
BBX 6 7 0 0
BITMAP
07EE70
1D21B3
1C1000
08FC00
2C1000
3C21B4
07EE80
ENDCHAR
STARTCHAR uni0511
ENCODING 1297
SWIDTH 470 0
DWIDTH 5 0
BBX 5 5 0 0
BITMAP
2CE900
5A1500
1EF300
791810
2CE900
ENDCHAR
STARTCHAR uni0512
ENCODING 1298
SWIDTH 664 0
DWIDTH 7 0
BBX 7 9 0 -2
BITMAP
06FFF500
07708500
07608500
08508500
09408500
1D208500
A9008F30
00000C20
00009B00
ENDCHAR
STARTCHAR uni0513
ENCODING 1299
SWIDTH 553 0
DWIDTH 6 0
BBX 6 7 0 -2
BITMAP
0BFF60
0C1860
0D0860
1D0860
A708F4
0000B3
0008C0
ENDCHAR
STARTCHAR uni1E00
ENCODING 7680
SWIDTH 576 0
DWIDTH 6 0
BBX 6 10 0 -3
BITMAP
00A600
01CB00
057A10
0A2560
0EFFB0
5800C1
A40086
000000
009700
009700
ENDCHAR
STARTCHAR uni1E01
ENCODING 7681
SWIDTH 479 0
DWIDTH 5 0
BBX 5 8 0 -3
BITMAP
1BEA00
251D10
1BFF10
691C10
2DDD30
000000
06A000
06A000
ENDCHAR
STARTCHAR uni1E3E
ENCODING 7742
SWIDTH 755 0
DWIDTH 8 0
BBX 7 10 0 0
BITMAP
0002D100
00075000
00000000
4F1008C0
4F600CC0
4BB03BC0
49B186C0
4A66B2C0
4A1C92C0
4A0B42C0
ENDCHAR
STARTCHAR uni1E3F
ENCODING 7743
SWIDTH 752 0
DWIDTH 8 0
BBX 7 8 0 0
BITMAP
0002D100
00066000
00000000
5CEBAE70
5A1C62D0
580A30D0
580A30D0
580A30D0
ENDCHAR
STARTCHAR Wgrave
ENCODING 7808
SWIDTH 761 0
DWIDTH 8 0
BBX 8 10 0 0
BITMAP
005C0000
000A3000
00000000
850950A4
580C90C1
2A1AB0C0
0C56A3A0
0B927970
08D03E40
05A00E10
ENDCHAR
STARTCHAR wgrave
ENCODING 7809
SWIDTH 649 0
DWIDTH 7 0
BBX 7 8 0 0
BITMAP
01D20000
00570000
00000000
934B0B20
678D1C00
2AB77900
0CA3E500
0950D100
ENDCHAR
STARTCHAR Wacute
ENCODING 7810
SWIDTH 761 0
DWIDTH 8 0
BBX 8 10 0 0
BITMAP
0001D200
00056000
00000000
850950A4
580C90C1
2A1AB0C0
0C56A3A0
0B927970
08D03E40
05A00E10
ENDCHAR
STARTCHAR wacute
ENCODING 7811
SWIDTH 649 0
DWIDTH 7 0
BBX 7 8 0 0
BITMAP
000A7000
001B0000
00000000
934B0B20
678D1C00
2AB77900
0CA3E500
0950D100
ENDCHAR
STARTCHAR Wdieresis
ENCODING 7812
SWIDTH 761 0
DWIDTH 8 0
BBX 8 9 0 0
BITMAP
00847500
00000000
850950A4
580C90C1
2A1AB0C0
0C56A3A0
0B927970
08D03E40
05A00E10
ENDCHAR
STARTCHAR wdieresis
ENCODING 7813
SWIDTH 649 0
DWIDTH 7 0
BBX 7 7 0 0
BITMAP
0392A000
00000000
934B0B20
678D1C00
2AB77900
0CA3E500
0950D100
ENDCHAR
STARTCHAR uni1EA0
ENCODING 7840
SWIDTH 576 0
DWIDTH 6 0
BBX 6 9 0 -2
BITMAP
00A600
01CB00
057A10
0A2560
0EFFB0
5800C1
A40086
000000
007500
ENDCHAR
STARTCHAR uni1EA1
ENCODING 7841
SWIDTH 479 0
DWIDTH 5 0
BBX 5 7 0 -2
BITMAP
1BEA00
251D10
1BFF10
691C10
2DDD30
000000
048000
ENDCHAR
STARTCHAR uni1EA2
ENCODING 7842
SWIDTH 576 0
DWIDTH 6 0
BBX 6 11 0 0
BITMAP
006800
001B00
006600
000000
00A600
01CB00
057A10
0A2560
0EFFB0
5800C1
A40086
ENDCHAR
STARTCHAR uni1EA3
ENCODING 7843
SWIDTH 479 0
DWIDTH 5 0
BBX 5 9 0 0
BITMAP
00C200
006500
00B100
000000
1BEA00
251D10
1BFF10
691C10
2DDD30
ENDCHAR
STARTCHAR uni1EA4
ENCODING 7844
SWIDTH 576 0
DWIDTH 6 0
BBX 6 11 0 0
BITMAP
000077
01CA91
058A30
000000
00A600
01CB00
057A10
0A2560
0EFFB0
5800C1
A40086
ENDCHAR
STARTCHAR uni1EA5
ENCODING 7845
SWIDTH 479 0
DWIDTH 5 0
BBX 6 9 0 0
BITMAP
0000C1
04E680
0B4B00
000000
1BEA00
251D10
1BFF10
691C10
2DDD30
ENDCHAR
STARTCHAR uni1EA6
ENCODING 7846
SWIDTH 576 0
DWIDTH 6 0
BBX 6 11 0 0
BITMAP
940000
37CA00
057A30
000000
00A600
01CB00
057A10
0A2560
0EFFB0
5800C1
A40086
ENDCHAR
STARTCHAR uni1EA7
ENCODING 7847
SWIDTH 479 0
DWIDTH 5 0
BBX 6 9 -1 0
BITMAP
1C0000
086E40
00B4A0
000000
01BEA0
0251D1
01BFF1
0691C1
02DDD3
ENDCHAR
STARTCHAR uni1EA8
ENCODING 7848
SWIDTH 576 0
DWIDTH 6 0
BBX 6 12 0 0
BITMAP
000090
0000A1
01CAA0
066830
000000
00A600
01CB00
057A10
0A2560
0EFFB0
5800C1
A40086
ENDCHAR
STARTCHAR uni1EA9
ENCODING 7849
SWIDTH 479 0
DWIDTH 5 0
BBX 5 10 0 0
BITMAP
000360
000290
05DA40
0B2A00
000000
1BEA00
251D10
1BFF10
691C10
2DDD30
ENDCHAR
STARTCHAR uni1EAA
ENCODING 7850
SWIDTH 576 0
DWIDTH 6 0
BBX 6 12 0 0
BITMAP
00B600
026A00
01B900
066930
000000
00A600
01CB00
057A10
0A2560
0EFFB0
5800C1
A40086
ENDCHAR
STARTCHAR uni1EAB
ENCODING 7851
SWIDTH 479 0
DWIDTH 5 0
BBX 5 10 0 0
BITMAP
057500
059400
04E300
0B2A00
000000
1BEA00
251D10
1BFF10
691C10
2DDD30
ENDCHAR
STARTCHAR uni1EAC
ENCODING 7852
SWIDTH 576 0
DWIDTH 6 0
BBX 6 12 0 -2
BITMAP
00A800
038A10
000000
00A600
01CB00
057A10
0A2560
0EFFB0
5800C1
A40086
000000
007500
ENDCHAR
STARTCHAR uni1EAD
ENCODING 7853
SWIDTH 479 0
DWIDTH 5 0
BBX 5 10 0 -2
BITMAP
02D200
085800
000000
1BEA00
251D10
1BFF10
691C10
2DDD30
000000
048000
ENDCHAR
STARTCHAR uni1EAE
ENCODING 7854
SWIDTH 576 0
DWIDTH 6 0
BBX 6 12 0 0
BITMAP
001900
003400
057B10
01DA00
000000
00A600
01CB00
057A10
0A2560
0EFFB0
5800C1
A40086
ENDCHAR
STARTCHAR uni1EAF
ENCODING 7855
SWIDTH 479 0
DWIDTH 5 0
BBX 5 10 0 0
BITMAP
007300
007000
0B3A00
05E400
000000
1BEA00
251D10
1BFF10
691C10
2DDD30
ENDCHAR
STARTCHAR uni1EB0
ENCODING 7856
SWIDTH 576 0
DWIDTH 6 0
BBX 6 12 0 0
BITMAP
00A000
006100
057B10
01DA00
000000
00A600
01CB00
057A10
0A2560
0EFFB0
5800C1
A40086
ENDCHAR
STARTCHAR uni1EB1
ENCODING 7857
SWIDTH 479 0
DWIDTH 5 0
BBX 5 10 0 0
BITMAP
037000
007000
0B3A00
05E400
000000
1BEA00
251D10
1BFF10
691C10
2DDD30
ENDCHAR
STARTCHAR uni1EB2
ENCODING 7858
SWIDTH 576 0
DWIDTH 6 0
BBX 6 13 0 0
BITMAP
003700
003A00
006400
057B00
01D900
000000
00A600
01CB00
057A10
0A2560
0EFFB0
5800C1
A40086
ENDCHAR
STARTCHAR uni1EB3
ENCODING 7859
SWIDTH 479 0
DWIDTH 5 0
BBX 5 11 0 0
BITMAP
008200
008500
00A000
0A3900
05E400
000000
1BEA00
251D10
1BFF10
691C10
2DDD30
ENDCHAR
STARTCHAR uni1EB4
ENCODING 7860
SWIDTH 576 0
DWIDTH 6 0
BBX 6 13 0 0
BITMAP
01C600
026B00
000000
057B10
01D900
000000
00A600
01CB00
057A10
0A2560
0EFFB0
5800C1
A40086
ENDCHAR
STARTCHAR uni1EB5
ENCODING 7861
SWIDTH 479 0
DWIDTH 5 0
BBX 5 11 0 0
BITMAP
068600
058500
000000
0B3900
05E400
000000
1BEA00
251D10
1BFF10
691C10
2DDD30
ENDCHAR
STARTCHAR uni1EB6
ENCODING 7862
SWIDTH 576 0
DWIDTH 6 0
BBX 6 12 0 -2
BITMAP
075850
02DC10
000000
00A600
01CB00
057A10
0A2560
0EFFB0
5800C1
A40086
000000
007500
ENDCHAR
STARTCHAR uni1EB7
ENCODING 7863
SWIDTH 479 0
DWIDTH 5 0
BBX 5 10 0 -2
BITMAP
0C1C00
07E600
000000
1BEA00
251D10
1BFF10
691C10
2DDD30
000000
048000
ENDCHAR
STARTCHAR uni1EB8
ENCODING 7864
SWIDTH 496 0
DWIDTH 5 0
BBX 5 9 0 -2
BITMAP
4FFF80
4A0000
4A0000
4FFF30
4A0000
4A0000
4FFF90
000000
00B100
ENDCHAR
STARTCHAR uni1EB9
ENCODING 7865
SWIDTH 468 0
DWIDTH 5 0
BBX 5 7 0 -2
BITMAP
1BE900
681B20
8FFF40
680200
1BEC10
000000
01B000
ENDCHAR
STARTCHAR uni1EBA
ENCODING 7866
SWIDTH 496 0
DWIDTH 5 0
BBX 5 11 0 0
BITMAP
00A400
004800
00A200
000000
4FFF80
4A0000
4A0000
4FFF30
4A0000
4A0000
4FFF90
ENDCHAR
STARTCHAR uni1EBB
ENCODING 7867
SWIDTH 468 0
DWIDTH 5 0
BBX 5 9 0 0
BITMAP
00C200
007400
00B100
000000
1BE900
681B20
8FFF40
680200
1BEC10
ENDCHAR
STARTCHAR uni1EBC
ENCODING 7868
SWIDTH 496 0
DWIDTH 5 0
BBX 5 10 0 0
BITMAP
079810
096B00
000000
4FFF80
4A0000
4A0000
4FFF30
4A0000
4A0000
4FFF90
ENDCHAR
STARTCHAR uni1EBD
ENCODING 7869
SWIDTH 468 0
DWIDTH 5 0
BBX 5 8 0 0
BITMAP
0B6900
099800
000000
1BE900
681B20
8FFF40
680200
1BEC10
ENDCHAR
STARTCHAR uni1EBE
ENCODING 7870
SWIDTH 496 0
DWIDTH 5 0
BBX 6 11 0 0
BITMAP
0000B3
02E690
095B10
000000
4FFF80
4A0000
4A0000
4FFF30
4A0000
4A0000
4FFF90
ENDCHAR
STARTCHAR uni1EBF
ENCODING 7871
SWIDTH 468 0
DWIDTH 5 0
BBX 5 9 0 0
BITMAP
0000D0
05E570
0B4A00
000000
1BE900
681B20
8FFF40
680200
1BEC10
ENDCHAR
STARTCHAR uni1EC0
ENCODING 7872
SWIDTH 496 0
DWIDTH 5 0
BBX 5 11 0 0
BITMAP
C10000
76E600
094B10
000000
4FFF80
4A0000
4A0000
4FFF30
4A0000
4A0000
4FFF90
ENDCHAR
STARTCHAR uni1EC1
ENCODING 7873
SWIDTH 468 0
DWIDTH 5 0
BBX 6 9 -1 0
BITMAP
2C0000
096E30
00B4A0
000000
01BE90
0681B2
08FFF4
068020
01BEC1
ENDCHAR
STARTCHAR uni1EC2
ENCODING 7874
SWIDTH 496 0
DWIDTH 5 0
BBX 5 12 0 0
BITMAP
000270
0001A0
03DA70
092B10
000000
4FFF80
4A0000
4A0000
4FFF30
4A0000
4A0000
4FFF90
ENDCHAR
STARTCHAR uni1EC3
ENCODING 7875
SWIDTH 468 0
DWIDTH 5 0
BBX 5 10 0 0
BITMAP
000450
000280
06DA30
0B2A00
000000
1BE900
681B20
8FFF40
680200
1BEC10
ENDCHAR
STARTCHAR uni1EC4
ENCODING 7876
SWIDTH 496 0
DWIDTH 5 0
BBX 5 12 0 0
BITMAP
039500
056600
02D500
093B10
000000
4FFF80
4A0000
4A0000
4FFF30
4A0000
4A0000
4FFF90
ENDCHAR
STARTCHAR uni1EC5
ENCODING 7877
SWIDTH 468 0
DWIDTH 5 0
BBX 5 10 0 0
BITMAP
066500
059300
05D300
0B3A00
000000
1BE900
681B20
8FFF40
680200
1BEC10
ENDCHAR
STARTCHAR uni1EC6
ENCODING 7878
SWIDTH 496 0
DWIDTH 5 0
BBX 5 12 0 -2
BITMAP
01D400
065900
000000
4FFF80
4A0000
4A0000
4FFF30
4A0000
4A0000
4FFF90
000000
00B100
ENDCHAR
STARTCHAR uni1EC7
ENCODING 7879
SWIDTH 468 0
DWIDTH 5 0
BBX 5 10 0 -2
BITMAP
03D100
095700
000000
1BE900
681B20
8FFF40
680200
1BEC10
000000
01B000
ENDCHAR
STARTCHAR uni1EC8
ENCODING 7880
SWIDTH 250 0
DWIDTH 3 0
BBX 3 11 0 0
BITMAP
1C00
0920
1B00
0000
3B00
3B00
3B00
3B00
3B00
3B00
3B00
ENDCHAR
STARTCHAR uni1EC9
ENCODING 7881
SWIDTH 234 0
DWIDTH 2 0
BBX 3 9 0 0
BITMAP
3B00
0B10
2A00
0000
4900
4900
4900
4900
4900
ENDCHAR
STARTCHAR uni1ECA
ENCODING 7882
SWIDTH 250 0
DWIDTH 3 0
BBX 2 9 0 -2
BITMAP
3B
3B
3B
3B
3B
3B
3B
00
39
ENDCHAR
STARTCHAR uni1ECB
ENCODING 7883
SWIDTH 229 0
DWIDTH 2 0
BBX 2 9 0 -2
BITMAP
38
00
49
49
49
49
49
00
48
ENDCHAR
STARTCHAR uni1ECC
ENCODING 7884
SWIDTH 600 0
DWIDTH 6 0
BBX 6 9 0 -2
BITMAP
06EE60
2D22D2
580085
680086
580085
2D22D2
06EE60
000000
006600
ENDCHAR
STARTCHAR uni1ECD
ENCODING 7885
SWIDTH 501 0
DWIDTH 5 0
BBX 5 7 0 -2
BITMAP
1BEB10
691960
850580
691960
1BEB10
000000
00C000
ENDCHAR
STARTCHAR uni1ECE
ENCODING 7886
SWIDTH 600 0
DWIDTH 6 0
BBX 6 11 0 0
BITMAP
005900
000B00
004800
000000
06EE60
2D22D2
580085
680086
580085
2D22D2
06EE60
ENDCHAR
STARTCHAR uni1ECF
ENCODING 7887
SWIDTH 501 0
DWIDTH 5 0
BBX 5 9 0 0
BITMAP
00C200
006500
00B100
000000
1BEB10
691960
850580
691960
1BEB10
ENDCHAR
STARTCHAR uni1ED0
ENCODING 7888
SWIDTH 600 0
DWIDTH 6 0
BBX 6 11 0 0
BITMAP
000058
00BB82
049840
000000
06EE60
2D22D2
580085
680086
580085
2D22D2
06EE60
ENDCHAR
STARTCHAR uni1ED1
ENCODING 7889
SWIDTH 501 0
DWIDTH 5 0
BBX 6 9 0 0
BITMAP
0000D1
04E680
0B4A00
000000
1BEB10
691960
850580
691960
1BEB10
ENDCHAR
STARTCHAR uni1ED2
ENCODING 7890
SWIDTH 600 0
DWIDTH 6 0
BBX 6 11 0 0
BITMAP
860000
28BB00
049940
000000
06EE60
2D22D2
580085
680086
580085
2D22D2
06EE60
ENDCHAR
STARTCHAR uni1ED3
ENCODING 7891
SWIDTH 501 0
DWIDTH 5 0
BBX 6 9 -1 0
BITMAP
1C0000
086E30
00B4A0
000000
01BEB1
069196
085058
069196
01BEB1
ENDCHAR
STARTCHAR uni1ED4
ENCODING 7892
SWIDTH 600 0
DWIDTH 6 0
BBX 6 12 0 0
BITMAP
000081
000083
00BBA0
047750
000000
06EE60
2D22D2
580085
680086
580085
2D22D2
06EE60
ENDCHAR
STARTCHAR uni1ED5
ENCODING 7893
SWIDTH 501 0
DWIDTH 5 0
BBX 5 10 0 0
BITMAP
000360
000290
05DA40
0B2A00
000000
1BEB10
691960
850580
691960
1BEB10
ENDCHAR
STARTCHAR uni1ED6
ENCODING 7894
SWIDTH 600 0
DWIDTH 6 0
BBX 6 12 0 0
BITMAP
00B600
016B00
00AA00
047740
000000
06EE60
2D22D2
580085
680086
580085
2D22D2
06EE60
ENDCHAR
STARTCHAR uni1ED7
ENCODING 7895
SWIDTH 501 0
DWIDTH 5 0
BBX 5 10 0 0
BITMAP
067500
059400
04D300
0B2A00
000000
1BEB10
691960
850580
691960
1BEB10
ENDCHAR
STARTCHAR uni1ED8
ENCODING 7896
SWIDTH 600 0
DWIDTH 6 0
BBX 6 12 0 -2
BITMAP
009900
019920
000000
06EE60
2D22D2
580085
680086
580085
2D22D2
06EE60
000000
006600
ENDCHAR
STARTCHAR uni1ED9
ENCODING 7897
SWIDTH 501 0
DWIDTH 5 0
BBX 5 10 0 -2
BITMAP
03D200
085700
000000
1BEB10
691960
850580
691960
1BEB10
000000
00C000
ENDCHAR
STARTCHAR uni1EDA
ENCODING 7898
SWIDTH 592 0
DWIDTH 6 0
BBX 6 10 0 0
BITMAP
001D30
004800
000004
07EC3C
3D23E6
7700A2
860094
7700A4
3D23E1
07ED50
ENDCHAR
STARTCHAR uni1EDB
ENCODING 7899
SWIDTH 502 0
DWIDTH 5 0
BBX 5 8 0 0
BITMAP
006B00
00A200
000010
0AE7A0
5A1AA0
850570
5A1A70
0AEB10
ENDCHAR
STARTCHAR uni1EDC
ENCODING 7900
SWIDTH 592 0
DWIDTH 6 0
BBX 6 10 0 0
BITMAP
04C000
009300
000004
07EC3C
3D23E6
7700A2
860094
7700A4
3D23E1
07ED50
ENDCHAR
STARTCHAR uni1EDD
ENCODING 7901
SWIDTH 502 0
DWIDTH 5 0
BBX 5 8 0 0
BITMAP
0B6000
02A000
000010
0AE7A0
5A1AA0
850570
5A1A70
0AEB10
ENDCHAR
STARTCHAR uni1EDE
ENCODING 7902
SWIDTH 592 0
DWIDTH 6 0
BBX 6 11 0 0
BITMAP
005800
001B00
005700
000004
07EC3C
3D23E6
7700A2
860094
7700A4
3D23E1
07ED50
ENDCHAR
STARTCHAR uni1EDF
ENCODING 7903
SWIDTH 502 0
DWIDTH 5 0
BBX 5 9 0 0
BITMAP
00C200
006500
00B100
000010
0AE7A0
5A1AA0
850570
5A1A70
0AEB10
ENDCHAR
STARTCHAR uni1EE0
ENCODING 7904
SWIDTH 592 0
DWIDTH 6 0
BBX 6 10 0 0
BITMAP
03D560
074D20
000004
07EC3C
3D23E6
7700A2
860094
7700A4
3D23E1
07ED50
ENDCHAR
STARTCHAR uni1EE1
ENCODING 7905
SWIDTH 502 0
DWIDTH 5 0
BBX 5 8 0 0
BITMAP
0A7900
098900
000010
0AE7A0
5A1AA0
850570
5A1A70
0AEB10
ENDCHAR
STARTCHAR uni1EE2
ENCODING 7906
SWIDTH 592 0
DWIDTH 6 0
BBX 6 10 0 -2
BITMAP
000004
07EC3C
3D23E6
7700A2
860094
7700A4
3D23E1
07ED50
000000
008500
ENDCHAR
STARTCHAR uni1EE3
ENCODING 7907
SWIDTH 502 0
DWIDTH 5 0
BBX 5 8 0 -2
BITMAP
000010
0AE7A0
5A1AA0
850570
5A1A70
0AEB10
000000
00C000
ENDCHAR
STARTCHAR uni1EE4
ENCODING 7908
SWIDTH 561 0
DWIDTH 6 0
BBX 5 9 0 -2
BITMAP
5800D0
5800D0
5800D0
5800D0
5800D0
4C13D0
09ED50
000000
009300
ENDCHAR
STARTCHAR uni1EE5
ENCODING 7909
SWIDTH 483 0
DWIDTH 5 0
BBX 5 7 0 -2
BITMAP
670A30
670A30
670A30
591C30
1DED30
000000
048000
ENDCHAR
STARTCHAR uni1EE6
ENCODING 7910
SWIDTH 561 0
DWIDTH 6 0
BBX 5 11 0 0
BITMAP
008600
001A00
007400
000000
5800D0
5800D0
5800D0
5800D0
5800D0
4C13D0
09ED50
ENDCHAR
STARTCHAR uni1EE7
ENCODING 7911
SWIDTH 483 0
DWIDTH 5 0
BBX 5 9 0 0
BITMAP
00C200
007400
00B100
000000
670A30
670A30
670A30
591C30
1DED30
ENDCHAR
STARTCHAR uni1EE8
ENCODING 7912
SWIDTH 608 0
DWIDTH 6 0
BBX 7 10 0 0
BITMAP
001D3000
00480000
00000140
5800D670
5800DC10
5800D000
5800D000
5800E000
3C14D000
08ED4000
ENDCHAR
STARTCHAR uni1EE9
ENCODING 7913
SWIDTH 549 0
DWIDTH 6 0
BBX 6 8 0 0
BITMAP
006A00
00B100
000000
670A77
670AD2
670A30
591C30
1DED30
ENDCHAR
STARTCHAR uni1EEA
ENCODING 7914
SWIDTH 608 0
DWIDTH 6 0
BBX 7 10 0 0
BITMAP
04C00000
00940000
00000140
5800D670
5800DC10
5800D000
5800D000
5800E000
3C14D000
08ED4000
ENDCHAR
STARTCHAR uni1EEB
ENCODING 7915
SWIDTH 549 0
DWIDTH 6 0
BBX 6 8 0 0
BITMAP
0B5000
02A000
000000
670A77
670AD2
670A30
591C30
1DED30
ENDCHAR
STARTCHAR uni1EEC
ENCODING 7916
SWIDTH 608 0
DWIDTH 6 0
BBX 7 11 0 0
BITMAP
00580000
001B0000
00570000
00000140
5800D670
5800DC10
5800D000
5800D000
5800E000
3C14D000
08ED4000
ENDCHAR
STARTCHAR uni1EED
ENCODING 7917
SWIDTH 549 0
DWIDTH 6 0
BBX 6 9 0 0
BITMAP
00C200
006500
00B100
000000
670A77
670AD2
670A30
591C30
1DED30
ENDCHAR
STARTCHAR uni1EEE
ENCODING 7918
SWIDTH 608 0
DWIDTH 6 0
BBX 7 10 0 0
BITMAP
03D56000
074D2000
00000140
5800D670
5800DC10
5800D000
5800D000
5800E000
3C14D000
08ED4000
ENDCHAR
STARTCHAR uni1EEF
ENCODING 7919
SWIDTH 549 0
DWIDTH 6 0
BBX 6 8 0 0
BITMAP
0A7900
098900
000000
670A77
670AD2
670A30
591C30
1DED30
ENDCHAR
STARTCHAR uni1EF0
ENCODING 7920
SWIDTH 608 0
DWIDTH 6 0
BBX 7 10 0 -2
BITMAP
00000140
5800D670
5800DC10
5800D000
5800D000
5800E000
3C14D000
08ED4000
00000000
00750000
ENDCHAR
STARTCHAR uni1EF1
ENCODING 7921
SWIDTH 549 0
DWIDTH 6 0
BBX 6 7 0 -2
BITMAP
670A77
670AD2
670A30
591C30
1DED30
000000
01B000
ENDCHAR
STARTCHAR Ygrave
ENCODING 7922
SWIDTH 524 0
DWIDTH 5 0
BBX 5 10 0 0
BITMAP
088000
01B000
000000
9502D0
3C0860
0B3C00
04D700
00D100
00C100
00C100
ENDCHAR
STARTCHAR ygrave
ENCODING 7923
SWIDTH 416 0
DWIDTH 4 0
BBX 4 10 0 -2
BITMAP
1D20
0660
0000
A41C
5858
1B93
0AC0
0690
0940
8B00
ENDCHAR
STARTCHAR uni1EF4
ENCODING 7924
SWIDTH 524 0
DWIDTH 5 0
BBX 5 9 0 -2
BITMAP
9502D0
3C0860
0B3C00
04D700
00D100
00C100
00C100
000000
00B100
ENDCHAR
STARTCHAR uni1EF5
ENCODING 7925
SWIDTH 416 0
DWIDTH 4 0
BBX 4 8 0 -3
BITMAP
A41C
5858
1B93
0AC0
0690
0940
8B00
0066
ENDCHAR
STARTCHAR uni1EF6
ENCODING 7926
SWIDTH 524 0
DWIDTH 5 0
BBX 5 11 0 0
BITMAP
00A400
004800
00A200
000000
9502D0
3C0860
0B3C00
04D700
00D100
00C100
00C100
ENDCHAR
STARTCHAR uni1EF7
ENCODING 7927
SWIDTH 416 0
DWIDTH 4 0
BBX 4 11 0 -2
BITMAP
03B0
00B1
02A0
0000
A41C
5858
1B93
0AC0
0690
0940
8B00
ENDCHAR
STARTCHAR uni1EF8
ENCODING 7928
SWIDTH 524 0
DWIDTH 5 0
BBX 5 10 0 0
BITMAP
079810
096B00
000000
9502D0
3C0860
0B3C00
04D700
00D100
00C100
00C100
ENDCHAR
STARTCHAR uni1EF9
ENCODING 7929
SWIDTH 416 0
DWIDTH 4 0
BBX 4 10 0 -2
BITMAP
1D39
46C5
0000
A41C
5858
1B93
0AC0
0690
0940
8B00
ENDCHAR
STARTCHAR uni1F4D
ENCODING 8013
SWIDTH 634 0
DWIDTH 6 0
BBX 8 8 -2 0
BITMAP
B6700000
8813CEA1
000C5197
000D003A
001D002B
000D003A
000C5197
0003CEA1
ENDCHAR
STARTCHAR uni2000
ENCODING 8192
SWIDTH 447 0
DWIDTH 4 0
BBX 1 1 0 0
BITMAP
00
ENDCHAR
STARTCHAR uni2001
ENCODING 8193
SWIDTH 876 0
DWIDTH 9 0
BBX 1 1 0 0
BITMAP
00
ENDCHAR
STARTCHAR uni2002
ENCODING 8194
SWIDTH 447 0
DWIDTH 4 0
BBX 1 1 0 0
BITMAP
00
ENDCHAR
STARTCHAR uni2003
ENCODING 8195
SWIDTH 876 0
DWIDTH 9 0
BBX 1 1 0 0
BITMAP
00
ENDCHAR
STARTCHAR uni2004
ENCODING 8196
SWIDTH 305 0
DWIDTH 3 0
BBX 1 1 0 0
BITMAP
00
ENDCHAR
STARTCHAR uni2005
ENCODING 8197
SWIDTH 233 0
DWIDTH 2 0
BBX 1 1 0 0
BITMAP
00
ENDCHAR
STARTCHAR uni2006
ENCODING 8198
SWIDTH 162 0
DWIDTH 2 0
BBX 1 1 0 0
BITMAP
00
ENDCHAR
STARTCHAR uni2007
ENCODING 8199
SWIDTH 491 0
DWIDTH 5 0
BBX 1 1 0 0
BITMAP
00
ENDCHAR
STARTCHAR uni2008
ENCODING 8200
SWIDTH 249 0
DWIDTH 2 0
BBX 1 1 0 0
BITMAP
00
ENDCHAR
STARTCHAR uni2009
ENCODING 8201
SWIDTH 190 0
DWIDTH 2 0
BBX 1 1 0 0
BITMAP
00
ENDCHAR
STARTCHAR uni200A
ENCODING 8202
SWIDTH 105 0
DWIDTH 1 0
BBX 1 1 0 0
BITMAP
00
ENDCHAR
STARTCHAR uni200B
ENCODING 8203
SWIDTH 0 0
DWIDTH 0 0
BBX 1 1 0 0
BITMAP
00
ENDCHAR
STARTCHAR uni2010
ENCODING 8208
SWIDTH 248 0
DWIDTH 2 0
BBX 3 1 0 2
BITMAP
CF40
ENDCHAR
STARTCHAR uni2011
ENCODING 8209
SWIDTH 248 0
DWIDTH 2 0
BBX 3 1 0 2
BITMAP
CF40
ENDCHAR
STARTCHAR endash
ENCODING 8211
SWIDTH 572 0
DWIDTH 6 0
BBX 5 1 0 3
BITMAP
3FFFE0
ENDCHAR
STARTCHAR emdash
ENCODING 8212
SWIDTH 678 0
DWIDTH 7 0
BBX 7 1 0 3
BITMAP
3FFFFF40
ENDCHAR
STARTCHAR uni2015
ENCODING 8213
SWIDTH 678 0
DWIDTH 7 0
BBX 7 1 0 3
BITMAP
3FFFFF40
ENDCHAR
STARTCHAR underscoredbl
ENCODING 8215
SWIDTH 402 0
DWIDTH 4 0
BBX 4 3 0 -3
BITMAP
DFFE
0000
DFFE
ENDCHAR
STARTCHAR quoteleft
ENCODING 8216
SWIDTH 194 0
DWIDTH 2 0
BBX 2 2 0 6
BITMAP
28
75
ENDCHAR
STARTCHAR quoteright
ENCODING 8217
SWIDTH 194 0
DWIDTH 2 0
BBX 2 3 0 5
BITMAP
58
66
81
ENDCHAR
STARTCHAR quotesinglbase
ENCODING 8218
SWIDTH 194 0
DWIDTH 2 0
BBX 2 2 0 -1
BITMAP
67
82
ENDCHAR
STARTCHAR quotereversed
ENCODING 8219
SWIDTH 194 0
DWIDTH 2 0
BBX 2 2 0 6
BITMAP
94
47
ENDCHAR
STARTCHAR quotedblleft
ENCODING 8220
SWIDTH 333 0
DWIDTH 3 0
BBX 4 2 0 6
BITMAP
2891
77C0
ENDCHAR
STARTCHAR quotedblright
ENCODING 8221
SWIDTH 337 0
DWIDTH 3 0
BBX 3 3 0 5
BITMAP
49D0
57C0
7470
ENDCHAR
STARTCHAR quotedblbase
ENCODING 8222
SWIDTH 326 0
DWIDTH 3 0
BBX 3 3 0 -1
BITMAP
1220
68B0
8660
ENDCHAR
STARTCHAR dagger
ENCODING 8224
SWIDTH 482 0
DWIDTH 5 0
BBX 5 7 0 0
BITMAP
00D000
00D000
9FFF70
00D000
00D000
00D000
00D000
ENDCHAR
STARTCHAR daggerdbl
ENCODING 8225
SWIDTH 500 0
DWIDTH 5 0
BBX 5 9 0 -2
BITMAP
00D000
00D000
8FFF80
00D000
00D000
00D000
8FFF80
00D000
00D000
ENDCHAR
STARTCHAR bullet
ENCODING 8226
SWIDTH 336 0
DWIDTH 3 0
BBX 3 3 0 2
BITMAP
3E70
3F80
0100
ENDCHAR
STARTCHAR twodotenleader
ENCODING 8229
SWIDTH 420 0
DWIDTH 4 0
BBX 4 1 0 0
BITMAP
3A58
ENDCHAR
STARTCHAR ellipsis
ENCODING 8230
SWIDTH 590 0
DWIDTH 6 0
BBX 6 1 0 0
BITMAP
3A5894
ENDCHAR
STARTCHAR uni2027
ENCODING 8231
SWIDTH 181 0
DWIDTH 2 0
BBX 2 1 0 3
BITMAP
74
ENDCHAR
STARTCHAR perthousand
ENCODING 8240
SWIDTH 818 0
DWIDTH 8 0
BBX 8 7 0 0
BITMAP
5E700000
92B17000
5E781000
00460000
0094EBE7
06383C2A
0004EBE7
ENDCHAR
STARTCHAR minute
ENCODING 8242
SWIDTH 174 0
DWIDTH 2 0
BBX 2 2 0 6
BITMAP
73
73
ENDCHAR
STARTCHAR second
ENCODING 8243
SWIDTH 319 0
DWIDTH 3 0
BBX 3 3 0 5
BITMAP
56A0
5590
5480
ENDCHAR
STARTCHAR guilsinglleft
ENCODING 8249
SWIDTH 271 0
DWIDTH 3 0
BBX 3 4 0 1
BITMAP
0820
3900
3900
0820
ENDCHAR
STARTCHAR guilsinglright
ENCODING 8250
SWIDTH 271 0
DWIDTH 3 0
BBX 3 4 0 1
BITMAP
4600
0B10
0B10
4600
ENDCHAR
STARTCHAR exclamdbl
ENCODING 8252
SWIDTH 491 0
DWIDTH 5 0
BBX 5 7 0 0
BITMAP
3A0B20
3A0B20
3A0B20
3A0B10
290A10
000000
290A20
ENDCHAR
STARTCHAR fraction
ENCODING 8260
SWIDTH 403 0
DWIDTH 4 0
BBX 4 5 0 1
BITMAP
0027
0091
0450
1900
6200
ENDCHAR
STARTCHAR uni2074
ENCODING 8308
SWIDTH 329 0
DWIDTH 3 0
BBX 3 4 0 3
BITMAP
0880
3980
AFF0
0280
ENDCHAR
STARTCHAR uni207F
ENCODING 8319
SWIDTH 374 0
DWIDTH 4 0
BBX 4 4 0 3
BITMAP
6CD1
67A3
6684
6684
ENDCHAR
STARTCHAR franc
ENCODING 8355
SWIDTH 480 0
DWIDTH 5 0
BBX 5 7 0 0
BITMAP
4FFF70
4A0000
4A0000
4FFF10
4A0000
FFC000
4A0000
ENDCHAR
STARTCHAR lira
ENCODING 8356
SWIDTH 510 0
DWIDTH 5 0
BBX 5 7 0 0
BITMAP
05ED20
0D3790
0E0000
8FF600
8FF600
0D0000
8FFFC0
ENDCHAR
STARTCHAR uni20A6
ENCODING 8358
SWIDTH 691 0
DWIDTH 7 0
BBX 7 7 0 0
BITMAP
0D502C00
0DC12C00
CFFFFFB0
0D1C2C00
CFFFFFB0
0D02DC00
0D007C00
ENDCHAR
STARTCHAR peseta
ENCODING 8359
SWIDTH 709 0
DWIDTH 7 0
BBX 7 7 0 0
BITMAP
4FE80000
491C5A00
490AFF70
491C5A00
4FF83A00
49003A00
49001E60
ENDCHAR
STARTCHAR uni20A8
ENCODING 8360
SWIDTH 911 0
DWIDTH 9 0
BBX 9 7 0 0
BITMAP
4FFD400000
4A04C00000
4A04C6ED30
4FFE3B7440
4A0D12BD30
4A07872690
4A01D7ED30
ENDCHAR
STARTCHAR uni20A9
ENCODING 8361
SWIDTH 634 0
DWIDTH 6 0
BBX 7 7 0 0
BITMAP
945A0D00
677C2B00
CFFFFF20
1BA97600
CFFFFF20
0BA5E100
0883D000
ENDCHAR
STARTCHAR uni20AA
ENCODING 8362
SWIDTH 669 0
DWIDTH 7 0
BBX 7 5 0 0
BITMAP
5FFD2C10
58086C10
58C87C10
58C11E00
58CFF900
ENDCHAR
STARTCHAR dong
ENCODING 8363
SWIDTH 510 0
DWIDTH 5 0
BBX 6 10 0 -2
BITMAP
000940
009FF1
000940
1CED40
691B40
850940
681B40
1CEC40
000000
4FFF90
ENDCHAR
STARTCHAR Euro
ENCODING 8364
SWIDTH 493 0
DWIDTH 5 0
BBX 5 7 0 0
BITMAP
02CE50
0A6110
8FF900
0C2000
8FF900
0A5110
03CE50
ENDCHAR
STARTCHAR uni20B1
ENCODING 8369
SWIDTH 648 0
DWIDTH 6 0
BBX 7 7 0 0
BITMAP
0FFE6000
0D02E100
CFFFFF40
0D007600
CFFFFC30
0FFFA000
0D000000
ENDCHAR
STARTCHAR uni20B9
ENCODING 8377
SWIDTH 462 0
DWIDTH 5 0
BBX 5 7 0 0
BITMAP
AFFF40
01A600
AFFF40
01A700
AFB100
2C2000
02C300
ENDCHAR
STARTCHAR uni20BA
ENCODING 8378
SWIDTH 500 0
DWIDTH 5 0
BBX 5 7 0 0
BITMAP
0B2000
0BB300
8F6000
4BB880
8F6770
4B4D30
0BE700
ENDCHAR
STARTCHAR uni20BC
ENCODING 8380
SWIDTH 575 0
DWIDTH 6 0
BBX 6 5 0 0
BITMAP
008400
07FE40
3C97D1
7684A3
858484
ENDCHAR
STARTCHAR uni20BD
ENCODING 8381
SWIDTH 583 0
DWIDTH 6 0
BBX 6 7 0 0
BITMAP
0EFFA0
0D00A5
0D00A5
CFFFA0
0D0000
CFF400
0D0000
ENDCHAR
STARTCHAR uni2105
ENCODING 8453
SWIDTH 640 0
DWIDTH 6 0
BBX 6 7 0 0
BITMAP
2EA000
653180
2EA820
003700
0095E8
05493B
0004E8
ENDCHAR
STARTCHAR uni2113
ENCODING 8467
SWIDTH 422 0
DWIDTH 4 0
BBX 4 8 0 0
BITMAP
04E6
097B
0A6A
0AA7
0AE1
7F40
0960
03D1
ENDCHAR
STARTCHAR uni2116
ENCODING 8470
SWIDTH 886 0
DWIDTH 9 0
BBX 9 7 0 0
BITMAP
4D00C3DC00
4E50C85940
4AA0C85940
4993C3DC10
4939C00000
490BC6FF20
4905C00000
ENDCHAR
STARTCHAR trademark
ENCODING 8482
SWIDTH 547 0
DWIDTH 5 0
BBX 5 3 0 4
BITMAP
7FA280
067860
066760
ENDCHAR
STARTCHAR Omega
ENCODING 8486
SWIDTH 581 0
DWIDTH 6 0
BBX 6 7 0 0
BITMAP
07ED40
3D24D0
6800C2
6700B2
4800C1
090280
6F9DF2
ENDCHAR
STARTCHAR estimated
ENCODING 8494
SWIDTH 636 0
DWIDTH 6 0
BBX 6 5 0 0
BITMAP
03CE90
1E2076
3FFFFA
1E2020
04DEA1
ENDCHAR
STARTCHAR oneeighth
ENCODING 8539
SWIDTH 666 0
DWIDTH 7 0
BBX 7 7 0 0
BITMAP
2B000000
8E026000
0B091000
0B56EC00
0192CB00
0723AC10
0002EC00
ENDCHAR
STARTCHAR threeeighths
ENCODING 8540
SWIDTH 736 0
DWIDTH 7 0
BBX 7 7 0 0
BITMAP
3CB00000
0AA05300
11C19000
4E988E70
00376C70
00809890
00006E70
ENDCHAR
STARTCHAR fiveeighths
ENCODING 8541
SWIDTH 736 0
DWIDTH 7 0
BBX 7 7 0 0
BITMAP
4FB00000
6E907200
22C28000
4E897E60
00557C70
00809890
00006E70
ENDCHAR
STARTCHAR seveneighths
ENCODING 8542
SWIDTH 692 0
DWIDTH 7 0
BBX 7 7 0 0
BITMAP
8FF00000
01908000
07473000
0B28AE20
0091BC30
0450CA50
0000BE30
ENDCHAR
STARTCHAR partialdiff
ENCODING 8706
SWIDTH 497 0
DWIDTH 5 0
BBX 5 7 0 0
BITMAP
1DE600
021C20
0AEC60
5A1970
760660
4A1B30
0AE900
ENDCHAR
STARTCHAR Delta
ENCODING 8710
SWIDTH 614 0
DWIDTH 6 0
BBX 6 7 0 0
BITMAP
007A00
00CC10
03A850
0842A0
0C00C1
480075
9FFFFA
ENDCHAR
STARTCHAR product
ENCODING 8719
SWIDTH 614 0
DWIDTH 6 0
BBX 6 8 0 -1
BITMAP
3FFFF5
3A0085
3A0085
3A0085
3A0085
3A0085
3A0085
3A0085
ENDCHAR
STARTCHAR summation
ENCODING 8721
SWIDTH 513 0
DWIDTH 5 0
BBX 5 8 0 -1
BITMAP
9FFFA0
3B0000
059000
008600
007700
059000
3B0000
9FFFF0
ENDCHAR
STARTCHAR minus
ENCODING 8722
SWIDTH 499 0
DWIDTH 5 0
BBX 5 1 0 3
BITMAP
3FFF30
ENDCHAR
STARTCHAR radical
ENCODING 8730
SWIDTH 536 0
DWIDTH 5 0
BBX 5 7 0 0
BITMAP
0000D0
000490
000940
AE0C00
0A6A00
05E500
01E000
ENDCHAR
STARTCHAR infinity
ENCODING 8734
SWIDTH 874 0
DWIDTH 9 0
BBX 9 5 0 0
BITMAP
09E91CE600
5A1AD62D10
8503D00A30
5A1AD62D10
09E91CE500
ENDCHAR
STARTCHAR integral
ENCODING 8747
SWIDTH 235 0
DWIDTH 2 0
BBX 4 10 -1 -2
BITMAP
00BB
02C0
03A0
03A0
03A0
03A0
03A0
03A0
0590
2E50
ENDCHAR
STARTCHAR approxequal
ENCODING 8776
SWIDTH 492 0
DWIDTH 5 0
BBX 5 4 0 1
BITMAP
4E7230
428E30
4E7230
428E30
ENDCHAR
STARTCHAR notequal
ENCODING 8800
SWIDTH 479 0
DWIDTH 5 0
BBX 5 7 0 0
BITMAP
000100
001800
4FFF20
008000
4FFF20
080000
010000
ENDCHAR
STARTCHAR lessequal
ENCODING 8804
SWIDTH 445 0
DWIDTH 4 0
BBX 4 5 0 0
BITMAP
0178
6B40
29A4
0015
AFFC
ENDCHAR
STARTCHAR greaterequal
ENCODING 8805
SWIDTH 460 0
DWIDTH 5 0
BBX 5 5 0 0
BITMAP
493000
017B10
17A600
340000
5FFF10
ENDCHAR
STARTCHAR lozenge
ENCODING 9674
SWIDTH 442 0
DWIDTH 4 0
BBX 5 7 0 0
BITMAP
05C000
0BA400
492A00
A40C10
492A00
0BA400
05C000
ENDCHAR
STARTCHAR uniEE01
ENCODING 60929
SWIDTH 271 0
DWIDTH 3 0
BBX 2 5 0 1
BITMAP
1C
00
00
00
1C
ENDCHAR
STARTCHAR uniEE02
ENCODING 60930
SWIDTH 298 0
DWIDTH 3 0
BBX 3 2 0 3
BITMAP
7580
7580
ENDCHAR
STARTCHAR uniF6C3
ENCODING 63171
SWIDTH 235 0
DWIDTH 2 0
BBX 2 2 0 -1
BITMAP
48
63
ENDCHAR
STARTCHAR uniFB01
ENCODING 64257
SWIDTH 489 0
DWIDTH 5 0
BBX 5 8 0 0
BITMAP
07E800
0D1100
2B0000
CF9B20
2B0B20
2B0B20
2B0B20
2B0B20
ENDCHAR
STARTCHAR uniFB02
ENCODING 64258
SWIDTH 503 0
DWIDTH 5 0
BBX 5 8 0 0
BITMAP
06ED30
0D2940
0D0840
AFC840
0D0840
0D0840
0D0840
0D0840
ENDCHAR
STARTCHAR uniFB03
ENCODING 64259
SWIDTH 744 0
DWIDTH 7 0
BBX 7 8 0 0
BITMAP
06E2CE30
0D278110
0D085000
AFFFF5B0
0D0842B0
0D0842B0
0D0842B0
0D0842B0
ENDCHAR
STARTCHAR uniFB04
ENCODING 64260
SWIDTH 744 0
DWIDTH 7 0
BBX 7 8 0 0
BITMAP
06E2DE80
0D2773B0
0D0842B0
AFFFF5B0
0D0842B0
0D0842B0
0D0842B0
0D0842B0
ENDCHAR
STARTCHAR uniFEFF
ENCODING 65279
SWIDTH 0 0
DWIDTH 0 0
BBX 1 1 0 0
BITMAP
00
ENDCHAR
STARTCHAR uniFFFC
ENCODING 65532
SWIDTH 1024 0
DWIDTH 10 0
BBX 10 9 0 -2
BITMAP
8E7E8D8C9E
0000000000
8000000008
01DBAE3070
8358AF4378
01DBAF4C70
8000000008
0000000000
8E7E8D8C9E
ENDCHAR
STARTCHAR uniFFFD
ENCODING 65533
SWIDTH 1025 0
DWIDTH 10 0
BBX 10 10 0 -2
BITMAP
0000590000
0004FF8000
004FFFF700
03ED33AF60
2EFED87FF5
2EFFB4EFF5
03EFFFFF60
004F87F700
0004FF8000
0000590000
ENDCHAR
STARTCHAR .notdef
ENCODING -1
SWIDTH 392 0
DWIDTH 4 0
BBX 4 7 0 0
BITMAP
6FF5
3013
3223
3423
3223
3013
6FF5
ENDCHAR
STARTCHAR glyph369
ENCODING -1
SWIDTH 364 0
DWIDTH 4 0
BBX 4 2 0 6
BITMAP
66C1
2870
ENDCHAR
STARTCHAR uni2009.locl
ENCODING -1
SWIDTH 124 0
DWIDTH 1 0
BBX 1 1 0 0
BITMAP
00
ENDCHAR
STARTCHAR f_f.dlig
ENCODING -1
SWIDTH 546 0
DWIDTH 5 0
BBX 6 8 0 0
BITMAP
06E3D5
0D2860
0D0A30
AFFFF2
0D0A30
0D0A30
0D0A30
0D0A30
ENDCHAR
STARTCHAR longs_t.dlig
ENCODING -1
SWIDTH 544 0
DWIDTH 5 0
BBX 5 9 0 -1
BITMAP
07EB10
0D2B30
0D0A30
AD7FF0
0D0A30
0D0A30
0D0A40
0D06E0
070000
ENDCHAR
STARTCHAR s_t.dlig
ENCODING -1
SWIDTH 710 0
DWIDTH 7 0
BBX 7 8 0 0
BITMAP
000AE500
003B3C00
003A0D00
1CEDBFB0
4B280D00
06C60D00
561E0D10
1CE90AA0
ENDCHAR
STARTCHAR two.dnom
ENCODING -1
SWIDTH 329 0
DWIDTH 3 0
BBX 3 4 0 0
BITMAP
5E80
3390
2A10
9FE0
ENDCHAR
STARTCHAR one.dnom
ENCODING -1
SWIDTH 329 0
DWIDTH 3 0
BBX 3 4 0 0
BITMAP
1930
6E30
0830
0830
ENDCHAR
STARTCHAR zero.dnom
ENCODING -1
SWIDTH 329 0
DWIDTH 3 0
BBX 3 4 0 0
BITMAP
4E70
84B0
84B0
4E80
ENDCHAR
STARTCHAR nine.c2sc
ENCODING -1
SWIDTH 447 0
DWIDTH 4 0
BBX 4 6 0 0
BITMAP
1CE4
783C
772D
2DDC
0069
0BB1
ENDCHAR
STARTCHAR eight.c2sc
ENCODING -1
SWIDTH 447 0
DWIDTH 4 0
BBX 4 6 0 0
BITMAP
2CE7
5A3C
0DF6
582C
792D
1CE6
ENDCHAR
STARTCHAR seven.c2sc
ENCODING -1
SWIDTH 447 0
DWIDTH 4 0
BBX 5 6 0 0
BITMAP
AFFF10
001B00
007500
00C000
058000
0C2000
ENDCHAR
STARTCHAR six.c2sc
ENCODING -1
SWIDTH 447 0
DWIDTH 4 0
BBX 4 6 0 0
BITMAP
06D4
2C20
6DE8
791E
5A1D
0BE6
ENDCHAR
STARTCHAR five.c2sc
ENCODING -1
SWIDTH 447 0
DWIDTH 4 0
BBX 4 6 0 0
BITMAP
0FFD
2B00
3EE8
001D
491E
0BE7
ENDCHAR
STARTCHAR four.c2sc
ENCODING -1
SWIDTH 447 0
DWIDTH 4 0
BBX 5 6 0 0
BITMAP
00A800
03D800
0B7800
575800
BFFF30
005800
ENDCHAR
STARTCHAR three.c2sc
ENCODING -1
SWIDTH 447 0
DWIDTH 4 0
BBX 4 6 0 0
BITMAP
2CE6
664C
07F5
002C
763D
2DE5
ENDCHAR
STARTCHAR two.c2sc
ENCODING -1
SWIDTH 447 0
DWIDTH 4 0
BBX 5 6 0 0
BITMAP
2CE600
663D00
003A00
02C200
1C3000
7FFF20
ENDCHAR
STARTCHAR one.c2sc
ENCODING -1
SWIDTH 447 0
DWIDTH 4 0
BBX 3 6 0 0
BITMAP
06B0
4AD0
00D0
00D0
00D0
00D0
ENDCHAR
STARTCHAR zero.c2sc
ENCODING -1
SWIDTH 447 0
DWIDTH 4 0
BBX 4 6 0 0
BITMAP
1BE5
592C
760D
760D
592C
1BE5
ENDCHAR
STARTCHAR Z.c2sc
ENCODING -1
SWIDTH 454 0
DWIDTH 5 0
BBX 5 6 0 0
BITMAP
9FFF10
004A00
01C100
085000
3A0000
9FFF30
ENDCHAR
STARTCHAR Y.c2sc
ENCODING -1
SWIDTH 458 0
DWIDTH 5 0
BBX 5 6 0 0
BITMAP
A50B30
3B2B00
0BB500
05D000
02B000
02B000
ENDCHAR
STARTCHAR X.c2sc
ENCODING -1
SWIDTH 478 0
DWIDTH 5 0
BBX 5 6 0 0
BITMAP
780C30
0D5A00
06E300
06E300
1D4B00
780B40
ENDCHAR
STARTCHAR W.c2sc
ENCODING -1
SWIDTH 655 0
DWIDTH 7 0
BBX 7 6 0 0
BITMAP
933C0930
666E0C10
39983C00
0BA38900
0B90D600
0960C300
ENDCHAR
STARTCHAR V.c2sc
ENCODING -1
SWIDTH 487 0
DWIDTH 5 0
BBX 5 6 0 0
BITMAP
A30580
580940
1B0C00
0B4900
07C500
02E100
ENDCHAR
STARTCHAR U.c2sc
ENCODING -1
SWIDTH 488 0
DWIDTH 5 0
BBX 5 6 0 0
BITMAP
760850
760850
760850
760850
691B40
1BEA00
ENDCHAR
STARTCHAR T.c2sc
ENCODING -1
SWIDTH 456 0
DWIDTH 5 0
BBX 5 6 0 0
BITMAP
BFFF40
02B000
02B000
02B000
02B000
02B000
ENDCHAR
STARTCHAR S.c2sc
ENCODING -1
SWIDTH 453 0
DWIDTH 5 0
BBX 5 6 0 0
BITMAP
1CE700
681C10
3E9200
017D00
871D20
1BE900
ENDCHAR
STARTCHAR R.c2sc
ENCODING -1
SWIDTH 465 0
DWIDTH 5 0
BBX 5 6 0 0
BITMAP
5FFA00
581C30
581C20
5FF900
583B00
580B30
ENDCHAR
STARTCHAR Q.c2sc
ENCODING -1
SWIDTH 519 0
DWIDTH 5 0
BBX 5 7 0 -1
BITMAP
09EA10
5B1970
8503A0
850390
5A1960
09EE10
000560
ENDCHAR
STARTCHAR P.c2sc
ENCODING -1
SWIDTH 481 0
DWIDTH 5 0
BBX 5 6 0 0
BITMAP
5FFB10
580960
580960
5FFB10
580000
580000
ENDCHAR
STARTCHAR O.c2sc
ENCODING -1
SWIDTH 519 0
DWIDTH 5 0
BBX 5 6 0 0
BITMAP
09EB10
4B1870
7503A0
7603A0
4B1870
09EB10
ENDCHAR
STARTCHAR N.c2sc
ENCODING -1
SWIDTH 533 0
DWIDTH 5 0
BBX 5 6 0 0
BITMAP
5B03A0
5E43A0
58B3A0
5877A0
581DA0
5806A0
ENDCHAR
STARTCHAR M.c2sc
ENCODING -1
SWIDTH 652 0
DWIDTH 7 0
BBX 6 6 0 0
BITMAP
5E006D
5E30BC
5A81BC
57C56C
588D1D
583B0D
ENDCHAR
STARTCHAR L.c2sc
ENCODING -1
SWIDTH 411 0
DWIDTH 4 0
BBX 4 6 0 0
BITMAP
5800
5800
5800
5800
5800
5FFD
ENDCHAR
STARTCHAR K.c2sc
ENCODING -1
SWIDTH 473 0
DWIDTH 5 0
BBX 5 6 0 0
BITMAP
580C30
589700
5CC000
5DC300
584B00
580A60
ENDCHAR
STARTCHAR J.c2sc
ENCODING -1
SWIDTH 419 0
DWIDTH 4 0
BBX 4 6 0 0
BITMAP
0049
0049
0049
0049
7378
4ED2
ENDCHAR
STARTCHAR I.c2sc
ENCODING -1
SWIDTH 221 0
DWIDTH 2 0
BBX 2 6 0 0
BITMAP
58
58
58
58
58
58
ENDCHAR
STARTCHAR H.c2sc
ENCODING -1
SWIDTH 533 0
DWIDTH 5 0
BBX 5 6 0 0
BITMAP
5803A0
5803A0
5FFFA0
5803A0
5803A0
5803A0
ENDCHAR
STARTCHAR G.c2sc
ENCODING -1
SWIDTH 509 0
DWIDTH 5 0
BBX 5 6 0 0
BITMAP
09EB10
5A1850
760000
766F80
4B1680
09ED30
ENDCHAR
STARTCHAR F.c2sc
ENCODING -1
SWIDTH 415 0
DWIDTH 4 0
BBX 4 6 0 0
BITMAP
5FFD
5800
5FF8
5800
5800
5800
ENDCHAR
STARTCHAR dollar.c2sc
ENCODING -1
SWIDTH 453 0
DWIDTH 5 0
BBX 5 10 0 -2
BITMAP
001000
00A000
2CF900
781910
3D9200
017D00
751C20
2CF900
00A000
001000
ENDCHAR
STARTCHAR sterling.c2sc
ENCODING -1
SWIDTH 467 0
DWIDTH 5 0
BBX 5 6 0 0
BITMAP
07E800
0D1D10
1C0100
BFF600
2B0000
6FFF40
ENDCHAR
STARTCHAR yen.c2sc
ENCODING -1
SWIDTH 400 0
DWIDTH 4 0
BBX 4 6 0 0
BITMAP
A33A
4894
0BB0
8FF7
8FF7
0760
ENDCHAR
STARTCHAR Gamma.c2sc
ENCODING -1
SWIDTH 405 0
DWIDTH 4 0
BBX 4 6 0 0
BITMAP
5FFC
5800
5800
5800
5800
5800
ENDCHAR
STARTCHAR Delta.c2sc
ENCODING -1
SWIDTH 487 0
DWIDTH 5 0
BBX 5 6 0 0
BITMAP
02E100
07C500
0B3900
1B0C00
570940
AFFF80
ENDCHAR
STARTCHAR Theta.c2sc
ENCODING -1
SWIDTH 519 0
DWIDTH 5 0
BBX 5 6 0 0
BITMAP
09EB10
4B1870
7AFBA0
7603A0
4B1870
09EB10
ENDCHAR
STARTCHAR Lambda.c2sc
ENCODING -1
SWIDTH 487 0
DWIDTH 5 0
BBX 5 6 0 0
BITMAP
02E100
07C500
0B4900
1B0C00
580A40
A30580
ENDCHAR
STARTCHAR Xi.c2sc
ENCODING -1
SWIDTH 389 0
DWIDTH 4 0
BBX 4 6 0 0
BITMAP
AFF8
0000
6FF4
0000
0000
AFF8
ENDCHAR
STARTCHAR Pi.c2sc
ENCODING -1
SWIDTH 525 0
DWIDTH 5 0
BBX 5 6 0 0
BITMAP
5FFF90
580490
580490
580490
580490
580490
ENDCHAR
STARTCHAR Sigma.c2sc
ENCODING -1
SWIDTH 435 0
DWIDTH 4 0
BBX 5 6 0 0
BITMAP
AFFD00
4B0000
0A6000
0A6000
4B0000
AFFF10
ENDCHAR
STARTCHAR Phi.c2sc
ENCODING -1
SWIDTH 587 0
DWIDTH 6 0
BBX 6 6 0 0
BITMAP
007600
1AFE90
6886A5
6886A5
1AFE90
007600
ENDCHAR
STARTCHAR Psi.c2sc
ENCODING -1
SWIDTH 560 0
DWIDTH 6 0
BBX 6 6 0 0
BITMAP
85A4B2
85A4B2
76A4C1
3BA7C0
08FD30
00A400
ENDCHAR
STARTCHAR Omega.c2sc
ENCODING -1
SWIDTH 540 0
DWIDTH 5 0
BBX 5 6 0 0
BITMAP
09EC20
4C1690
6701C0
5701B0
1B1760
6F8FD0
ENDCHAR
STARTCHAR uni0402.c2sc
ENCODING -1
SWIDTH 596 0
DWIDTH 6 0
BBX 6 6 0 0
BITMAP
BFFF00
058000
05EEC2
05A177
058078
0585C2
ENDCHAR
STARTCHAR uni0404.c2sc
ENCODING -1
SWIDTH 490 0
DWIDTH 5 0
BBX 5 6 0 0
BITMAP
09EB10
581960
7FF100
760000
5B1860
09EB10
ENDCHAR
STARTCHAR uni0409.c2sc
ENCODING -1
SWIDTH 782 0
DWIDTH 8 0
BBX 8 6 0 0
BITMAP
0BFF9000
0B249000
0C14FFB1
0D049096
1D0490A6
B704FFB1
ENDCHAR
STARTCHAR uni040A.c2sc
ENCODING -1
SWIDTH 788 0
DWIDTH 8 0
BBX 8 6 0 0
BITMAP
58049000
58049000
5FFFFFC1
58049086
58049086
5804FFC1
ENDCHAR
STARTCHAR uni040B.c2sc
ENCODING -1
SWIDTH 596 0
DWIDTH 6 0
BBX 6 6 0 0
BITMAP
BFFF00
058000
05EEC2
05A177
058049
058049
ENDCHAR
STARTCHAR uni040F.c2sc
ENCODING -1
SWIDTH 524 0
DWIDTH 5 0
BBX 5 8 0 -2
BITMAP
580490
580490
580490
580490
580490
5FFF90
00C100
00C100
ENDCHAR
STARTCHAR uni0411.c2sc
ENCODING -1
SWIDTH 479 0
DWIDTH 5 0
BBX 5 6 0 0
BITMAP
5FFD00
580000
5FFA00
580A40
580A40
5FFB00
ENDCHAR
STARTCHAR uni0414.c2sc
ENCODING -1
SWIDTH 563 0
DWIDTH 6 0
BBX 6 8 0 -2
BITMAP
08FFB0
0942B0
0932B0
0B22B0
2C02B0
BFFFF5
B20085
B20085
ENDCHAR
STARTCHAR uni0416.c2sc
ENCODING -1
SWIDTH 651 0
DWIDTH 7 0
BBX 7 6 0 0
BITMAP
5A3A3C00
0B6AB400
06FFD000
0B7AB400
2D3A6A00
973A1E20
ENDCHAR
STARTCHAR uni0417.c2sc
ENCODING -1
SWIDTH 466 0
DWIDTH 5 0
BBX 5 6 0 0
BITMAP
2DE900
552D00
05F700
001D00
652D10
3DE700
ENDCHAR
STARTCHAR uni0418.c2sc
ENCODING -1
SWIDTH 537 0
DWIDTH 5 0
BBX 5 6 0 0
BITMAP
5806B0
581DB0
5878B0
59C2B0
5E52B0
5C02B0
ENDCHAR
STARTCHAR uni041A.c2sc
ENCODING -1
SWIDTH 473 0
DWIDTH 5 0
BBX 5 6 0 0
BITMAP
582C10
58B300
5FA000
58D200
586A00
580D30
ENDCHAR
STARTCHAR uni041B.c2sc
ENCODING -1
SWIDTH 521 0
DWIDTH 5 0
BBX 5 6 0 0
BITMAP
0BFF90
0B2490
0C1490
0D0490
1D0490
B70490
ENDCHAR
STARTCHAR uni0423.c2sc
ENCODING -1
SWIDTH 454 0
DWIDTH 5 0
BBX 5 6 0 0
BITMAP
960C30
3A1C00
0C6700
07E200
04C000
1E4000
ENDCHAR
STARTCHAR uni0426.c2sc
ENCODING -1
SWIDTH 564 0
DWIDTH 6 0
BBX 6 8 0 -2
BITMAP
580490
580490
580490
580490
580490
5FFFF5
000075
000074
ENDCHAR
STARTCHAR uni0427.c2sc
ENCODING -1
SWIDTH 487 0
DWIDTH 5 0
BBX 5 6 0 0
BITMAP
A30940
A30940
961A40
2DEE40
000940
000940
ENDCHAR
STARTCHAR uni0428.c2sc
ENCODING -1
SWIDTH 691 0
DWIDTH 7 0
BBX 7 6 0 0
BITMAP
580D0940
580D0940
580D0940
580D0940
580D0940
5FFFFF40
ENDCHAR
STARTCHAR uni0429.c2sc
ENCODING -1
SWIDTH 731 0
DWIDTH 7 0
BBX 7 8 0 -2
BITMAP
580D0940
580D0940
580D0940
580D0940
580D0940
5FFFFFF0
000000C0
000000C0
ENDCHAR
STARTCHAR uni042A.c2sc
ENCODING -1
SWIDTH 559 0
DWIDTH 6 0
BBX 6 6 0 0
BITMAP
DF5000
085000
08FF80
0851D2
0851D2
08FF80
ENDCHAR
STARTCHAR uni042B.c2sc
ENCODING -1
SWIDTH 658 0
DWIDTH 7 0
BBX 6 6 0 0
BITMAP
58000D
58000D
5FFA0D
580A4D
580A4D
5FFB0D
ENDCHAR
STARTCHAR uni042C.c2sc
ENCODING -1
SWIDTH 475 0
DWIDTH 5 0
BBX 5 6 0 0
BITMAP
580000
580000
5FFA00
580A40
580A40
5FFB00
ENDCHAR
STARTCHAR uni042D.c2sc
ENCODING -1
SWIDTH 491 0
DWIDTH 5 0
BBX 5 6 0 0
BITMAP
1CE800
871A30
02FF60
000760
771C30
1CE800
ENDCHAR
STARTCHAR uni042E.c2sc
ENCODING -1
SWIDTH 705 0
DWIDTH 7 0
BBX 7 6 0 0
BITMAP
581BE900
58891A50
5FF30580
58930580
58591A50
580AE900
ENDCHAR
STARTCHAR uni042F.c2sc
ENCODING -1
SWIDTH 499 0
DWIDTH 5 0
BBX 5 6 0 0
BITMAP
0BFF50
4A0850
3B1850
0AFF50
0C2850
590850
ENDCHAR
STARTCHAR uni0492.c2sc
ENCODING -1
SWIDTH 444 0
DWIDTH 4 0
BBX 5 6 0 0
BITMAP
0FFF30
0D0000
0D0000
DFC000
0D0000
0D0000
ENDCHAR
STARTCHAR uni0496.c2sc
ENCODING -1
SWIDTH 676 0
DWIDTH 7 0
BBX 7 8 0 -2
BITMAP
5A3A3C00
0C6AB400
06FFD000
0B7AB400
2D3A6B00
973A1E80
00000380
00000260
ENDCHAR
STARTCHAR uni049A.c2sc
ENCODING -1
SWIDTH 492 0
DWIDTH 5 0
BBX 5 8 0 -2
BITMAP
582C10
58B300
5FA000
58D200
586B00
580DA0
0002A0
0002A0
ENDCHAR
STARTCHAR uni049C.c2sc
ENCODING -1
SWIDTH 562 0
DWIDTH 6 0
BBX 6 6 0 0
BITMAP
5813C1
5A8C20
5FF900
5A8D10
580780
5801E2
ENDCHAR
STARTCHAR uni04A0.c2sc
ENCODING -1
SWIDTH 571 0
DWIDTH 6 0
BBX 6 6 0 0
BITMAP
BF72C1
067B30
06FA00
067D20
0676A0
0670D3
ENDCHAR
STARTCHAR uni04A8.c2sc
ENCODING -1
SWIDTH 625 0
DWIDTH 6 0
BBX 6 6 0 0
BITMAP
0A7DD2
5A8777
759449
767558
3C3995
07EFF7
ENDCHAR
STARTCHAR uni04B0.c2sc
ENCODING -1
SWIDTH 480 0
DWIDTH 5 0
BBX 5 6 0 0
BITMAP
A50B30
3B2B00
0BB500
1FF900
02B000
02B000
ENDCHAR
STARTCHAR uni04B2.c2sc
ENCODING -1
SWIDTH 514 0
DWIDTH 5 0
BBX 5 8 0 -2
BITMAP
780C30
0D5A00
06E300
06E300
1D4C00
780BD0
0000C0
0000C0
ENDCHAR
STARTCHAR uni04B4.c2sc
ENCODING -1
SWIDTH 695 0
DWIDTH 7 0
BBX 7 8 0 -2
BITMAP
BFFF3A00
05803A00
05803A00
05803A00
05803A00
05FFFF60
00000750
00000750
ENDCHAR
STARTCHAR uni04B8.c2sc
ENCODING -1
SWIDTH 487 0
DWIDTH 5 0
BBX 5 6 0 0
BITMAP
A30940
A32940
97AA40
2DFE40
019940
000940
ENDCHAR
STARTCHAR uni04BA.c2sc
ENCODING -1
SWIDTH 487 0
DWIDTH 5 0
BBX 5 6 0 0
BITMAP
580000
580000
5EEC10
591870
580580
580580
ENDCHAR
STARTCHAR uni04BC.c2sc
ENCODING -1
SWIDTH 632 0
DWIDTH 6 0
BBX 6 6 0 0
BITMAP
007EB1
12C179
B7701C
5EFFFD
059120
009ED2
ENDCHAR
STARTCHAR uni04D8.c2sc
ENCODING -1
SWIDTH 527 0
DWIDTH 5 0
BBX 5 6 0 0
BITMAP
0AEB10
021980
0002B0
8FFFC0
580590
0AEB10
ENDCHAR
STARTCHAR uni04E0.c2sc
ENCODING -1
SWIDTH 466 0
DWIDTH 5 0
BBX 5 6 0 0
BITMAP
7FFE00
01A400
04E600
001D10
652D10
2CE700
ENDCHAR
STARTCHAR uni04E8.c2sc
ENCODING -1
SWIDTH 519 0
DWIDTH 5 0
BBX 5 6 0 0
BITMAP
09EB10
491670
7FFFA0
7603A0
4B1970
09EB10
ENDCHAR
STARTCHAR lira.c2sc
ENCODING -1
SWIDTH 467 0
DWIDTH 5 0
BBX 5 6 0 0
BITMAP
09EB00
1D1100
BFF600
1C0000
BFF600
6FFF40
ENDCHAR
STARTCHAR Euro.c2sc
ENCODING -1
SWIDTH 433 0
DWIDTH 4 0
BBX 4 6 0 0
BITMAP
05EC
0D31
9FF8
0D00
9FF8
09EC
ENDCHAR
STARTCHAR uni2116.c2sc
ENCODING -1
SWIDTH 884 0
DWIDTH 9 0
BBX 9 6 0 0
BITMAP
5B03A3EB00
5E43A94A30
58B3A94A30
5877A3EB00
581DA00000
5806A5FE00
ENDCHAR
STARTCHAR uni20BD.c2sc
ENCODING -1
SWIDTH 512 0
DWIDTH 5 0
BBX 5 6 0 0
BITMAP
0EFE50
0D05B0
BFFE50
0D0000
BFE000
0D0000
ENDCHAR
STARTCHAR three.dnom
ENCODING -1
SWIDTH 329 0
DWIDTH 3 0
BBX 3 4 0 0
BITMAP
4D90
0C80
11C0
6E70
ENDCHAR
STARTCHAR four.dnom
ENCODING -1
SWIDTH 329 0
DWIDTH 3 0
BBX 3 4 0 0
BITMAP
0880
3980
AFF0
0280
ENDCHAR
STARTCHAR five.dnom
ENCODING -1
SWIDTH 329 0
DWIDTH 3 0
BBX 3 4 0 0
BITMAP
5FB0
6E90
22C0
4E80
ENDCHAR
STARTCHAR six.dnom
ENCODING -1
SWIDTH 329 0
DWIDTH 3 0
BBX 3 4 0 0
BITMAP
1C60
7E90
85C0
4E80
ENDCHAR
STARTCHAR seven.dnom
ENCODING -1
SWIDTH 329 0
DWIDTH 3 0
BBX 3 4 0 0
BITMAP
AFD0
0280
0820
1A00
ENDCHAR
STARTCHAR eight.dnom
ENCODING -1
SWIDTH 329 0
DWIDTH 3 0
BBX 3 4 0 0
BITMAP
4E80
5C90
79B0
5E90
ENDCHAR
STARTCHAR nine.dnom
ENCODING -1
SWIDTH 329 0
DWIDTH 3 0
BBX 3 4 0 0
BITMAP
5E70
8BC0
17B0
0E40
ENDCHAR
STARTCHAR glyph550
ENCODING -1
SWIDTH 404 0
DWIDTH 4 0
BBX 4 1 0 3
BITMAP
4FF5
ENDCHAR
STARTCHAR glyph551
ENCODING -1
SWIDTH 306 0
DWIDTH 3 0
BBX 3 4 0 5
BITMAP
0570
0810
2D10
2E10
ENDCHAR
STARTCHAR E.c2sc
ENCODING -1
SWIDTH 428 0
DWIDTH 4 0
BBX 4 6 0 0
BITMAP
5FFE
5800
5FF9
5800
5800
5FFF
ENDCHAR
STARTCHAR g.ss01
ENCODING -1
SWIDTH 463 0
DWIDTH 5 0
BBX 5 7 0 -2
BITMAP
3DFF60
882D00
2EE800
480000
4FFC10
B31B40
6EE900
ENDCHAR
STARTCHAR alpha.ss02
ENCODING -1
SWIDTH 523 0
DWIDTH 5 0
BBX 5 5 0 0
BITMAP
0BE890
5A1C60
760840
691C60
1BE890
ENDCHAR
STARTCHAR R.ss03
ENCODING -1
SWIDTH 577 0
DWIDTH 6 0
BBX 6 7 0 0
BITMAP
3FFE60
3B02E0
3B02C0
3FFF50
3B03D0
3B00E0
3B00C2
ENDCHAR
STARTCHAR K.ss04
ENCODING -1
SWIDTH 560 0
DWIDTH 6 0
BBX 6 7 0 0
BITMAP
3B02D1
3B0B50
3B6B00
3FF400
3B4C00
3B0980
3B01D3
ENDCHAR
STARTCHAR k.ss04
ENCODING -1
SWIDTH 453 0
DWIDTH 5 0
BBX 5 8 0 0
BITMAP
580000
580000
580000
582D10
58A400
5FD000
589700
581C20
ENDCHAR
STARTCHAR K.ss05
ENCODING -1
SWIDTH 572 0
DWIDTH 6 0
BBX 6 7 0 0
BITMAP
3B04C1
3B1D20
3BB500
3EC000
3BA700
3B1C40
3B02D2
ENDCHAR
STARTCHAR k.ss05
ENCODING -1
SWIDTH 454 0
DWIDTH 5 0
BBX 5 8 0 0
BITMAP
580000
580000
580000
586B00
5CD100
5D7000
58B300
582C10
ENDCHAR
STARTCHAR D.c2sc
ENCODING -1
SWIDTH 492 0
DWIDTH 5 0
BBX 5 6 0 0
BITMAP
5FE700
581C20
580760
580760
581C30
5FE700
ENDCHAR
STARTCHAR C.c2sc
ENCODING -1
SWIDTH 490 0
DWIDTH 5 0
BBX 5 6 0 0
BITMAP
09EA00
5A1950
750120
750110
5A1950
09EA00
ENDCHAR
STARTCHAR B.c2sc
ENCODING -1
SWIDTH 475 0
DWIDTH 5 0
BBX 5 6 0 0
BITMAP
5FFA00
581D10
5FFB00
580B20
581C30
5FFA00
ENDCHAR
STARTCHAR A.c2sc
ENCODING -1
SWIDTH 501 0
DWIDTH 5 0
BBX 5 6 0 0
BITMAP
01E100
05D600
0A5B00
1D0D10
5FFF50
A404A0
ENDCHAR
STARTCHAR glyph564
ENCODING -1
SWIDTH 236 0
DWIDTH 2 0
BBX 2 2 0 6
BITMAP
09
3A
ENDCHAR
STARTCHAR glyph565
ENCODING -1
SWIDTH 402 0
DWIDTH 4 0
BBX 4 4 0 6
BITMAP
0A00
0610
57B1
1DA0
ENDCHAR
STARTCHAR glyph566
ENCODING -1
SWIDTH 0 0
DWIDTH 0 0
BBX 3 2 -4 6
BITMAP
0650
4970
ENDCHAR
STARTCHAR glyph567
ENCODING -1
SWIDTH 455 0
DWIDTH 5 0
BBX 5 3 0 6
BITMAP
0003A0
09C740
2A7600
ENDCHAR
STARTCHAR glyph568
ENCODING -1
SWIDTH 454 0
DWIDTH 5 0
BBX 5 3 -1 6
BITMAP
670000
19AC10
03A850
ENDCHAR
STARTCHAR glyph569
ENCODING -1
SWIDTH 446 0
DWIDTH 4 0
BBX 5 4 0 6
BITMAP
000810
000740
0ACA00
386600
ENDCHAR
STARTCHAR glyph570
ENCODING -1
SWIDTH 453 0
DWIDTH 5 0
BBX 4 4 0 6
BITMAP
0A61
06C0
09B0
3865
ENDCHAR
STARTCHAR uni0490.c2sc
ENCODING -1
SWIDTH 405 0
DWIDTH 4 0
BBX 4 8 0 0
BITMAP
0006
001C
5FFC
5800
5800
5800
5800
5800
ENDCHAR
STARTCHAR glyph572
ENCODING -1
SWIDTH 404 0
DWIDTH 4 0
BBX 4 4 0 6
BITMAP
0190
0340
57B1
1DA0
ENDCHAR
STARTCHAR glyph573
ENCODING -1
SWIDTH 404 0
DWIDTH 4 0
BBX 3 5 0 6
BITMAP
0370
03A0
0640
56B0
1D90
ENDCHAR
STARTCHAR zero.numr
ENCODING -1
SWIDTH 329 0
DWIDTH 3 0
BBX 3 4 0 3
BITMAP
4E70
84B0
84B0
4E80
ENDCHAR
STARTCHAR four.numr
ENCODING -1
SWIDTH 329 0
DWIDTH 3 0
BBX 3 4 0 3
BITMAP
0880
3980
AFF0
0280
ENDCHAR
STARTCHAR five.numr
ENCODING -1
SWIDTH 329 0
DWIDTH 3 0
BBX 3 4 0 3
BITMAP
5FB0
6E90
22C0
4E80
ENDCHAR
STARTCHAR six.numr
ENCODING -1
SWIDTH 329 0
DWIDTH 3 0
BBX 3 4 0 3
BITMAP
1C60
7E90
85C0
4E80
ENDCHAR
STARTCHAR seven.numr
ENCODING -1
SWIDTH 329 0
DWIDTH 3 0
BBX 3 4 0 3
BITMAP
AFD0
0280
0820
1A00
ENDCHAR
STARTCHAR eight.numr
ENCODING -1
SWIDTH 329 0
DWIDTH 3 0
BBX 3 4 0 3
BITMAP
4E80
5C90
79B0
5E90
ENDCHAR
STARTCHAR nine.numr
ENCODING -1
SWIDTH 329 0
DWIDTH 3 0
BBX 3 4 0 3
BITMAP
5E70
8BC0
17B0
0E40
ENDCHAR
STARTCHAR C.ss06
ENCODING -1
SWIDTH 603 0
DWIDTH 6 0
BBX 6 7 0 0
BITMAP
04DE80
1D41B4
4A0023
680000
4A0023
1E41B4
04DE80
ENDCHAR
STARTCHAR G.ss06
ENCODING -1
SWIDTH 618 0
DWIDTH 6 0
BBX 6 7 0 0
BITMAP
04DE90
1E41A5
4A0011
680000
4A0AF8
1D4078
03CEC3
ENDCHAR
STARTCHAR D.ss06
ENCODING -1
SWIDTH 608 0
DWIDTH 6 0
BBX 6 7 0 0
BITMAP
3FFC40
3B04D1
3B0095
3B0077
3B0095
3B04D1
3FFC30
ENDCHAR
STARTCHAR O.ss06
ENCODING -1
SWIDTH 643 0
DWIDTH 6 0
BBX 6 7 0 0
BITMAP
03CE80
0D41B5
4A004B
68002C
4A003B
1D41B5
03DE80
ENDCHAR
STARTCHAR Q.ss06
ENCODING -1
SWIDTH 644 0
DWIDTH 6 0
BBX 6 8 0 -1
BITMAP
03CE80
0D41B5
4A004A
68002C
4A003B
1D41B6
03DFB0
0001B3
ENDCHAR
STARTCHAR one.oldstyle.pnum
ENCODING -1
SWIDTH 421 0
DWIDTH 4 0
BBX 4 6 0 0
BITMAP
05C2
4AD2
00B2
00B2
00B2
00B2
ENDCHAR
STARTCHAR two.oldstyle.pnum
ENCODING -1
SWIDTH 492 0
DWIDTH 5 0
BBX 5 6 0 0
BITMAP
09EA00
4A1C20
001C00
00B400
0A6000
3FFF60
ENDCHAR
STARTCHAR three.oldstyle.pnum
ENCODING -1
SWIDTH 474 0
DWIDTH 5 0
BBX 5 8 0 -2
BITMAP
8FFF10
004900
01B100
06E600
002D10
000B20
313D00
7ED400
ENDCHAR
STARTCHAR four.oldstyle.pnum
ENCODING -1
SWIDTH 524 0
DWIDTH 5 0
BBX 5 8 0 -2
BITMAP
001E20
008E20
02AB20
092B20
290B20
9FFFE0
000B20
000B20
ENDCHAR
STARTCHAR five.oldstyle.pnum
ENCODING -1
SWIDTH 483 0
DWIDTH 5 0
BBX 5 8 0 -2
BITMAP
0FFF50
1B0000
390000
4DE900
241C30
000940
222D20
3DE700
ENDCHAR
STARTCHAR seven.oldstyle.pnum
ENCODING -1
SWIDTH 458 0
DWIDTH 5 0
BBX 5 8 0 -2
BITMAP
9FFF30
000C00
003900
008400
00C000
039000
094000
0C0000
ENDCHAR
STARTCHAR glyph592
ENCODING -1
SWIDTH 402 0
DWIDTH 4 0
BBX 3 5 0 6
BITMAP
1C60
35B0
0000
56B0
1D90
ENDCHAR
STARTCHAR glyph593
ENCODING -1
SWIDTH 183 0
DWIDTH 2 0
BBX 2 3 0 -2
BITMAP
85
85
85
ENDCHAR
STARTCHAR OE.c2sc
ENCODING -1
SWIDTH 714 0
DWIDTH 7 0
BBX 7 6 0 0
BITMAP
09FFFFC0
4B185000
7508FF70
76085000
4B185000
09EFFFD0
ENDCHAR
STARTCHAR nine.oldstyle.pnum
ENCODING -1
SWIDTH 520 0
DWIDTH 5 0
BBX 5 8 0 -2
BITMAP
08EA00
2C1960
580490
3C1790
08ED90
000770
022D30
0CE700
ENDCHAR
STARTCHAR glyph596
ENCODING -1
SWIDTH 234 0
DWIDTH 2 0
BBX 3 3 -1 -2
BITMAP
03A0
05A0
2E40
ENDCHAR
STARTCHAR three.oldstyle
ENCODING -1
SWIDTH 494 0
DWIDTH 5 0
BBX 5 8 0 -2
BITMAP
5FFF40
002B00
00B200
03F900
001C30
000840
312D20
5DE600
ENDCHAR
STARTCHAR five.oldstyle
ENCODING -1
SWIDTH 494 0
DWIDTH 5 0
BBX 5 8 0 -2
BITMAP
0EFF60
0B0000
2A0000
3EEA00
251B40
000850
221C30
2CE800
ENDCHAR
STARTCHAR four.oldstyle
ENCODING -1
SWIDTH 494 0
DWIDTH 5 0
BBX 5 8 0 -2
BITMAP
002F10
00AE10
039C10
0A1C10
480C10
AFFFD0
000C10
000C10
ENDCHAR
STARTCHAR two.oldstyle
ENCODING -1
SWIDTH 494 0
DWIDTH 5 0
BBX 5 6 0 0
BITMAP
0AE900
4A1D20
001C00
01B300
0B5000
4FFF60
ENDCHAR
STARTCHAR seven.oldstyle
ENCODING -1
SWIDTH 494 0
DWIDTH 5 0
BBX 5 8 0 -2
BITMAP
6FFF60
000A20
001C00
005700
00A200
01C000
067000
0B2000
ENDCHAR
STARTCHAR zero.oldstyle
ENCODING -1
SWIDTH 494 0
DWIDTH 5 0
BBX 5 6 0 0
BITMAP
1AE900
691A50
A30480
930480
691A50
1AEA00
ENDCHAR
STARTCHAR six.oldstyle
ENCODING -1
SWIDTH 494 0
DWIDTH 5 0
BBX 5 7 0 0
BITMAP
04C800
1D4000
4CEA00
5B1B40
580760
3C1B40
08E900
ENDCHAR
STARTCHAR nine.oldstyle
ENCODING -1
SWIDTH 494 0
DWIDTH 5 0
BBX 5 8 0 -2
BITMAP
0AE800
5A1B30
760660
5A1970
0AED60
000950
023E10
1DE500
ENDCHAR
STARTCHAR eight.oldstyle
ENCODING -1
SWIDTH 494 0
DWIDTH 5 0
BBX 5 7 0 0
BITMAP
0AE900
3B1C20
2B1C10
0BF900
491B30
691A40
1BEA00
ENDCHAR
STARTCHAR one.oldstyle
ENCODING -1
SWIDTH 494 0
DWIDTH 5 0
BBX 3 6 1 0
BITMAP
3A60
BA60
0760
0760
0760
0760
ENDCHAR
STARTCHAR glyph607
ENCODING -1
SWIDTH 237 0
DWIDTH 2 0
BBX 3 7 -1 -2
BITMAP
03A0
03A0
03A0
03A0
03A0
0590
2E40
ENDCHAR
STARTCHAR glyph608
ENCODING -1
SWIDTH 238 0
DWIDTH 2 0
BBX 3 7 -1 -2
BITMAP
03A0
03A0
03A0
03A0
03A0
0590
2E40
ENDCHAR
STARTCHAR glyph609
ENCODING -1
SWIDTH 235 0
DWIDTH 2 0
BBX 2 5 0 0
BITMAP
49
49
49
49
49
ENDCHAR
STARTCHAR glyph610
ENCODING -1
SWIDTH 235 0
DWIDTH 2 0
BBX 2 7 0 -2
BITMAP
49
49
49
49
5A
A1
B7
ENDCHAR
STARTCHAR glyph611
ENCODING -1
SWIDTH 235 0
DWIDTH 2 0
BBX 2 5 0 0
BITMAP
49
49
49
49
49
ENDCHAR
STARTCHAR germandbls.sc
ENCODING -1
SWIDTH 475 0
DWIDTH 5 0
BBX 5 6 0 0
BITMAP
0BE600
4A4B00
58A300
58FC10
582B40
59EB00
ENDCHAR
STARTCHAR zero.oldstyle.pnum
ENCODING -1
SWIDTH 545 0
DWIDTH 5 0
BBX 5 6 0 0
BITMAP
07EC20
2C1690
6700C0
5700C0
2C1690
07EC20
ENDCHAR
STARTCHAR seven.pnum
ENCODING -1
SWIDTH 458 0
DWIDTH 5 0
BBX 5 7 0 0
BITMAP
AFFF20
000B00
005700
00A200
01B000
076000
0C1000
ENDCHAR
STARTCHAR b.ss06
ENCODING -1
SWIDTH 493 0
DWIDTH 5 0
BBX 5 8 0 0
BITMAP
580000
580000
580000
5CEB10
5A1960
580580
5A1960
5CEB10
ENDCHAR
STARTCHAR c.ss06
ENCODING -1
SWIDTH 460 0
DWIDTH 5 0
BBX 5 5 0 0
BITMAP
0AE900
691920
850000
691710
0AE900
ENDCHAR
STARTCHAR d.ss06
ENCODING -1
SWIDTH 503 0
DWIDTH 5 0
BBX 5 8 0 0
BITMAP
000850
000850
000850
0AED50
5A1A50
750850
5A1A50
0AEC50
ENDCHAR
STARTCHAR g.ss06
ENCODING -1
SWIDTH 500 0
DWIDTH 5 0
BBX 5 7 0 -2
BITMAP
1BEC50
5A1A50
750850
5A1A50
0BED50
011B30
0CE900
ENDCHAR
STARTCHAR o.ss06
ENCODING -1
SWIDTH 508 0
DWIDTH 5 0
BBX 5 5 0 0
BITMAP
0AEA10
5A1970
750490
5A1970
0AEA00
ENDCHAR
STARTCHAR p.ss06
ENCODING -1
SWIDTH 500 0
DWIDTH 5 0
BBX 5 7 0 -2
BITMAP
5CEB10
5A1A60
580580
5A1A60
5DEB10
580000
580000
ENDCHAR
STARTCHAR q.ss06
ENCODING -1
SWIDTH 508 0
DWIDTH 5 0
BBX 5 7 0 -2
BITMAP
0BEC50
6A1A50
850850
5A1A50
0BED50
000850
000850
ENDCHAR
STARTCHAR e.ss07
ENCODING -1
SWIDTH 468 0
DWIDTH 5 0
BBX 5 5 0 0
BITMAP
0AE900
591B20
7FFF40
591300
09EB00
ENDCHAR
STARTCHAR g.ss07
ENCODING -1
SWIDTH 492 0
DWIDTH 5 0
BBX 5 7 0 -2
BITMAP
1BEC40
6A1B40
860940
691B40
1BED40
011C20
0BE900
ENDCHAR
STARTCHAR one.pnum
ENCODING -1
SWIDTH 382 0
DWIDTH 4 0
BBX 3 7 0 0
BITMAP
17A0
78C0
01C0
01C0
01C0
01C0
01C0
ENDCHAR
STARTCHAR ampersand.c2sc
ENCODING -1
SWIDTH 526 0
DWIDTH 5 0
BBX 5 6 0 0
BITMAP
0CE300
2C7700
0BC100
2BC680
783E40
2DEB80
ENDCHAR
STARTCHAR Lslash.c2sc
ENCODING -1
SWIDTH 411 0
DWIDTH 4 0
BBX 4 6 0 0
BITMAP
5800
5800
7D70
CA10
5800
5FFD
ENDCHAR
STARTCHAR AE.c2sc
ENCODING -1
SWIDTH 676 0
DWIDTH 7 0
BBX 7 6 0 0
BITMAP
006FFF20
00CC1000
058BFE00
0B3B2000
3FFF3000
A60AFF50
ENDCHAR
STARTCHAR Thorn.c2sc
ENCODING -1
SWIDTH 440 0
DWIDTH 4 0
BBX 4 6 0 0
BITMAP
5800
5FE6
581D
582E
5FE7
5800
ENDCHAR
STARTCHAR Oslash.c2sc
ENCODING -1
SWIDTH 519 0
DWIDTH 5 0
BBX 5 8 0 -1
BITMAP
000010
09ED50
4B1D70
7676A0
7793A0
4E3870
2DEB10
110000
ENDCHAR
STARTCHAR Hbar.c2sc
ENCODING -1
SWIDTH 533 0
DWIDTH 5 0
BBX 6 6 0 0
BITMAP
5803A0
BFFFF1
5803A0
5FFFA0
5803A0
5803A0
ENDCHAR
STARTCHAR Eng.c2sc
ENCODING -1
SWIDTH 533 0
DWIDTH 5 0
BBX 5 8 0 -2
BITMAP
5B03A0
5E43A0
58A3A0
5867A0
580BA0
5804A0
0004A0
001E50
ENDCHAR
STARTCHAR Dcroat.c2sc
ENCODING -1
SWIDTH 492 0
DWIDTH 5 0
BBX 6 6 -1 0
BITMAP
05FE70
0581C2
3FF776
058076
0581C3
05FE70
ENDCHAR
STARTCHAR Eth.c2sc
ENCODING -1
SWIDTH 492 0
DWIDTH 5 0
BBX 6 6 -1 0
BITMAP
05FE70
0581C2
3FF776
058076
0581C3
05FE70
ENDCHAR
STARTCHAR Tbar.c2sc
ENCODING -1
SWIDTH 456 0
DWIDTH 5 0
BBX 5 6 0 0
BITMAP
BFFF40
02B000
0FF900
02B000
02B000
02B000
ENDCHAR
STARTCHAR Agrave.c2sc
ENCODING -1
SWIDTH 501 0
DWIDTH 5 0
BBX 5 9 0 0
BITMAP
0A6000
02B000
000000
01E100
05D600
0A5B00
1D0D10
5FFF50
A404A0
ENDCHAR
STARTCHAR Aacute.c2sc
ENCODING -1
SWIDTH 501 0
DWIDTH 5 0
BBX 5 9 0 0
BITMAP
005B00
00A200
000000
01E100
05D600
0A5B00
1D0D10
5FFF50
A404A0
ENDCHAR
STARTCHAR Acircumflex.c2sc
ENCODING -1
SWIDTH 501 0
DWIDTH 5 0
BBX 5 9 0 0
BITMAP
02D200
085800
000000
01E100
05D600
0A5B00
1D0D10
5FFF50
A404A0
ENDCHAR
STARTCHAR Atilde.c2sc
ENCODING -1
SWIDTH 501 0
DWIDTH 5 0
BBX 5 9 0 0
BITMAP
098900
097A00
000000
01E100
05D600
0A5B00
1D0D10
5FFF50
A404A0
ENDCHAR
STARTCHAR Adieresis.c2sc
ENCODING -1
SWIDTH 501 0
DWIDTH 5 0
BBX 5 8 0 0
BITMAP
0C0C00
000000
01E100
05D600
0A5B00
1D0D10
5FFF50
A404A0
ENDCHAR
STARTCHAR Aring.c2sc
ENCODING -1
SWIDTH 501 0
DWIDTH 5 0
BBX 5 9 0 0
BITMAP
058500
058500
000000
01E100
05D600
0A5B00
1D0D10
5FFF50
A404A0
ENDCHAR
STARTCHAR Aringacute.c2sc
ENCODING -1
SWIDTH 501 0
DWIDTH 5 0
BBX 5 9 0 0
BITMAP
004800
007200
01E200
02F300
05D600
0A5B00
1D0D10
5FFF50
A404A0
ENDCHAR
STARTCHAR Ccedilla.c2sc
ENCODING -1
SWIDTH 490 0
DWIDTH 5 0
BBX 5 8 0 -2
BITMAP
09EA00
5A1950
750120
750110
5A1950
09EA00
006000
00D300
ENDCHAR
STARTCHAR Egrave.c2sc
ENCODING -1
SWIDTH 428 0
DWIDTH 4 0
BBX 4 9 0 0
BITMAP
1D30
0480
0000
5FFE
5800
5FF9
5800
5800
5FFF
ENDCHAR
STARTCHAR Eacute.c2sc
ENCODING -1
SWIDTH 428 0
DWIDTH 4 0
BBX 4 9 0 0
BITMAP
0098
01B0
0000
5FFE
5800
5FF9
5800
5800
5FFF
ENDCHAR
STARTCHAR Ecircumflex.c2sc
ENCODING -1
SWIDTH 428 0
DWIDTH 4 0
BBX 4 9 0 0
BITMAP
05D1
0A65
0000
5FFE
5800
5FF9
5800
5800
5FFF
ENDCHAR
STARTCHAR Edieresis.c2sc
ENCODING -1
SWIDTH 428 0
DWIDTH 4 0
BBX 4 8 0 0
BITMAP
2A1B
0000
5FFE
5800
5FF9
5800
5800
5FFF
ENDCHAR
STARTCHAR Igrave.c2sc
ENCODING -1
SWIDTH 221 0
DWIDTH 2 0
BBX 3 9 -1 0
BITMAP
2D10
0750
0000
0580
0580
0580
0580
0580
0580
ENDCHAR
STARTCHAR Iacute.c2sc
ENCODING -1
SWIDTH 221 0
DWIDTH 2 0
BBX 3 9 0 0
BITMAP
0B50
3900
0000
5800
5800
5800
5800
5800
5800
ENDCHAR
STARTCHAR Icircumflex.c2sc
ENCODING -1
SWIDTH 221 0
DWIDTH 2 0
BBX 4 9 -1 0
BITMAP
07A0
1A83
0000
0580
0580
0580
0580
0580
0580
ENDCHAR
STARTCHAR Idieresis.c2sc
ENCODING -1
SWIDTH 221 0
DWIDTH 2 0
BBX 4 8 -1 0
BITMAP
5748
0000
0580
0580
0580
0580
0580
0580
ENDCHAR
STARTCHAR Ntilde.c2sc
ENCODING -1
SWIDTH 533 0
DWIDTH 5 0
BBX 5 9 0 0
BITMAP
079810
096C00
000000
5B03A0
5E43A0
58B3A0
5877A0
581DA0
5806A0
ENDCHAR
STARTCHAR Ograve.c2sc
ENCODING -1
SWIDTH 519 0
DWIDTH 5 0
BBX 5 9 0 0
BITMAP
098000
01B000
000000
09EB10
4B1870
7503A0
7603A0
4B1870
09EB10
ENDCHAR
STARTCHAR Oacute.c2sc
ENCODING -1
SWIDTH 519 0
DWIDTH 5 0
BBX 5 9 0 0
BITMAP
004C00
009300
000000
09EB10
4B1870
7503A0
7603A0
4B1870
09EB10
ENDCHAR
STARTCHAR Ocircumflex.c2sc
ENCODING -1
SWIDTH 519 0
DWIDTH 5 0
BBX 5 9 0 0
BITMAP
01D300
075900
000000
09EB10
4B1870
7503A0
7603A0
4B1870
09EB10
ENDCHAR
STARTCHAR Otilde.c2sc
ENCODING -1
SWIDTH 519 0
DWIDTH 5 0
BBX 5 9 0 0
BITMAP
089910
096B00
000000
09EB10
4B1870
7503A0
7603A0
4B1870
09EB10
ENDCHAR
STARTCHAR Odieresis.c2sc
ENCODING -1
SWIDTH 519 0
DWIDTH 5 0
BBX 5 8 0 0
BITMAP
0C0B10
000000
09EB10
4B1870
7503A0
7603A0
4B1870
09EB10
ENDCHAR
STARTCHAR Ugrave.c2sc
ENCODING -1
SWIDTH 488 0
DWIDTH 5 0
BBX 5 9 0 0
BITMAP
0B5000
02A000
000000
760850
760850
760850
760850
691B40
1BEA00
ENDCHAR
STARTCHAR Uacute.c2sc
ENCODING -1
SWIDTH 488 0
DWIDTH 5 0
BBX 5 9 0 0
BITMAP
006A00
00B100
000000
760850
760850
760850
760850
691B40
1BEA00
ENDCHAR
STARTCHAR Ucircumflex.c2sc
ENCODING -1
SWIDTH 488 0
DWIDTH 5 0
BBX 5 9 0 0
BITMAP
03D200
095700
000000
760850
760850
760850
760850
691B40
1BEA00
ENDCHAR
STARTCHAR Udieresis.c2sc
ENCODING -1
SWIDTH 488 0
DWIDTH 5 0
BBX 5 8 0 0
BITMAP
1B0C00
000000
760850
760850
760850
760850
691B40
1BEA00
ENDCHAR
STARTCHAR Yacute.c2sc
ENCODING -1
SWIDTH 458 0
DWIDTH 5 0
BBX 5 9 0 0
BITMAP
009800
01B000
000000
A50B30
3B2B00
0BB500
05D000
02B000
02B000
ENDCHAR
STARTCHAR Amacron.c2sc
ENCODING -1
SWIDTH 501 0
DWIDTH 5 0
BBX 5 8 0 0
BITMAP
0DFF00
000000
01E100
05D600
0A5B00
1D0D10
5FFF50
A404A0
ENDCHAR
STARTCHAR Abreve.c2sc
ENCODING -1
SWIDTH 501 0
DWIDTH 5 0
BBX 5 7 0 0
BITMAP
0C1C00
07F800
05D600
0A5B00
1D0D10
5FFF50
A404A0
ENDCHAR
STARTCHAR Aogonek.c2sc
ENCODING -1
SWIDTH 501 0
DWIDTH 5 0
BBX 5 8 0 -2
BITMAP
01E100
05D600
0A5B00
1D0D10
5FFF50
A404A0
000730
0009A0
ENDCHAR
STARTCHAR Cacute.c2sc
ENCODING -1
SWIDTH 490 0
DWIDTH 5 0
BBX 5 9 0 0
BITMAP
005B00
00A200
000000
09EA00
5A1950
750120
750110
5A1950
09EA00
ENDCHAR
STARTCHAR Ccircumflex.c2sc
ENCODING -1
SWIDTH 490 0
DWIDTH 5 0
BBX 5 9 0 0
BITMAP
02D200
085800
000000
09EA00
5A1950
750120
750110
5A1950
09EA00
ENDCHAR
STARTCHAR Cdotaccent.c2sc
ENCODING -1
SWIDTH 490 0
DWIDTH 5 0
BBX 5 8 0 0
BITMAP
00C000
000000
09EA00
5A1950
750120
750110
5A1950
09EA00
ENDCHAR
STARTCHAR Ccaron.c2sc
ENCODING -1
SWIDTH 490 0
DWIDTH 5 0
BBX 5 9 0 0
BITMAP
095900
01D100
000000
09EA00
5A1950
750120
750110
5A1950
09EA00
ENDCHAR
STARTCHAR Dcaron.c2sc
ENCODING -1
SWIDTH 492 0
DWIDTH 5 0
BBX 5 9 0 0
BITMAP
1A8300
06A000
000000
5FE700
581C20
580760
580760
581C30
5FE700
ENDCHAR
STARTCHAR Emacron.c2sc
ENCODING -1
SWIDTH 428 0
DWIDTH 4 0
BBX 4 8 0 0
BITMAP
1FFB
0000
5FFE
5800
5FF9
5800
5800
5FFF
ENDCHAR
STARTCHAR Ebreve.c2sc
ENCODING -1
SWIDTH 428 0
DWIDTH 4 0
BBX 4 7 0 0
BITMAP
2B2A
5FFF
5800
5FF9
5800
5800
5FFF
ENDCHAR
STARTCHAR Edotaccent.c2sc
ENCODING -1
SWIDTH 428 0
DWIDTH 4 0
BBX 4 8 0 0
BITMAP
02A0
0000
5FFE
5800
5FF9
5800
5800
5FFF
ENDCHAR
STARTCHAR Eogonek.c2sc
ENCODING -1
SWIDTH 428 0
DWIDTH 4 0
BBX 4 8 0 -2
BITMAP
5FFE
5800
5FF9
5800
5800
5FFF
0074
008A
ENDCHAR
STARTCHAR Ecaron.c2sc
ENCODING -1
SWIDTH 428 0
DWIDTH 4 0
BBX 4 9 0 0
BITMAP
0A66
04C0
0000
5FFE
5800
5FF9
5800
5800
5FFF
ENDCHAR
STARTCHAR Gcircumflex.c2sc
ENCODING -1
SWIDTH 509 0
DWIDTH 5 0
BBX 5 9 0 0
BITMAP
02D200
085800
000000
09EB10
5A1850
760000
766F80
4B1680
09ED30
ENDCHAR
STARTCHAR Gbreve.c2sc
ENCODING -1
SWIDTH 509 0
DWIDTH 5 0
BBX 5 7 0 0
BITMAP
0C1C00
0FFF10
5A1850
760000
766F80
4B1680
09ED30
ENDCHAR
STARTCHAR Gdotaccent.c2sc
ENCODING -1
SWIDTH 509 0
DWIDTH 5 0
BBX 5 8 0 0
BITMAP
00C000
000000
09EB10
5A1850
760000
766F80
4B1680
09ED30
ENDCHAR
STARTCHAR uni0122.c2sc
ENCODING -1
SWIDTH 509 0
DWIDTH 5 0
BBX 5 9 0 -3
BITMAP
09EB10
5A1850
760000
766F80
4B1680
09ED30
000000
00C000
018000
ENDCHAR
STARTCHAR Hcircumflex.c2sc
ENCODING -1
SWIDTH 533 0
DWIDTH 5 0
BBX 5 9 0 0
BITMAP
01D300
065900
000000
5803A0
5803A0
5FFFA0
5803A0
5803A0
5803A0
ENDCHAR
STARTCHAR Itilde.c2sc
ENCODING -1
SWIDTH 221 0
DWIDTH 2 0
BBX 4 9 -1 0
BITMAP
1D38
55C4
0000
0580
0580
0580
0580
0580
0580
ENDCHAR
STARTCHAR Imacron.c2sc
ENCODING -1
SWIDTH 221 0
DWIDTH 2 0
BBX 4 8 -1 0
BITMAP
4FF8
0000
0580
0580
0580
0580
0580
0580
ENDCHAR
STARTCHAR Ibreve.c2sc
ENCODING -1
SWIDTH 221 0
DWIDTH 2 0
BBX 4 7 -1 0
BITMAP
4858
0FF2
0580
0580
0580
0580
0580
ENDCHAR
STARTCHAR Iogonek.c2sc
ENCODING -1
SWIDTH 221 0
DWIDTH 2 0
BBX 2 8 0 -2
BITMAP
58
58
58
58
58
5A
92
A8
ENDCHAR
STARTCHAR Idotaccent.c2sc
ENCODING -1
SWIDTH 221 0
DWIDTH 2 0
BBX 2 8 0 0
BITMAP
48
00
58
58
58
58
58
58
ENDCHAR
STARTCHAR Jcircumflex.c2sc
ENCODING -1
SWIDTH 419 0
DWIDTH 4 0
BBX 5 9 0 0
BITMAP
008A00
019820
000000
004900
004900
004900
004900
737800
4ED200
ENDCHAR
STARTCHAR uni0136.c2sc
ENCODING -1
SWIDTH 473 0
DWIDTH 5 0
BBX 5 9 0 -3
BITMAP
580C30
589700
5CC000
5DC300
584B00
580A60
000000
02A000
045000
ENDCHAR
STARTCHAR Lacute.c2sc
ENCODING -1
SWIDTH 411 0
DWIDTH 4 0
BBX 4 9 0 0
BITMAP
0C40
3900
0000
5800
5800
5800
5800
5800
5FFD
ENDCHAR
STARTCHAR uni013B.c2sc
ENCODING -1
SWIDTH 411 0
DWIDTH 4 0
BBX 4 9 0 -3
BITMAP
5800
5800
5800
5800
5800
5FFD
0000
0390
0550
ENDCHAR
STARTCHAR Lcaron.c2sc
ENCODING -1
SWIDTH 411 0
DWIDTH 4 0
BBX 4 6 0 0
BITMAP
58A2
5890
5800
5800
5800
5FFD
ENDCHAR
STARTCHAR Ldot.c2sc
ENCODING -1
SWIDTH 411 0
DWIDTH 4 0
BBX 4 6 0 0
BITMAP
5800
5800
58B1
5800
5800
5FFD
ENDCHAR
STARTCHAR Nacute.c2sc
ENCODING -1
SWIDTH 533 0
DWIDTH 5 0
BBX 5 9 0 0
BITMAP
003D00
009300
000000
5B03A0
5E43A0
58B3A0
5877A0
581DA0
5806A0
ENDCHAR
STARTCHAR uni0145.c2sc
ENCODING -1
SWIDTH 533 0
DWIDTH 5 0
BBX 5 9 0 -3
BITMAP
5B03A0
5E43A0
58B3A0
5877A0
581DA0
5806A0
000000
00C000
009000
ENDCHAR
STARTCHAR Ncaron.c2sc
ENCODING -1
SWIDTH 533 0
DWIDTH 5 0
BBX 5 9 0 0
BITMAP
066A00
00D300
000000
5B03A0
5E43A0
58B3A0
5877A0
581DA0
5806A0
ENDCHAR
STARTCHAR Omacron.c2sc
ENCODING -1
SWIDTH 519 0
DWIDTH 5 0
BBX 5 8 0 0
BITMAP
0CFF10
000000
09EB10
4B1870
7503A0
7603A0
4B1870
09EB10
ENDCHAR
STARTCHAR Obreve.c2sc
ENCODING -1
SWIDTH 519 0
DWIDTH 5 0
BBX 5 7 0 0
BITMAP
0B1C00
0EFF10
4B1870
7503A0
7603A0
4B1870
09EB10
ENDCHAR
STARTCHAR Ohungarumlaut.c2sc
ENCODING -1
SWIDTH 519 0
DWIDTH 5 0
BBX 5 9 0 0
BITMAP
01CA50
048A00
000000
09EB10
4B1870
7503A0
7603A0
4B1870
09EB10
ENDCHAR
STARTCHAR Racute.c2sc
ENCODING -1
SWIDTH 465 0
DWIDTH 5 0
BBX 5 9 0 0
BITMAP
009700
01B000
000000
5FFA00
581C30
581C20
5FF900
583B00
580B30
ENDCHAR
STARTCHAR uni0156.c2sc
ENCODING -1
SWIDTH 465 0
DWIDTH 5 0
BBX 5 9 0 -3
BITMAP
5FFA00
581C30
581C20
5FF900
583B00
580B30
000000
039000
055000
ENDCHAR
STARTCHAR Rcaron.c2sc
ENCODING -1
SWIDTH 465 0
DWIDTH 5 0
BBX 5 9 0 0
BITMAP
0B7500
05B000
000000
5FFA00
581C30
581C20
5FF900
583B00
580B30
ENDCHAR
STARTCHAR Sacute.c2sc
ENCODING -1
SWIDTH 453 0
DWIDTH 5 0
BBX 5 9 0 0
BITMAP
008800
01B000
000000
1CE700
681C10
3E9200
017D00
871D20
1BE900
ENDCHAR
STARTCHAR Scircumflex.c2sc
ENCODING -1
SWIDTH 453 0
DWIDTH 5 0
BBX 5 9 0 0
BITMAP
04D100
0A6500
000000
1CE700
681C10
3E9200
017D00
871D20
1BE900
ENDCHAR
STARTCHAR Scedilla.c2sc
ENCODING -1
SWIDTH 453 0
DWIDTH 5 0
BBX 5 8 0 -2
BITMAP
1CE700
681C10
3E9200
017D00
871D20
1BE900
006000
00E200
ENDCHAR
STARTCHAR Scaron.c2sc
ENCODING -1
SWIDTH 453 0
DWIDTH 5 0
BBX 5 9 0 0
BITMAP
0A6600
03C000
000000
1CE700
681C10
3E9200
017D00
871D20
1BE900
ENDCHAR
STARTCHAR uni021A.c2sc
ENCODING -1
SWIDTH 456 0
DWIDTH 5 0
BBX 5 9 0 -3
BITMAP
BFFF40
02B000
02B000
02B000
02B000
02B000
000000
02A000
045000
ENDCHAR
STARTCHAR Tcaron.c2sc
ENCODING -1
SWIDTH 456 0
DWIDTH 5 0
BBX 5 9 0 0
BITMAP
0A6500
04C000
000000
BFFF40
02B000
02B000
02B000
02B000
02B000
ENDCHAR
STARTCHAR uni0162.c2sc
ENCODING -1
SWIDTH 456 0
DWIDTH 5 0
BBX 5 8 0 -2
BITMAP
BFFF40
02B000
02B000
02B000
02B000
02B000
006000
02D100
ENDCHAR
STARTCHAR Utilde.c2sc
ENCODING -1
SWIDTH 488 0
DWIDTH 5 0
BBX 5 9 0 0
BITMAP
0A6900
099800
000000
760850
760850
760850
760850
691B40
1BEA00
ENDCHAR
STARTCHAR Umacron.c2sc
ENCODING -1
SWIDTH 488 0
DWIDTH 5 0
BBX 5 8 0 0
BITMAP
0EFD00
000000
760850
760850
760850
760850
691B40
1BEA00
ENDCHAR
STARTCHAR Ubreve.c2sc
ENCODING -1
SWIDTH 488 0
DWIDTH 5 0
BBX 5 7 0 0
BITMAP
0C1C00
7DEE50
760850
760850
760850
691B40
1BEA00
ENDCHAR
STARTCHAR Uring.c2sc
ENCODING -1
SWIDTH 488 0
DWIDTH 5 0
BBX 5 9 0 0
BITMAP
058400
068400
000000
760850
760850
760850
760850
691B40
1BEA00
ENDCHAR
STARTCHAR Uhungarumlaut.c2sc
ENCODING -1
SWIDTH 488 0
DWIDTH 5 0
BBX 5 9 0 0
BITMAP
03BC20
067800
000000
760850
760850
760850
760850
691B40
1BEA00
ENDCHAR
STARTCHAR Uogonek.c2sc
ENCODING -1
SWIDTH 488 0
DWIDTH 5 0
BBX 5 8 0 -2
BITMAP
760850
760850
760850
760850
691B40
1BFA00
00B100
00C700
ENDCHAR
STARTCHAR Wcircumflex.c2sc
ENCODING -1
SWIDTH 655 0
DWIDTH 7 0
BBX 7 9 0 0
BITMAP
004D1000
00A65000
00000000
933C0930
666E0C10
39983C00
0BA38900
0B90D600
0960C300
ENDCHAR
STARTCHAR Ycircumflex.c2sc
ENCODING -1
SWIDTH 458 0
DWIDTH 5 0
BBX 5 9 0 0
BITMAP
05C100
0A6500
000000
A50B30
3B2B00
0BB500
05D000
02B000
02B000
ENDCHAR
STARTCHAR Ydieresis.c2sc
ENCODING -1
SWIDTH 458 0
DWIDTH 5 0
BBX 5 8 0 0
BITMAP
391B00
000000
A50B30
3B2B00
0BB500
05D000
02B000
02B000
ENDCHAR
STARTCHAR Zacute.c2sc
ENCODING -1
SWIDTH 454 0
DWIDTH 5 0
BBX 5 9 0 0
BITMAP
009800
01B000
000000
9FFF10
004A00
01C100
085000
3A0000
9FFF30
ENDCHAR
STARTCHAR Zdotaccent.c2sc
ENCODING -1
SWIDTH 454 0
DWIDTH 5 0
BBX 5 8 0 0
BITMAP
02A000
000000
9FFF10
004A00
01C100
085000
3A0000
9FFF30
ENDCHAR
STARTCHAR Zcaron.c2sc
ENCODING -1
SWIDTH 454 0
DWIDTH 5 0
BBX 5 9 0 0
BITMAP
0A6500
04C000
000000
9FFF10
004A00
01C100
085000
3A0000
9FFF30
ENDCHAR
STARTCHAR two.pnum
ENCODING -1
SWIDTH 493 0
DWIDTH 5 0
BBX 5 7 0 0
BITMAP
1BEA00
691C30
110B20
005900
03B100
1C2000
6FFF80
ENDCHAR
STARTCHAR three.pnum
ENCODING -1
SWIDTH 493 0
DWIDTH 5 0
BBX 5 7 0 0
BITMAP
0AE800
591C20
211C10
05F900
211B30
691B30
0BE900
ENDCHAR
STARTCHAR four.pnum
ENCODING -1
SWIDTH 493 0
DWIDTH 5 0
BBX 5 7 0 0
BITMAP
005D00
00AD00
047D00
0A1D00
470D00
AFFFA0
000D00
ENDCHAR
STARTCHAR five.pnum
ENCODING -1
SWIDTH 493 0
DWIDTH 5 0
BBX 5 7 0 0
BITMAP
0CFF50
0C0000
0EEB00
031A50
000670
3B1A50
09EB00
ENDCHAR
STARTCHAR six.pnum
ENCODING -1
SWIDTH 503 0
DWIDTH 5 0
BBX 5 7 0 0
BITMAP
03CA00
0C5000
2CDB10
4D2960
4A0570
1D2950
07EB00
ENDCHAR
STARTCHAR eight.pnum
ENCODING -1
SWIDTH 513 0
DWIDTH 5 0
BBX 5 7 0 0
BITMAP
09EA00
2D1B40
1C1B20
09FB00
3B1950
4A1960
0AEB10
ENDCHAR
STARTCHAR nine.pnum
ENCODING -1
SWIDTH 503 0
DWIDTH 5 0
BBX 5 7 0 0
BITMAP
0AE700
5A1D10
760940
5A1C40
0BDC30
004D00
09C300
ENDCHAR
STARTCHAR zero.pnum
ENCODING -1
SWIDTH 513 0
DWIDTH 5 0
BBX 5 7 0 0
BITMAP
09EA00
2C1B40
580760
580670
580760
2C1B40
09EA00
ENDCHAR
STARTCHAR G_acutecomb.ccmp
ENCODING -1
SWIDTH 590 0
DWIDTH 6 0
BBX 6 10 0 0
BITMAP
001D20
006600
000000
07EE50
2D22D1
580041
680000
580FF3
2D21B3
06DEA1
ENDCHAR
STARTCHAR g_acutecomb.ccmp
ENCODING -1
SWIDTH 492 0
DWIDTH 5 0
BBX 5 10 0 -2
BITMAP
008900
00B100
000000
1CEC40
691B40
850940
691B40
1CED40
021B30
1BEA00
ENDCHAR
STARTCHAR N_gravecomb.ccmp
ENCODING -1
SWIDTH 619 0
DWIDTH 6 0
BBX 6 10 0 0
BITMAP
02D100
007500
000000
4D1076
4E7076
4AC176
4A5876
4A0B86
4A04E6
4A00B6
ENDCHAR
STARTCHAR n_gravecomb.ccmp
ENCODING -1
SWIDTH 483 0
DWIDTH 5 0
BBX 5 8 0 0
BITMAP
0B5000
02A000
000000
5CEB00
5B1C20
580A30
580A30
580A30
ENDCHAR
STARTCHAR A_uni030F.ccmp
ENCODING -1
SWIDTH 576 0
DWIDTH 6 0
BBX 6 10 0 0
BITMAP
1DA400
069900
000000
00A600
01CB00
057A10
0A2560
0EFFB0
5800C1
A40086
ENDCHAR
STARTCHAR a_uni030F.ccmp
ENCODING -1
SWIDTH 479 0
DWIDTH 5 0
BBX 5 8 0 0
BITMAP
6AC000
0B9300
000000
1BEA00
251D10
1BFF10
691C10
2DDD30
ENDCHAR
STARTCHAR E_uni030F.ccmp
ENCODING -1
SWIDTH 496 0
DWIDTH 5 0
BBX 5 10 0 0
BITMAP
4BC100
0A9500
000000
4FFF80
4A0000
4A0000
4FFF30
4A0000
4A0000
4FFF90
ENDCHAR
STARTCHAR e_uni030F.ccmp
ENCODING -1
SWIDTH 468 0
DWIDTH 5 0
BBX 5 8 0 0
BITMAP
89B000
0BA200
000000
1BE900
681B20
8FFF40
680200
1BEC10
ENDCHAR
STARTCHAR I_uni030F.ccmp
ENCODING -1
SWIDTH 250 0
DWIDTH 3 0
BBX 3 10 -1 0
BITMAP
A990
2BB0
0000
03B0
03B0
03B0
03B0
03B0
03B0
03B0
ENDCHAR
STARTCHAR dotlessi_uni030F.ccmp
ENCODING -1
SWIDTH 234 0
DWIDTH 2 0
BBX 3 8 -1 0
BITMAP
B980
2BB0
0000
0490
0490
0490
0490
0490
ENDCHAR
STARTCHAR O_uni030F.ccmp
ENCODING -1
SWIDTH 600 0
DWIDTH 6 0
BBX 6 10 0 0
BITMAP
0CA600
04AA00
000000
06EE60
2D22D2
580085
680086
580085
2D22D2
06EE60
ENDCHAR
STARTCHAR o_uni030F.ccmp
ENCODING -1
SWIDTH 501 0
DWIDTH 5 0
BBX 5 8 0 0
BITMAP
7AC000
0B9300
000000
1BEB10
691960
850580
691960
1BEB10
ENDCHAR
STARTCHAR R_uni030F.ccmp
ENCODING -1
SWIDTH 530 0
DWIDTH 5 0
BBX 5 10 0 0
BITMAP
5BC000
0A9500
000000
4FFD40
4A04C0
4A04C0
4FFE30
4A0D10
4A0780
4A01D0
ENDCHAR
STARTCHAR r_uni030F.ccmp
ENCODING -1
SWIDTH 304 0
DWIDTH 3 0
BBX 4 8 -1 0
BITMAP
3CC2
0897
0000
05CC
05A0
0580
0580
0580
ENDCHAR
STARTCHAR U_uni030F.ccmp
ENCODING -1
SWIDTH 561 0
DWIDTH 6 0
BBX 5 10 0 0
BITMAP
2CB200
079800
000000
5800D0
5800D0
5800D0
5800D0
5800D0
4C13D0
09ED50
ENDCHAR
STARTCHAR u_uni030F.ccmp
ENCODING -1
SWIDTH 483 0
DWIDTH 5 0
BBX 5 8 0 0
BITMAP
89B000
0BA200
000000
670A30
670A30
670A30
591C30
1DED30
ENDCHAR
STARTCHAR Upsilon1_acutecomb.ccmp
ENCODING -1
SWIDTH 514 0
DWIDTH 5 0
BBX 8 8 -2 0
BITMAP
1B000000
267A02D2
000C3870
00068D10
0001E900
0000A400
00009400
00009400
ENDCHAR
STARTCHAR B_dotbelowcomb.ccmp
ENCODING -1
SWIDTH 545 0
DWIDTH 5 0
BBX 5 9 0 -2
BITMAP
4FFD30
4A05A0
4A0690
4FFF30
4A03C0
4A04C0
4FFD40
000000
00B100
ENDCHAR
STARTCHAR b_dotbelowcomb.ccmp
ENCODING -1
SWIDTH 493 0
DWIDTH 5 0
BBX 5 10 0 -2
BITMAP
580000
580000
580000
5CEC10
5A1960
580670
5A1950
5CEC10
000000
00C000
ENDCHAR
STARTCHAR D_dotbelowcomb.ccmp
ENCODING -1
SWIDTH 570 0
DWIDTH 6 0
BBX 6 9 0 -2
BITMAP
4FFC20
4A05C0
4A00D0
4A00C1
4A00D0
4A05C0
4FFB20
000000
00B100
ENDCHAR
STARTCHAR d_dotbelowcomb.ccmp
ENCODING -1
SWIDTH 496 0
DWIDTH 5 0
BBX 5 10 0 -2
BITMAP
000940
000940
000940
1CED40
691B40
850940
681B40
1CEC40
000000
00B100
ENDCHAR
STARTCHAR D_uniF6C3.ccmp
ENCODING -1
SWIDTH 570 0
DWIDTH 6 0
BBX 6 10 0 -3
BITMAP
4FFC20
4A05C0
4A00D0
4A00C1
4A00D0
4A05C0
4FFB20
000000
00C000
009000
ENDCHAR
STARTCHAR d_uniF6C3.ccmp
ENCODING -1
SWIDTH 496 0
DWIDTH 5 0
BBX 5 11 0 -3
BITMAP
000940
000940
000940
1CED40
691B40
850940
681B40
1CEC40
000000
00C000
009000
ENDCHAR
STARTCHAR H_dotbelowcomb.ccmp
ENCODING -1
SWIDTH 620 0
DWIDTH 6 0
BBX 6 9 0 -2
BITMAP
4A0076
4A0076
4A0076
4FFFF6
4A0076
4A0076
4A0076
000000
006600
ENDCHAR
STARTCHAR h_dotbelowcomb.ccmp
ENCODING -1
SWIDTH 482 0
DWIDTH 5 0
BBX 5 10 0 -2
BITMAP
580000
580000
580000
5CEB00
5B1C20
580A30
580A30
580A30
000000
00C000
ENDCHAR
STARTCHAR K_acutecomb.ccmp
ENCODING -1
SWIDTH 544 0
DWIDTH 5 0
BBX 6 10 0 0
BITMAP
004C00
009200
000000
4A03C1
4A1C20
4AA500
4EE300
4C3C00
4A0970
4A01D2
ENDCHAR
STARTCHAR k_acutecomb.ccmp
ENCODING -1
SWIDTH 450 0
DWIDTH 5 0
BBX 5 11 0 0
BITMAP
008800
00B100
000000
580000
580000
580000
585B00
5BD100
5DB000
586700
580C20
ENDCHAR
STARTCHAR K_dotbelowcomb.ccmp
ENCODING -1
SWIDTH 544 0
DWIDTH 5 0
BBX 6 9 0 -2
BITMAP
4A03C1
4A1C20
4AA500
4EE300
4C3C00
4A0970
4A01D2
000000
009300
ENDCHAR
STARTCHAR k_dotbelowcomb.ccmp
ENCODING -1
SWIDTH 450 0
DWIDTH 5 0
BBX 5 10 0 -2
BITMAP
580000
580000
580000
585B00
5BD100
5DB000
586700
580C20
000000
039000
ENDCHAR
STARTCHAR L_dotbelowcomb.ccmp
ENCODING -1
SWIDTH 475 0
DWIDTH 5 0
BBX 5 9 0 -2
BITMAP
4A0000
4A0000
4A0000
4A0000
4A0000
4A0000
4FFF70
000000
00B100
ENDCHAR
STARTCHAR l_dotbelowcomb.ccmp
ENCODING -1
SWIDTH 229 0
DWIDTH 2 0
BBX 2 10 0 -2
BITMAP
49
49
49
49
49
49
49
49
00
48
ENDCHAR
STARTCHAR M_dotbelowcomb.ccmp
ENCODING -1
SWIDTH 755 0
DWIDTH 8 0
BBX 7 9 0 -2
BITMAP
4F1008C0
4F600CC0
4BB03BC0
49B186C0
4A66B2C0
4A1C92C0
4A0B42C0
00000000
000A2000
ENDCHAR
STARTCHAR m_dotbelowcomb.ccmp
ENCODING -1
SWIDTH 752 0
DWIDTH 8 0
BBX 7 7 0 -2
BITMAP
5CEBAE70
5A1C62D0
580A30D0
580A30D0
580A30D0
00000000
000A2000
ENDCHAR
STARTCHAR N_dotbelowcomb.ccmp
ENCODING -1
SWIDTH 619 0
DWIDTH 6 0
BBX 6 9 0 -2
BITMAP
4D1076
4E7076
4AC176
4A5876
4A0B86
4A04E6
4A00B6
000000
006600
ENDCHAR
STARTCHAR n_dotbelowcomb.ccmp
ENCODING -1
SWIDTH 483 0
DWIDTH 5 0
BBX 5 7 0 -2
BITMAP
5CEB00
5B1C20
580A30
580A30
580A30
000000
01B000
ENDCHAR
STARTCHAR O_tildecomb_acutecomb.ccmp
ENCODING -1
SWIDTH 600 0
DWIDTH 6 0
BBX 6 10 0 0
BITMAP
001900
00AA10
000000
06EE60
2D22D2
580085
680086
580085
2D22D2
06EE60
ENDCHAR
STARTCHAR P_acutecomb.ccmp
ENCODING -1
SWIDTH 554 0
DWIDTH 6 0
BBX 6 10 0 0
BITMAP
004C00
009300
000000
4FFE70
4A02D1
4A01D1
4FFE70
4A0000
4A0000
4A0000
ENDCHAR
STARTCHAR p_acutecomb.ccmp
ENCODING -1
SWIDTH 493 0
DWIDTH 5 0
BBX 5 10 0 -2
BITMAP
003D10
008400
000000
5CEC10
5A1A60
580670
5A1A60
5CEC10
580000
580000
ENDCHAR
STARTCHAR R_dotbelowcomb.ccmp
ENCODING -1
SWIDTH 530 0
DWIDTH 5 0
BBX 5 9 0 -2
BITMAP
4FFD40
4A04C0
4A04C0
4FFE30
4A0D10
4A0780
4A01D0
000000
00C000
ENDCHAR
STARTCHAR r_dotbelowcomb.ccmp
ENCODING -1
SWIDTH 304 0
DWIDTH 3 0
BBX 3 7 0 -2
BITMAP
5CC0
5A00
5800
5800
5800
0000
5800
ENDCHAR
STARTCHAR S_dotbelowcomb.ccmp
ENCODING -1
SWIDTH 518 0
DWIDTH 5 0
BBX 5 9 0 -2
BITMAP
0AEB10
5A1780
3B1140
05C910
320690
6A15B0
08ED30
000000
00B100
ENDCHAR
STARTCHAR s_dotbelowcomb.ccmp
ENCODING -1
SWIDTH 455 0
DWIDTH 5 0
BBX 4 7 0 -2
BITMAP
1CE8
4C37
07E9
451E
2CE9
0000
01B0
ENDCHAR
STARTCHAR T_dotbelowcomb.ccmp
ENCODING -1
SWIDTH 520 0
DWIDTH 5 0
BBX 5 9 0 -2
BITMAP
BFFFE0
00D100
00D100
00D100
00D100
00D100
00D100
000000
00B100
ENDCHAR
STARTCHAR t_dotbelowcomb.ccmp
ENCODING -1
SWIDTH 295 0
DWIDTH 3 0
BBX 3 8 0 -2
BITMAP
1C00
DF90
1C00
1C00
1C00
0C80
0000
0750
ENDCHAR
STARTCHAR U_tildecomb_acutecomb.ccmp
ENCODING -1
SWIDTH 561 0
DWIDTH 6 0
BBX 5 10 0 0
BITMAP
004600
03A800
000000
5800D0
5800D0
5800D0
5800D0
5800D0
4C13D0
09ED50
ENDCHAR
STARTCHAR V_tildecomb.ccmp
ENCODING -1
SWIDTH 560 0
DWIDTH 6 0
BBX 6 10 0 0
BITMAP
05B640
094D10
000000
A500B4
5901D0
1D0490
0A3940
067C00
01DA00
00B500
ENDCHAR
STARTCHAR v_tildecomb.ccmp
ENCODING -1
SWIDTH 427 0
DWIDTH 4 0
BBX 4 8 0 0
BITMAP
1D39
46C5
0000
940D
5848
0B84
0AC0
0590
ENDCHAR
STARTCHAR V_dotbelowcomb.ccmp
ENCODING -1
SWIDTH 560 0
DWIDTH 6 0
BBX 6 9 0 -2
BITMAP
A500B4
5901D0
1D0490
0A3940
067C00
01DA00
00B500
000000
009300
ENDCHAR
STARTCHAR v_dotbelowcomb.ccmp
ENCODING -1
SWIDTH 427 0
DWIDTH 4 0
BBX 4 7 0 -2
BITMAP
940D
5848
0B84
0AC0
0590
0000
0480
ENDCHAR
STARTCHAR W_dotbelowcomb.ccmp
ENCODING -1
SWIDTH 761 0
DWIDTH 8 0
BBX 8 9 0 -2
BITMAP
850950A4
580C90C1
2A1AB0C0
0C56A3A0
0B927970
08D03E40
05A00E10
00000000
00084000
ENDCHAR
STARTCHAR w_dotbelowcomb.ccmp
ENCODING -1
SWIDTH 649 0
DWIDTH 7 0
BBX 7 7 0 -2
BITMAP
934B0B20
678D1C00
2AB77900
0CA3E500
0950D100
00000000
00390000
ENDCHAR
STARTCHAR Z_dotbelowcomb.ccmp
ENCODING -1
SWIDTH 522 0
DWIDTH 5 0
BBX 5 9 0 -2
BITMAP
8FFFA0
000940
004A00
01C100
086000
3B0000
8FFFC0
000000
00C000
ENDCHAR
STARTCHAR z_dotbelowcomb.ccmp
ENCODING -1
SWIDTH 438 0
DWIDTH 4 0
BBX 4 7 0 -2
BITMAP
8FFD
0086
0590
2B00
8FFF
0000
0390
ENDCHAR
STARTCHAR Alphatonos.c2sc
ENCODING -1
SWIDTH 501 0
DWIDTH 5 0
BBX 5 7 0 0
BITMAP
390000
45E100
05D600
0A5B00
1D0D10
5FFF50
A404A0
ENDCHAR
STARTCHAR Epsilontonos.c2sc
ENCODING -1
SWIDTH 458 0
DWIDTH 5 0
BBX 6 7 -1 0
BITMAP
840000
71FFF4
01C000
01FFE0
01C000
01C000
01FFF4
ENDCHAR
STARTCHAR Etatonos.c2sc
ENCODING -1
SWIDTH 562 0
DWIDTH 6 0
BBX 6 7 -1 0
BITMAP
660000
63C00D
01C00D
01FFFF
01C00D
01C00D
01C00D
ENDCHAR
STARTCHAR Iotatonos.c2sc
ENCODING -1
SWIDTH 250 0
DWIDTH 3 0
BBX 3 7 -1 0
BITMAP
6600
62D0
00D0
00D0
00D0
00D0
00D0
ENDCHAR
STARTCHAR Omicrontonos.c2sc
ENCODING -1
SWIDTH 523 0
DWIDTH 5 0
BBX 6 7 -1 0
BITMAP
1B0000
268EB1
03B188
06602B
06602B
03B178
008EB1
ENDCHAR
STARTCHAR Upsilontonos.c2sc
ENCODING -1
SWIDTH 487 0
DWIDTH 5 0
BBX 6 7 -1 0
BITMAP
B10000
859078
00D1C1
007B90
001E30
000D00
000D00
ENDCHAR
STARTCHAR Omegatonos.c2sc
ENCODING -1
SWIDTH 545 0
DWIDTH 5 0
BBX 6 7 -1 0
BITMAP
0C0000
178EC2
03C16A
06700D
04800C
01B167
06F8FD
ENDCHAR
STARTCHAR Alpha.c2sc
ENCODING -1
SWIDTH 501 0
DWIDTH 5 0
BBX 5 6 0 0
BITMAP
01E100
05D600
0A5B00
1D0D10
5FFF50
A404A0
ENDCHAR
STARTCHAR Beta.c2sc
ENCODING -1
SWIDTH 475 0
DWIDTH 5 0
BBX 5 6 0 0
BITMAP
5FFA00
581D10
5FFB00
580B20
581C30
5FFA00
ENDCHAR
STARTCHAR Epsilon.c2sc
ENCODING -1
SWIDTH 428 0
DWIDTH 4 0
BBX 4 6 0 0
BITMAP
5FFE
5800
5FF9
5800
5800
5FFF
ENDCHAR
STARTCHAR Zeta.c2sc
ENCODING -1
SWIDTH 454 0
DWIDTH 5 0
BBX 5 6 0 0
BITMAP
9FFF10
004A00
01C100
085000
3A0000
9FFF30
ENDCHAR
STARTCHAR Eta.c2sc
ENCODING -1
SWIDTH 533 0
DWIDTH 5 0
BBX 5 6 0 0
BITMAP
5803A0
5803A0
5FFFA0
5803A0
5803A0
5803A0
ENDCHAR
STARTCHAR Iota.c2sc
ENCODING -1
SWIDTH 221 0
DWIDTH 2 0
BBX 2 6 0 0
BITMAP
58
58
58
58
58
58
ENDCHAR
STARTCHAR Kappa.c2sc
ENCODING -1
SWIDTH 473 0
DWIDTH 5 0
BBX 5 6 0 0
BITMAP
580C30
589700
5CC000
5DC300
584B00
580A60
ENDCHAR
STARTCHAR Mu.c2sc
ENCODING -1
SWIDTH 652 0
DWIDTH 7 0
BBX 6 6 0 0
BITMAP
5E006D
5E30BC
5A81BC
57C56C
588D1D
583B0D
ENDCHAR
STARTCHAR Nu.c2sc
ENCODING -1
SWIDTH 533 0
DWIDTH 5 0
BBX 5 6 0 0
BITMAP
5B03A0
5E43A0
58B3A0
5877A0
581DA0
5806A0
ENDCHAR
STARTCHAR Omicron.c2sc
ENCODING -1
SWIDTH 519 0
DWIDTH 5 0
BBX 5 6 0 0
BITMAP
09EB10
4B1870
7503A0
7603A0
4B1870
09EB10
ENDCHAR
STARTCHAR Rho.c2sc
ENCODING -1
SWIDTH 481 0
DWIDTH 5 0
BBX 5 6 0 0
BITMAP
5FFB10
580960
580960
5FFB10
580000
580000
ENDCHAR
STARTCHAR Tau.c2sc
ENCODING -1
SWIDTH 456 0
DWIDTH 5 0
BBX 5 6 0 0
BITMAP
BFFF40
02B000
02B000
02B000
02B000
02B000
ENDCHAR
STARTCHAR Upsilon.c2sc
ENCODING -1
SWIDTH 458 0
DWIDTH 5 0
BBX 5 6 0 0
BITMAP
A50B30
3B2B00
0BB500
05D000
02B000
02B000
ENDCHAR
STARTCHAR Chi.c2sc
ENCODING -1
SWIDTH 478 0
DWIDTH 5 0
BBX 5 6 0 0
BITMAP
780C30
0D5A00
06E300
06E300
1D4B00
780B40
ENDCHAR
STARTCHAR Iotadieresis.c2sc
ENCODING -1
SWIDTH 221 0
DWIDTH 2 0
BBX 4 8 -1 0
BITMAP
5748
0000
0580
0580
0580
0580
0580
0580
ENDCHAR
STARTCHAR Upsilondieresis.c2sc
ENCODING -1
SWIDTH 458 0
DWIDTH 5 0
BBX 5 8 0 0
BITMAP
391B00
000000
A50B30
3B2B00
0BB500
05D000
02B000
02B000
ENDCHAR
STARTCHAR uni0401.c2sc
ENCODING -1
SWIDTH 428 0
DWIDTH 4 0
BBX 4 8 0 0
BITMAP
2A1B
0000
5FFE
5800
5FF9
5800
5800
5FFF
ENDCHAR
STARTCHAR uni0403.c2sc
ENCODING -1
SWIDTH 405 0
DWIDTH 4 0
BBX 4 9 0 0
BITMAP
0098
01B0
0000
5FFC
5800
5800
5800
5800
5800
ENDCHAR
STARTCHAR uni0405.c2sc
ENCODING -1
SWIDTH 453 0
DWIDTH 5 0
BBX 5 6 0 0
BITMAP
1CE700
681C10
3E9200
017D00
871D20
1BE900
ENDCHAR
STARTCHAR uni0406.c2sc
ENCODING -1
SWIDTH 221 0
DWIDTH 2 0
BBX 2 6 0 0
BITMAP
58
58
58
58
58
58
ENDCHAR
STARTCHAR uni0407.c2sc
ENCODING -1
SWIDTH 221 0
DWIDTH 2 0
BBX 4 8 -1 0
BITMAP
5748
0000
0580
0580
0580
0580
0580
0580
ENDCHAR
STARTCHAR uni0408.c2sc
ENCODING -1
SWIDTH 419 0
DWIDTH 4 0
BBX 4 6 0 0
BITMAP
0049
0049
0049
0049
7378
4ED2
ENDCHAR
STARTCHAR uni040C.c2sc
ENCODING -1
SWIDTH 473 0
DWIDTH 5 0
BBX 5 9 0 0
BITMAP
00A700
01B000
000000
580C30
589700
5CC000
5DC300
584B00
580A60
ENDCHAR
STARTCHAR uni040E.c2sc
ENCODING -1
SWIDTH 454 0
DWIDTH 5 0
BBX 5 7 0 0
BITMAP
2B3A00
9FEF30
3A1C00
0C6700
07E200
04C000
1E4000
ENDCHAR
STARTCHAR uni0410.c2sc
ENCODING -1
SWIDTH 501 0
DWIDTH 5 0
BBX 5 6 0 0
BITMAP
01E100
05D600
0A5B00
1D0D10
5FFF50
A404A0
ENDCHAR
STARTCHAR uni0412.c2sc
ENCODING -1
SWIDTH 475 0
DWIDTH 5 0
BBX 5 6 0 0
BITMAP
5FFA00
581D10
5FFB00
580B20
581C30
5FFA00
ENDCHAR
STARTCHAR uni0413.c2sc
ENCODING -1
SWIDTH 405 0
DWIDTH 4 0
BBX 4 6 0 0
BITMAP
5FFC
5800
5800
5800
5800
5800
ENDCHAR
STARTCHAR uni0415.c2sc
ENCODING -1
SWIDTH 428 0
DWIDTH 4 0
BBX 4 6 0 0
BITMAP
5FFE
5800
5FF9
5800
5800
5FFF
ENDCHAR
STARTCHAR uni0419.c2sc
ENCODING -1
SWIDTH 537 0
DWIDTH 5 0
BBX 5 7 0 0
BITMAP
0B2B10
5CEFB0
581DB0
5878B0
59C2B0
5E52B0
5C02B0
ENDCHAR
STARTCHAR uni041C.c2sc
ENCODING -1
SWIDTH 652 0
DWIDTH 7 0
BBX 6 6 0 0
BITMAP
5E006D
5E30BC
5A81BC
57C56C
588D1D
583B0D
ENDCHAR
STARTCHAR uni041D.c2sc
ENCODING -1
SWIDTH 533 0
DWIDTH 5 0
BBX 5 6 0 0
BITMAP
5803A0
5803A0
5FFFA0
5803A0
5803A0
5803A0
ENDCHAR
STARTCHAR uni041E.c2sc
ENCODING -1
SWIDTH 519 0
DWIDTH 5 0
BBX 5 6 0 0
BITMAP
09EB10
4B1870
7503A0
7603A0
4B1870
09EB10
ENDCHAR
STARTCHAR uni041F.c2sc
ENCODING -1
SWIDTH 525 0
DWIDTH 5 0
BBX 5 6 0 0
BITMAP
5FFF90
580490
580490
580490
580490
580490
ENDCHAR
STARTCHAR uni0420.c2sc
ENCODING -1
SWIDTH 481 0
DWIDTH 5 0
BBX 5 6 0 0
BITMAP
5FFB10
580960
580960
5FFB10
580000
580000
ENDCHAR
STARTCHAR uni0421.c2sc
ENCODING -1
SWIDTH 490 0
DWIDTH 5 0
BBX 5 6 0 0
BITMAP
09EA00
5A1950
750120
750110
5A1950
09EA00
ENDCHAR
STARTCHAR uni0422.c2sc
ENCODING -1
SWIDTH 456 0
DWIDTH 5 0
BBX 5 6 0 0
BITMAP
BFFF40
02B000
02B000
02B000
02B000
02B000
ENDCHAR
STARTCHAR uni0425.c2sc
ENCODING -1
SWIDTH 478 0
DWIDTH 5 0
BBX 5 6 0 0
BITMAP
780C30
0D5A00
06E300
06E300
1D4B00
780B40
ENDCHAR
STARTCHAR uni0498.c2sc
ENCODING -1
SWIDTH 466 0
DWIDTH 5 0
BBX 5 8 0 -2
BITMAP
2DE900
552D00
05F700
001D00
652D10
3EF800
049000
049000
ENDCHAR
STARTCHAR uni04A2.c2sc
ENCODING -1
SWIDTH 533 0
DWIDTH 5 0
BBX 6 8 0 -2
BITMAP
5803A0
5803A0
5FFFA0
5803A0
5803A0
5803F7
000067
000067
ENDCHAR
STARTCHAR uni04AA.c2sc
ENCODING -1
SWIDTH 490 0
DWIDTH 5 0
BBX 5 8 0 -2
BITMAP
09EB10
4A1960
750000
850000
5A1860
0AFC10
00D000
00D000
ENDCHAR
STARTCHAR uni04AE.c2sc
ENCODING -1
SWIDTH 458 0
DWIDTH 5 0
BBX 5 6 0 0
BITMAP
A50B30
3B2B00
0BB500
05D000
02B000
02B000
ENDCHAR
STARTCHAR uni04BE.c2sc
ENCODING -1
SWIDTH 632 0
DWIDTH 6 0
BBX 6 8 0 -2
BITMAP
007EB1
12C179
B7701C
5EFFFD
059120
009FF2
000940
000940
ENDCHAR
STARTCHAR uni04E2.c2sc
ENCODING -1
SWIDTH 537 0
DWIDTH 5 0
BBX 5 8 0 0
BITMAP
0BFF20
000000
5806B0
581DB0
5878B0
59C2B0
5E52B0
5C02B0
ENDCHAR
STARTCHAR uni04EE.c2sc
ENCODING -1
SWIDTH 454 0
DWIDTH 5 0
BBX 5 8 0 0
BITMAP
2FFB00
000000
960C30
3A1C00
0C6700
07E200
04C000
1E4000
ENDCHAR
STARTCHAR uni0424.c2sc
ENCODING -1
SWIDTH 587 0
DWIDTH 6 0
BBX 6 6 0 0
BITMAP
007600
1AFE90
6886A5
6886A5
1AFE90
007600
ENDCHAR
STARTCHAR IJ.c2sc
ENCODING -1
SWIDTH 641 0
DWIDTH 6 0
BBX 6 6 0 0
BITMAP
58001C
58001C
58001C
58001C
58564B
582DE5
ENDCHAR
STARTCHAR AEacute.c2sc
ENCODING -1
SWIDTH 676 0
DWIDTH 7 0
BBX 7 8 0 0
BITMAP
0002D100
00075000
006FFF20
00CC1000
058BFE00
0B3B2000
3FFF3000
A60AFF50
ENDCHAR
STARTCHAR Oslashacute.c2sc
ENCODING -1
SWIDTH 519 0
DWIDTH 5 0
BBX 5 9 0 -1
BITMAP
004C00
009310
09ED50
4B1D70
7676A0
7793A0
4E3870
2DEB10
110000
ENDCHAR
STARTCHAR uni0218.c2sc
ENCODING -1
SWIDTH 453 0
DWIDTH 5 0
BBX 5 9 0 -3
BITMAP
1CE700
681C10
3E9200
017D00
871D20
1BE900
000000
01B000
036000
ENDCHAR
STARTCHAR Wgrave.c2sc
ENCODING -1
SWIDTH 655 0
DWIDTH 7 0
BBX 7 8 0 0
BITMAP
00D30000
00480000
933C0930
666E0C10
39983C00
0BA38900
0B90D600
0960C300
ENDCHAR
STARTCHAR Wacute.c2sc
ENCODING -1
SWIDTH 655 0
DWIDTH 7 0
BBX 7 8 0 0
BITMAP
00088000
001B0000
933C0930
666E0C10
39983C00
0BA38900
0B90D600
0960C300
ENDCHAR
STARTCHAR Wdieresis.c2sc
ENCODING -1
SWIDTH 655 0
DWIDTH 7 0
BBX 7 7 0 0
BITMAP
02A1B000
933C0930
666E0C10
39983C00
0BA38900
0B90D600
0960C300
ENDCHAR
STARTCHAR Ygrave.c2sc
ENCODING -1
SWIDTH 458 0
DWIDTH 5 0
BBX 5 8 0 0
BITMAP
1D3000
048000
A50B30
3B2B00
0BB500
05D000
02B000
02B000
ENDCHAR
STARTCHAR Aogonek.locl
ENCODING -1
SWIDTH 576 0
DWIDTH 6 0
BBX 6 9 0 -2
BITMAP
00A600
01CB00
057A10
0A2560
0EFFB0
5800C1
A41186
00A100
01D400
ENDCHAR
STARTCHAR aogonek.locl
ENCODING -1
SWIDTH 479 0
DWIDTH 5 0
BBX 5 7 0 -2
BITMAP
1BEA00
251D10
1BFF10
691C10
2EFD30
0A1000
0B7000
ENDCHAR
STARTCHAR Eogonek.locl
ENCODING -1
SWIDTH 496 0
DWIDTH 5 0
BBX 5 9 0 -2
BITMAP
4FFF80
4A0000
4A0000
4FFF30
4A0000
4A0000
4FFF90
037000
04E100
ENDCHAR
STARTCHAR eogonek.locl
ENCODING -1
SWIDTH 468 0
DWIDTH 5 0
BBX 5 7 0 -2
BITMAP
1BE900
681B20
8FFF40
680200
1BFC10
065000
07B000
ENDCHAR
STARTCHAR Aogonek.c2sc.locl
ENCODING -1
SWIDTH 501 0
DWIDTH 5 0
BBX 5 8 0 -2
BITMAP
01E100
05D600
0A5B00
1D0D10
5FFF50
A424A0
056000
05D000
ENDCHAR
STARTCHAR Eogonek.c2sc.locl
ENCODING -1
SWIDTH 428 0
DWIDTH 4 0
BBX 4 8 0 -2
BITMAP
5FFE
5800
5FF9
5800
5800
5FFF
0830
09A0
ENDCHAR
STARTCHAR glyph1293
ENCODING -1
SWIDTH 234 0
DWIDTH 2 0
BBX 2 7 0 -2
BITMAP
49
49
49
49
49
00
48
ENDCHAR
ENDFONT
